<?xml version="1.0" encoding="utf-8"?>
<!-- Generator: Adobe Illustrator 19.0.0, SVG Export Plug-In . SVG Version: 6.00 Build 0)  -->
<svg version="1.1" id="logo" xmlns="http://www.w3.org/2000/svg" xmlns:xlink="http://www.w3.org/1999/xlink" x="0px" y="0px"
	 viewBox="0 0 481.5 349.9" style="enable-background:new 0 0 481.5 349.9;" xml:space="preserve">


<defs>
	 <style type="text/css">

		.st0{font-family:'Lato', sans-serif;}
	 	.st1{font-size:48px;}
	 	.st2{letter-spacing:1000;}
	 	.st3{font-family:'Lato Light', sans-serif;}

 .st5{fill:#fff;stroke:#000;stroke-width:2;}

	 .st5 {
			 stroke-dasharray: 2100;
			 stroke-dashoffset: 0;
			 -webkit-animation: dash1 5s infinite forwards;
			 -o-animation:dash1 5s infinite forwards;
			 -moz-animation: dash1 5s infinite forwards;
			 animation: dash1 5s infinite forwards;
			 }



	 @-webkit-keyframes dash1 {
			 0% {
			 stroke-dashoffset: 2100;
			 fill:#fff;
			 }
			 70%{
			 stroke-dashoffset: 10;
			 fill: #fff;
			 }
			 95% {
			 stroke-dashoffset: 0;
			 fill:#000;
			 }
	 }

	 .st6{fill:#fff;stroke:#145481;stroke-width:2;}

		 .st6 {
				 stroke-dasharray: 2100;
				 stroke-dashoffset: 0;
				 -webkit-animation: dash 5s infinite forwards;
				 -o-animation:dash 5s infinite forwards;
				 -moz-animation: dash 5s infinite forwards;
				 animation: dash 5s infinite forwards;
				 }



		 @-webkit-keyframes dash {
				 0% {
				 stroke-dashoffset: 2100;
				 fill: #fff;
				 }
				 70%{
				 stroke-dashoffset: 10;
				 fill: #fff;
				 }
				 95% {
				 stroke-dashoffset: 0;
				 fill:#145481;
				 }
		 }

	 </style>

</defs>

<path id="XMLID_2_" class="st5" d="M240.5,43.2c2.9-5.4,7.2-12.4,13.6-19.5c6.2-6.9,12.5-11.8,17.5-15.1c18.2-1.2,38.3-1.5,59.9,0
	c8.8,0.6,17.2,1.4,25.3,2.4c-7.9,5.8-15.8,11.8-23.9,18c-4.6,3.6-9.2,7.2-13.6,10.7c-12.2-0.2-25-0.1-38.5,0.5
	C266.8,40.9,253.2,41.9,240.5,43.2z"/>
<path id="XMLID_3_" class="st6" d="M187,70c26.4-8.6,49.1-12.2,66.1-13.9c40.2-3.9,75.6,0.8,92.6,2.9c19.2,2.4,37.6,6.2,66.1,7.7
	c9,0.5,24.3,1,43.2-3.5c8.4-2,15.2-4.5,20-6.5c-16.7,26.6-31.4,48.1-42.3,63.6c-21.3,30.3-29.6,39.6-32.6,42.9
	c-5.5,6.1-23.7,25.7-51.9,45.2c-46,31.7-89.5,43.2-104.8,46.8c-47.2,11-85.2,7.8-116.1,5.2c-26.6-2.3-53.7-7.1-62.6-8.7
	c-21.2-3.8-39-7.9-52.3-11.3c5.5-17.3,15.6-42.5,34.8-68.7c2.3-3.1,15.9-21.5,34.8-38.1c48.3-42.2,109.5-52,134.5-55.2
	c-2.7,4.9-6.1,9-8.7,13.9c-15.9,2.9-34.1,7.7-53.5,15.5c-16.7,6.7-45.5,18.6-74.2,44.8c-9.6,8.8-23,21.3-34.5,41.9
	c-8.2,14.6-12.5,28.1-14.8,37.7c9.7,2.5,23.3,5.6,39.7,8.4c37.6,6.4,66.4,6.7,75.2,6.8c10.2,0,27.7-0.2,49.4-2.6
	c12.2-1.3,42.8-4.6,73.2-14.2c76.2-23.9,123.4-78.3,139-98.1c16.2-20.4,26.8-39.3,33.2-52.3c-22.2,1-39.8-0.6-51.6-2.3
	c-15.1-2.1-23.9-4.5-48.4-8.4c-6.5-1-15.3-2.2-32.9-4.5c-24.7-3.3-29.3-3.7-35.5-3.9c-9.3-0.2-16.5,0.2-28.1,1
	c-6.6,0.4-15.6,1-27.4,2.6C208.7,65.9,198.7,67.5,187,70z"/>
<path id="XMLID_4_" class="st5" d="M288.1,70.9c-15.2,11.8-26.5,23.2-34.4,31.8c-16.7,18.4-25.6,33.2-29.3,39.8c-7.6,13.6-11.6,24.3-12.6,36.3
	c-1.2,13.6,2.2,19.1,4,21.5c0.5,0.7,6.8,8.8,16.2,9c9.4,0.2,15.9-7.5,24.3-17.6c4.8-5.7,11.6-15,17.1-28.2
	c-1.8,10-7.3,34.3-23.2,51.1c-6.2,6.5-11.3,9.2-14.3,10.4c-12.2,5.1-23.5,2.3-26.4,1.5c-13.6-3.9-20.6-13.6-22.6-16.4
	c-2.5-3.5-6.9-10.9-8.2-25.8c-0.7-8.3-1-24.3,10.1-53.2c5.2-13.6,13.7-32.3,27.9-52.7c9.2-2.1,19.4-4,30.5-5.3
	C262.2,71.2,275.9,70.7,288.1,70.9z"/>
<text id="XMLID_103_" transform="matrix(1 0 0 1 40.9636 337.2403)"><tspan x="0" y="0" class="st0 st1 st2">i n n o v i s i o n’</tspan><tspan x="320" y="0" class="st3 st1 st2">16</tspan></text>
</svg>
