<svg id="Layer_1" data-name="Layer 1" xmlns="http://www.w3.org/2000/svg" viewBox="0 0 320.344 65.263">
  <defs>
    <style>
      .cls-1 {
        fill: #1a1a1a;
      }

      .cls-2 {
        fill: #145481;
      }

      .cls-3 {
        fill: #fff;
      }

      .cls-3, .cls-4 {
        stroke: #000;
        stroke-miterlimit: 10;
      }

      .cls-4 {
        fill: none;
      }
    </style>
  </defs>
  <title>af2858ce-5d42-45e9-9987-6a0f1ee5e1c0</title>
  <g id="_Group_" data-name="&lt;Group&gt;">
    <path id="_Path_" data-name="&lt;Path&gt;" class="cls-1" d="M270.224,9.487a24.536,24.536,0,0,1,2.915-4.948A21.6,21.6,0,0,1,276.886.7a80.3,80.3,0,0,1,12.8,0c1.876,0.15,3.682.361,5.413,0.619Q292.576,3.533,290,5.9q-1.481,1.363-2.915,2.722c-2.6-.051-5.35-0.019-8.224.124C275.83,8.895,272.946,9.153,270.224,9.487Z"/>
    <path id="_Path_2" data-name="&lt;Path&gt;" class="cls-2" d="M258.8,16.289a57.657,57.657,0,0,1,14.128-3.522,73.8,73.8,0,0,1,19.779.737c4.1,0.606,8.03,1.585,14.128,1.966a26.288,26.288,0,0,0,9.235-.9,26.53,26.53,0,0,0,4.273-1.638c-3.574,6.756-6.71,12.219-9.028,16.135a112.98,112.98,0,0,1-6.961,10.893,70.132,70.132,0,0,1-11.1,11.466,61.833,61.833,0,0,1-22.4,11.876c-10.082,2.8-18.193,1.98-24.81,1.31a129.387,129.387,0,0,1-13.37-2.211c-4.528-.972-8.331-2.017-11.165-2.867a65.763,65.763,0,0,1,7.443-17.445,61.261,61.261,0,0,1,7.443-9.664C246.712,21.718,259.8,19.21,265.128,18.4c-0.572,1.25-1.3,2.281-1.868,3.531a53.007,53.007,0,0,0-11.42,3.937,48.569,48.569,0,0,0-15.851,11.384A39.96,39.96,0,0,0,228.615,47.9a43.153,43.153,0,0,0-3.17,9.582c2.076,0.629,4.976,1.427,8.477,2.129a85.056,85.056,0,0,0,16.058,1.72,79.662,79.662,0,0,0,10.544-.655,71.114,71.114,0,0,0,15.644-3.6c16.27-6.076,26.36-19.887,29.7-24.9a79.148,79.148,0,0,0,7.1-13.268,51.927,51.927,0,0,1-11.027-.573c-3.233-.523-5.1-1.151-10.338-2.129-1.4-.261-3.277-0.551-7.03-1.147a58.905,58.905,0,0,0-7.581-.983,51.261,51.261,0,0,0-6,.246c-1.409.108-3.339,0.261-5.858,0.655C263.439,15.245,261.284,15.65,258.8,16.289Z"/>
    <path id="_Path_3" data-name="&lt;Path&gt;" class="cls-1" d="M280.381,16.511a64.02,64.02,0,0,0-7.352,8.073,55.768,55.768,0,0,0-6.254,10.108,24.879,24.879,0,0,0-2.689,9.21c-0.249,3.445.472,4.852,0.854,5.457,0.106,0.168,1.446,2.227,3.471,2.277,2.008,0.049,3.4-1.91,5.2-4.457a28.837,28.837,0,0,0,3.657-7.169c-0.388,2.533-1.56,8.717-4.954,12.973a9.117,9.117,0,0,1-3.065,2.644,7.428,7.428,0,0,1-5.644.371,9.344,9.344,0,0,1-4.837-4.162,14.287,14.287,0,0,1-1.751-6.541c-0.157-2.11-.211-6.163,2.156-13.519A67.923,67.923,0,0,1,265.128,18.4a55.177,55.177,0,0,1,6.524-1.347A54.312,54.312,0,0,1,280.381,16.511Z"/>
  </g>
  <g id="_Group_2" data-name="&lt;Group&gt;">
    <path d="M4.043,47.351H7a5.538,5.538,0,0,1,1.19.126,3.036,3.036,0,0,1,1.021.42,2.175,2.175,0,0,1,.714.77,2.378,2.378,0,0,1,.267,1.176,2.194,2.194,0,0,1-.455,1.393,2.222,2.222,0,0,1-1.295.777v0.028a2.389,2.389,0,0,1,1.645.735,2.483,2.483,0,0,1,.6,1.743,3.093,3.093,0,0,1-.119.7,2.385,2.385,0,0,1-.5.917,3.123,3.123,0,0,1-1.092.791,4.523,4.523,0,0,1-1.9.336H4.043V47.351Zm1.008,4.34h2.03A2.882,2.882,0,0,0,7.8,51.6a1.86,1.86,0,0,0,.645-0.3A1.579,1.579,0,0,0,9.1,49.955a2.142,2.142,0,0,0-.063-0.434,1.437,1.437,0,0,0-.28-0.56,1.747,1.747,0,0,0-.637-0.483,2.64,2.64,0,0,0-1.134-.2H5.051v3.416Zm0,4.648H6.983A4.446,4.446,0,0,0,8,56.227a2.539,2.539,0,0,0,.826-0.343A1.725,1.725,0,0,0,9.384,55.3a1.642,1.642,0,0,0,.2-0.84,1.708,1.708,0,0,0-.63-1.456,3.032,3.032,0,0,0-1.848-.476H5.051v3.808Z"/>
    <path d="M13.185,57.263H12.009l4.312-9.912H17.3l4.312,9.912H20.437l-1.092-2.6H14.276Zm1.471-3.528h4.3l-2.143-5.208Z"/>
    <path d="M31.608,55.7a3.854,3.854,0,0,1-.623.714,3.917,3.917,0,0,1-.847.581,4.807,4.807,0,0,1-1.029.385,4.745,4.745,0,0,1-1.169.14,5.3,5.3,0,0,1-2.051-.392,4.92,4.92,0,0,1-2.723-2.73,5.738,5.738,0,0,1,0-4.172,4.92,4.92,0,0,1,2.723-2.73A5.3,5.3,0,0,1,27.94,47.1a5,5,0,0,1,1.848.364,3.727,3.727,0,0,1,1.582,1.2l-0.882.658a2.384,2.384,0,0,0-.42-0.476,3.049,3.049,0,0,0-.608-0.42,3.833,3.833,0,0,0-.735-0.294,2.842,2.842,0,0,0-.784-0.112,4.025,4.025,0,0,0-1.708.35,3.885,3.885,0,0,0-1.281.938,4.132,4.132,0,0,0-.8,1.365,4.885,4.885,0,0,0,0,3.262,4.132,4.132,0,0,0,.8,1.365,3.885,3.885,0,0,0,1.281.938,4.018,4.018,0,0,0,1.708.35,4.318,4.318,0,0,0,.777-0.07,3.215,3.215,0,0,0,.756-0.238,2.862,2.862,0,0,0,.7-0.455,3.382,3.382,0,0,0,.608-0.721Z"/>
    <path d="M34.8,51.649h0.141l4.662-4.3h1.441l-5,4.494,5.278,5.418H39.841l-4.872-5.11H34.8v5.11H33.793V47.351H34.8v4.3Z"/>
    <path d="M50.663,57.263H49.654V48.275H46.337V47.351H53.98v0.924H50.663v8.988Z"/>
    <path d="M65.671,52.307a5.436,5.436,0,0,1-.392,2.086,4.918,4.918,0,0,1-2.724,2.73,5.559,5.559,0,0,1-4.1,0,4.92,4.92,0,0,1-2.723-2.73,5.738,5.738,0,0,1,0-4.172,4.92,4.92,0,0,1,2.723-2.73,5.559,5.559,0,0,1,4.1,0,4.918,4.918,0,0,1,2.724,2.73A5.438,5.438,0,0,1,65.671,52.307Zm-1.092,0a4.777,4.777,0,0,0-.28-1.631,4.132,4.132,0,0,0-.8-1.365,3.885,3.885,0,0,0-1.281-.938,4.341,4.341,0,0,0-3.416,0,3.885,3.885,0,0,0-1.281.938,4.132,4.132,0,0,0-.8,1.365,4.885,4.885,0,0,0,0,3.262,4.132,4.132,0,0,0,.8,1.365,3.885,3.885,0,0,0,1.281.938,4.341,4.341,0,0,0,3.416,0,3.885,3.885,0,0,0,1.281-.938,4.132,4.132,0,0,0,.8-1.365A4.775,4.775,0,0,0,64.579,52.307Z"/>
    <path d="M75.737,57.263H74.729V48.275H71.411V47.351h7.644v0.924H75.737v8.988Z"/>
    <path d="M81.084,47.351h1.008v4.3h5.4v-4.3H88.5v9.912H87.5v-4.69h-5.4v4.69H81.084V47.351Z"/>
    <path d="M92.689,56.339H98v0.924H91.682V47.351h6.146v0.924H92.689v3.374h4.8v0.924h-4.8v3.766Z"/>
    <path d="M105.863,57.263h-1.008V47.351h5.979v0.924h-4.971v3.374h4.62v0.924h-4.62v4.69Z"/>
    <path d="M120.214,53.567a6.336,6.336,0,0,1-.146,1.309,3.516,3.516,0,0,1-.554,1.281,3.157,3.157,0,0,1-1.112.973,4.48,4.48,0,0,1-3.633,0,3.171,3.171,0,0,1-1.106-.973,3.514,3.514,0,0,1-.553-1.281,6.274,6.274,0,0,1-.147-1.309V47.351h1.008v6.1a4.663,4.663,0,0,0,.141,1.225,2.961,2.961,0,0,0,.371.861,2.03,2.03,0,0,0,.518.553,2.7,2.7,0,0,0,.574.315,2.351,2.351,0,0,0,.553.147,3.592,3.592,0,0,0,.462.035,3.678,3.678,0,0,0,.455-0.035,2.347,2.347,0,0,0,.561-0.147,2.718,2.718,0,0,0,.573-0.315,2.048,2.048,0,0,0,.519-0.553,2.987,2.987,0,0,0,.371-0.861,4.708,4.708,0,0,0,.14-1.225v-6.1h1.008v6.216Z"/>
    <path d="M126.4,57.263h-1.009V48.275h-3.317V47.351h7.644v0.924H126.4v8.988Z"/>
    <path d="M138.833,53.567a6.336,6.336,0,0,1-.146,1.309,3.516,3.516,0,0,1-.554,1.281,3.157,3.157,0,0,1-1.112.973,4.48,4.48,0,0,1-3.633,0,3.171,3.171,0,0,1-1.106-.973,3.514,3.514,0,0,1-.553-1.281,6.274,6.274,0,0,1-.147-1.309V47.351h1.008v6.1a4.663,4.663,0,0,0,.141,1.225,2.961,2.961,0,0,0,.371.861,2.03,2.03,0,0,0,.518.553,2.7,2.7,0,0,0,.574.315,2.351,2.351,0,0,0,.553.147,3.592,3.592,0,0,0,.462.035,3.678,3.678,0,0,0,.455-0.035,2.347,2.347,0,0,0,.561-0.147,2.718,2.718,0,0,0,.573-0.315,2.048,2.048,0,0,0,.519-0.553,2.987,2.987,0,0,0,.371-0.861,4.708,4.708,0,0,0,.14-1.225v-6.1h1.008v6.216Z"/>
    <path d="M142.852,57.263h-1.008V47.351H144.9a3.888,3.888,0,0,1,2.387.658A2.328,2.328,0,0,1,148.158,50a2.475,2.475,0,0,1-.651,1.743,2.8,2.8,0,0,1-1.883.819l2.856,4.7h-1.232l-2.716-4.606h-1.681v4.606Zm0-5.53h1.792a4.036,4.036,0,0,0,1.142-.14,2.122,2.122,0,0,0,.749-0.371,1.354,1.354,0,0,0,.406-0.546A1.811,1.811,0,0,0,147.066,50a1.776,1.776,0,0,0-.126-0.665,1.409,1.409,0,0,0-.406-0.553,1.978,1.978,0,0,0-.749-0.371,4.247,4.247,0,0,0-1.142-.133h-1.792v3.458Z"/>
    <path d="M151.643,56.339h5.307v0.924h-6.314V47.351h6.146v0.924h-5.139v3.374h4.8v0.924h-4.8v3.766Z"/>
  </g>
  <g id="_Group_3" data-name="&lt;Group&gt;">
    <path d="M4.808,9.862A1.4,1.4,0,0,1,6.194,8.476a1.381,1.381,0,0,1,.977,2.363,1.369,1.369,0,0,1-1.952,0A1.332,1.332,0,0,1,4.808,9.862Zm0.441,3.57h1.89v9.954H5.25V13.432Z"/>
    <path d="M12.662,13.432h1.891v1.533h0.042a2.781,2.781,0,0,1,1.238-1.292,4.1,4.1,0,0,1,2.037-.494,4.328,4.328,0,0,1,1.376.221,3.11,3.11,0,0,1,1.154.682,3.3,3.3,0,0,1,.788,1.187,4.554,4.554,0,0,1,.294,1.712v6.4h-1.89v-5.88A3.323,3.323,0,0,0,19.4,16.32a2.163,2.163,0,0,0-.5-0.8,1.891,1.891,0,0,0-.725-0.441,2.675,2.675,0,0,0-.851-0.136,3.086,3.086,0,0,0-1.092.189,2.27,2.27,0,0,0-.882.6,2.819,2.819,0,0,0-.588,1.039,4.716,4.716,0,0,0-.21,1.491v5.124H12.662V13.432Z"/>
    <path d="M26.858,13.432h1.891v1.533h0.042a2.781,2.781,0,0,1,1.238-1.292,4.1,4.1,0,0,1,2.037-.494,4.328,4.328,0,0,1,1.376.221,3.11,3.11,0,0,1,1.154.682,3.3,3.3,0,0,1,.788,1.187,4.554,4.554,0,0,1,.294,1.712v6.4h-1.89v-5.88A3.323,3.323,0,0,0,33.6,16.32a2.163,2.163,0,0,0-.5-0.8,1.891,1.891,0,0,0-.725-0.441,2.675,2.675,0,0,0-.851-0.136,3.086,3.086,0,0,0-1.092.189,2.27,2.27,0,0,0-.882.6,2.819,2.819,0,0,0-.588,1.039,4.716,4.716,0,0,0-.21,1.491v5.124H26.858V13.432Z"/>
    <path d="M40.572,18.409a5.063,5.063,0,0,1,.409-2.037A5.321,5.321,0,0,1,42.1,14.713a5.347,5.347,0,0,1,7.519,0,5.3,5.3,0,0,1,1.123,1.659,5.064,5.064,0,0,1,.41,2.037,5.183,5.183,0,0,1-1.533,3.707,5.336,5.336,0,0,1-1.68,1.113,5.481,5.481,0,0,1-4.158,0A5.329,5.329,0,0,1,42.1,22.116,5.177,5.177,0,0,1,40.572,18.409Zm2.016,0a4.08,4.08,0,0,0,.231,1.4,3.135,3.135,0,0,0,.65,1.092,3.015,3.015,0,0,0,1.029.714,3.683,3.683,0,0,0,2.729,0,3.015,3.015,0,0,0,1.029-.714,3.152,3.152,0,0,0,.651-1.092,4.346,4.346,0,0,0,0-2.793,3.154,3.154,0,0,0-.651-1.092,3.016,3.016,0,0,0-1.029-.714,3.683,3.683,0,0,0-2.729,0,3.016,3.016,0,0,0-1.029.714,3.137,3.137,0,0,0-.65,1.092A4.082,4.082,0,0,0,42.587,18.409Z"/>
    <path d="M54.851,13.432h2.184l2.982,7.623,2.855-7.623h2.016l-3.905,9.954H58.9Z"/>
    <path d="M68.774,9.862a1.4,1.4,0,1,1,.41.977A1.332,1.332,0,0,1,68.774,9.862Zm0.441,3.57H71.1v9.954h-1.89V13.432Z"/>
    <path d="M81.919,15.931a2.892,2.892,0,0,0-.829-0.7,2.39,2.39,0,0,0-1.208-.283,2.3,2.3,0,0,0-1.165.283,0.9,0.9,0,0,0-.493.83,0.944,0.944,0,0,0,.283.714,2.239,2.239,0,0,0,.672.441,3.925,3.925,0,0,0,.829.252c0.294,0.056.547,0.1,0.757,0.147a8.9,8.9,0,0,1,1.145.357,3.19,3.19,0,0,1,.924.546,2.365,2.365,0,0,1,.608.819,2.816,2.816,0,0,1,.221,1.176,2.764,2.764,0,0,1-.356,1.438,3.016,3.016,0,0,1-.925.977,3.888,3.888,0,0,1-1.291.546,6.456,6.456,0,0,1-1.46.168,5.762,5.762,0,0,1-2.173-.378,3.91,3.91,0,0,1-1.67-1.386L77.215,20.7a5.891,5.891,0,0,0,1.029.819,2.548,2.548,0,0,0,1.386.357,3.663,3.663,0,0,0,.725-0.073,2.236,2.236,0,0,0,.651-0.231,1.43,1.43,0,0,0,.462-0.4,0.911,0.911,0,0,0,.179-0.557,0.96,0.96,0,0,0-.263-0.693,1.906,1.906,0,0,0-.63-0.431,4.581,4.581,0,0,0-.777-0.252c-0.272-.063-0.515-0.116-0.725-0.158q-0.609-.146-1.154-0.336a3.516,3.516,0,0,1-.967-0.5,2.321,2.321,0,0,1-.672-0.8,2.568,2.568,0,0,1-.252-1.2,2.707,2.707,0,0,1,.326-1.354,2.9,2.9,0,0,1,.86-0.956,3.9,3.9,0,0,1,1.218-.567,5.137,5.137,0,0,1,1.376-.189,5.055,5.055,0,0,1,1.932.378,3.062,3.062,0,0,1,1.471,1.26Z"/>
    <path d="M88.177,9.862a1.4,1.4,0,1,1,.41.977A1.332,1.332,0,0,1,88.177,9.862Zm0.441,3.57h1.89v9.954h-1.89V13.432Z"/>
    <path d="M95.548,18.409a5.063,5.063,0,0,1,.409-2.037,5.321,5.321,0,0,1,1.123-1.659,5.347,5.347,0,0,1,7.519,0,5.3,5.3,0,0,1,1.123,1.659,5.064,5.064,0,0,1,.41,2.037,5.183,5.183,0,0,1-1.533,3.707,5.336,5.336,0,0,1-1.68,1.113,5.481,5.481,0,0,1-4.158,0,5.329,5.329,0,0,1-1.681-1.113A5.177,5.177,0,0,1,95.548,18.409Zm2.016,0a4.08,4.08,0,0,0,.231,1.4,3.135,3.135,0,0,0,.65,1.092,3.015,3.015,0,0,0,1.029.714,3.683,3.683,0,0,0,2.729,0,3.015,3.015,0,0,0,1.029-.714,3.152,3.152,0,0,0,.651-1.092,4.346,4.346,0,0,0,0-2.793,3.154,3.154,0,0,0-.651-1.092,3.016,3.016,0,0,0-1.029-.714,3.683,3.683,0,0,0-2.729,0,3.016,3.016,0,0,0-1.029.714,3.137,3.137,0,0,0-.65,1.092A4.082,4.082,0,0,0,97.564,18.409Z"/>
    <path d="M111.025,13.432h1.891v1.533h0.042a2.781,2.781,0,0,1,1.238-1.292,4.1,4.1,0,0,1,2.037-.494,4.328,4.328,0,0,1,1.376.221,3.11,3.11,0,0,1,1.154.682,3.3,3.3,0,0,1,.788,1.187,4.554,4.554,0,0,1,.294,1.712v6.4h-1.89v-5.88a3.323,3.323,0,0,0-.189-1.187,2.163,2.163,0,0,0-.5-0.8,1.891,1.891,0,0,0-.725-0.441,2.675,2.675,0,0,0-.851-0.136,3.086,3.086,0,0,0-1.092.189,2.27,2.27,0,0,0-.882.6,2.819,2.819,0,0,0-.588,1.039,4.716,4.716,0,0,0-.21,1.491v5.124h-1.891V13.432Z"/>
    <path d="M126.692,13.684h-1.723l1.449-5.166h2.016Z"/>
    <path d="M137.632,10.282h-0.021l-2.687,2.205-0.777-.966,3.675-3h1.071V23.386h-1.26v-13.1Z"/>
    <path d="M149.12,15.07h0.042a2.5,2.5,0,0,1,1.019-.473,4.988,4.988,0,0,1,1.187-.157,4.623,4.623,0,0,1,1.826.357,4.379,4.379,0,0,1,2.395,2.425,4.746,4.746,0,0,1,.336,1.8,4.652,4.652,0,0,1-.367,1.859,4.329,4.329,0,0,1-1.019,1.459,4.751,4.751,0,0,1-1.544.955,5.615,5.615,0,0,1-3.885,0,4.74,4.74,0,0,1-1.544-.955,4.329,4.329,0,0,1-1.019-1.459,4.635,4.635,0,0,1-.367-1.859,4.759,4.759,0,0,1,.126-1.113,5.8,5.8,0,0,1,.336-1q0.209-.472.441-0.893t0.462-.8l4.032-6.7h1.6Zm1.932,0.462a3.4,3.4,0,0,0-1.365.273,3.535,3.535,0,0,0-1.1.746,3.5,3.5,0,0,0-.745,1.113,3.41,3.41,0,0,0-.273,1.354,3.84,3.84,0,0,0,.252,1.417,3.146,3.146,0,0,0,1.817,1.817,4.113,4.113,0,0,0,2.835,0,3.141,3.141,0,0,0,1.816-1.817,3.84,3.84,0,0,0,.252-1.417,3.427,3.427,0,0,0-.273-1.354,3.451,3.451,0,0,0-1.858-1.858A3.425,3.425,0,0,0,151.051,15.532Z"/>
  </g>
  <line id="_Path_4" data-name="&lt;Path&gt;" class="cls-3" y1="35.5" x2="160" y2="35.5"/>
  <line id="_Path_5" data-name="&lt;Path&gt;" class="cls-4" x1="190.5" x2="190.5" y2="65"/>
</svg>
