<!-- Generator: Adobe Illustrator 19.0.0, SVG Export Plug-In  -->
<svg version="1.1"
	 xmlns="http://www.w3.org/2000/svg" xmlns:xlink="http://www.w3.org/1999/xlink" xmlns:a="http://ns.adobe.com/AdobeSVGViewerExtensions/3.0/"
	 x="0px" y="0px" width="23.9px" height="182.2px" viewBox="0 0 23.9 182.2" style="enable-background:new 0 0 23.9 182.2;"
	 xml:space="preserve">
<style type="text/css">
	.st0{fill:#0071BC;}
	.st1{fill:none;stroke:#0071BC;stroke-miterlimit:10;}
</style>
<defs>
</defs>
<g>
	<path class="st0" d="M17.2,152.4v-3.2H6.6v3.2h1.8v1.5H6.6v3.3h10.6v-3.3h-1.9v-1.5H17.2z M16.3,154.8v1.5H7.5v-1.5H16.3z
		 M9.3,153.9v-1.5h5v1.5H9.3z M7.5,151.5V150h8.8v1.5H7.5z"/>
	<g>
		<path class="st0" d="M23.9,175.7v3.1c0,1.9-1.5,3.4-3.4,3.4c-1.9,0-3.4-1.5-3.4-3.4v-3.1c0-0.1,0-0.2,0-0.2l-5.2-5.6l-5.2,5.6
			c0,0.1,0,0.2,0,0.2v3.1c0,1.9-1.5,3.4-3.4,3.4c-1.9,0-3.4-1.5-3.4-3.4v-3.1c0-0.6,0.2-1.2,0.6-1.8c0.1-0.4,0.3-0.8,0.6-1.2
			l7.8-8.3v-3.6H6.6v-3.3h10.6v3.3h-2.3v3.6l7.8,8.2c0.3,0.3,0.5,0.8,0.6,1.2C23.7,174.5,23.9,175.1,23.9,175.7z M23,178.8v-2.6
			c-0.1,0.2-0.3,0.5-0.5,0.7c-0.5,0.5-1.2,0.7-2,0.7c-0.8,0-1.6-0.4-2.2-1l-0.2-0.2l0,2.4c0,1.4,1.1,2.5,2.5,2.5S23,180.2,23,178.8z
			 M21.8,176.3c0.6-0.5,0.8-1.3,0.6-2l0,0c-0.1-0.4-0.2-0.6-0.4-0.8c0,0,0,0,0,0l-7.2-7.7v0.3c0,0.5-0.1,0.9-0.3,1.3
			c0,0.1-0.1,0.1-0.1,0.2c-0.2,0.4-0.5,0.7-0.9,0.9c0,0,0,0,0,0l-0.8,0.9l5.6,5.9v0l0.8,0.9C19.7,176.9,21,177,21.8,176.3z
			 M16.3,160v-1.5H7.5v1.5H9h0.1h5.7h0.1H16.3z M13.9,166v-5.1H10v5.1c0,0.7,0.4,1.3,1,1.7l0.1,0.1l0.1,0.1c0.2,0.1,0.4,0.1,0.7,0.1
			c0.4,0,0.7-0.1,1-0.3l0,0c0.3-0.2,0.5-0.4,0.7-0.7c0,0,0-0.1,0.1-0.1C13.8,166.6,13.9,166.3,13.9,166z M11.3,169.3l-0.7-0.7
			c-1-0.5-1.7-1.5-1.7-2.6v-0.1l-7.1,7.5c-0.2,0.2-0.3,0.5-0.4,0.9l0,0c-0.2,0.7,0,1.5,0.6,2c0.4,0.3,0.9,0.5,1.4,0.5
			c0.6,0,1.1-0.2,1.5-0.7l0.8-0.9v0L11.3,169.3z M5.8,178.8v-2.4l-0.2,0.3c-0.5,0.6-1.4,1-2.2,1c-0.7,0-1.4-0.3-2-0.7
			c-0.2-0.2-0.4-0.5-0.5-0.7v2.6c0,1.4,1.1,2.5,2.5,2.5S5.8,180.2,5.8,178.8z"/>
		<path class="st0" d="M21.3,174.2c0,0.7-0.5,1.2-1.2,1.2c-0.7,0-1.2-0.5-1.2-1.2c0-0.7,0.5-1.2,1.2-1.2
			C20.8,173,21.3,173.5,21.3,174.2z"/>
		<path class="st0" d="M11.8,164c0.7,0,1.2,0.5,1.2,1.2c0,0.7-0.5,1.2-1.2,1.2c-0.7,0-1.2-0.5-1.2-1.2C10.6,164.5,11.2,164,11.8,164
			z"/>
		<path class="st0" d="M3.7,173c0.7,0,1.2,0.5,1.2,1.2c0,0.7-0.5,1.2-1.2,1.2c-0.7,0-1.2-0.5-1.2-1.2C2.5,173.5,3.1,173,3.7,173z"/>
	</g>
	<line class="st1" x1="9.3" y1="0" x2="9.3" y2="150"/>
	<line class="st1" x1="14.4" y1="0" x2="14.4" y2="150"/>
</g>
</svg>
