<!-- Generator: Adobe Illustrator 19.0.0, SVG Export Plug-In  -->
<svg version="1.1"
	 xmlns="http://www.w3.org/2000/svg" xmlns:xlink="http://www.w3.org/1999/xlink" xmlns:a="http://ns.adobe.com/AdobeSVGViewerExtensions/3.0/"
	 x="0px" y="0px" width="28.1px" height="149.1px" viewBox="0 0 28.1 149.1" style="enable-background:new 0 0 28.1 149.1;"
	 xml:space="preserve">
<style type="text/css">
	.st0{fill:#0071BC;}
	.st1{fill:none;stroke:#0071BC;stroke-miterlimit:10;}
</style>
<defs>
</defs>
<g>
	<path class="st0" d="M20.2,114.1v-3.8H7.8v3.8h2.2v1.7H7.8v3.9h12.4v-3.9H18v-1.7H20.2z M19.1,116.9v1.7H8.8v-1.7H19.1z M11,115.8
		v-1.7H17v1.7H11z M8.8,113v-1.7h10.3v1.7H8.8z"/>
	<g>
		<path class="st0" d="M28.1,141.6v3.6c0,2.2-1.8,4-4,4c-2.2,0-4-1.8-4-4v-3.6c0-0.1,0-0.2,0-0.3l-6.2-6.6l-6.2,6.6
			c0,0.1,0,0.2,0,0.3v3.6c0,2.2-1.8,4-4,4c-2.2,0-4-1.8-4-4v-3.6c0-0.7,0.2-1.4,0.7-2.1c0.1-0.5,0.4-1,0.7-1.4l9.1-9.7v-4.3H7.8
			v-3.9h12.4v3.9h-2.7v4.3l9.1,9.7c0.4,0.4,0.6,0.9,0.7,1.4C27.9,140.1,28.1,140.8,28.1,141.6z M27,145.2v-3.1
			c-0.2,0.3-0.3,0.6-0.6,0.8c-0.6,0.6-1.5,0.9-2.3,0.9c-1,0-1.9-0.4-2.6-1.1l-0.3-0.3l0,2.8c0,1.6,1.3,2.9,2.9,2.9
			S27,146.8,27,145.2z M25.7,142.1c0.7-0.6,0.9-1.5,0.7-2.4l0,0c-0.1-0.4-0.3-0.7-0.5-1c0,0,0,0,0,0l-8.5-9v0.3
			c0,0.6-0.2,1.1-0.4,1.5c0,0.1-0.1,0.1-0.2,0.2c-0.3,0.4-0.6,0.8-1,1.1c0,0,0,0,0,0l-1,1l6.6,7v0l1,1
			C23.2,142.9,24.8,143,25.7,142.1z M19.1,123v-1.7H8.8v1.7h1.7h0.1h6.7h0.1H19.1z M16.3,130v-6h-4.6v6c0,0.8,0.5,1.6,1.2,2l0.1,0.1
			l0.1,0.1c0.3,0.1,0.5,0.2,0.8,0.2c0.4,0,0.8-0.1,1.1-0.3l0,0c0.4-0.2,0.6-0.5,0.8-0.8c0,0,0.1-0.1,0.1-0.1
			C16.2,130.8,16.3,130.4,16.3,130z M13.3,134l-0.8-0.8c-1.2-0.5-2-1.7-2-3.1v-0.2l-8.4,8.9c-0.2,0.3-0.4,0.6-0.5,1l0,0
			c-0.2,0.8,0,1.7,0.7,2.3c0.4,0.4,1,0.6,1.6,0.6c0.7,0,1.3-0.3,1.8-0.8l1-1v0L13.3,134z M6.9,145.2v-2.8l-0.3,0.3
			c-0.6,0.7-1.6,1.1-2.6,1.1c-0.9,0-1.7-0.3-2.3-0.9c-0.3-0.2-0.4-0.5-0.6-0.8v3.1c0,1.6,1.3,2.9,2.9,2.9S6.9,146.8,6.9,145.2z"/>
		<path class="st0" d="M25.1,139.7c0,0.8-0.6,1.4-1.4,1.4c-0.8,0-1.4-0.6-1.4-1.4c0-0.8,0.6-1.4,1.4-1.4
			C24.5,138.3,25.1,139,25.1,139.7z"/>
		<path class="st0" d="M13.9,127.7c0.8,0,1.4,0.6,1.4,1.4c0,0.8-0.6,1.4-1.4,1.4c-0.8,0-1.4-0.6-1.4-1.4
			C12.5,128.3,13.2,127.7,13.9,127.7z"/>
		<path class="st0" d="M4.4,138.3c0.8,0,1.4,0.6,1.4,1.4c0,0.8-0.6,1.4-1.4,1.4c-0.8,0-1.4-0.6-1.4-1.4C3,139,3.6,138.3,4.4,138.3z"
			/>
	</g>
	<g>
		<line class="st1" x1="11" y1="0" x2="11" y2="110.3"/>
		<line class="st1" x1="17" y1="0" x2="17" y2="110.3"/>
	</g>
</g>
</svg>
