<!-- Generator: Adobe Illustrator 19.0.0, SVG Export Plug-In  -->
<svg version="1.1"
	 xmlns="http://www.w3.org/2000/svg" xmlns:xlink="http://www.w3.org/1999/xlink" xmlns:a="http://ns.adobe.com/AdobeSVGViewerExtensions/3.0/"
	 x="0px" y="0px" width="41.4px" height="57.5px" viewBox="0 0 41.4 57.5" style="enable-background:new 0 0 41.4 57.5;"
	 xml:space="preserve">
<style type="text/css">
	.st0{fill:#E72B48;}
</style>
<defs>
</defs>
<path class="st0" d="M17.5,48.7c0,4.8-3.9,8.8-8.8,8.8l0,0c-4.8,0-8.8-3.9-8.8-8.8v-40C0,3.9,3.9,0,8.8,0l0,0c4.8,0,8.8,3.9,8.8,8.8
	V48.7z"/>
<path class="st0" d="M41.4,48.7c0,4.8-3.9,8.8-8.8,8.8l0,0c-4.8,0-8.8-3.9-8.8-8.8v-40c0-4.8,3.9-8.8,8.8-8.8l0,0
	c4.8,0,8.8,3.9,8.8,8.8V48.7z"/>
</svg>
