<!-- Generator: Adobe Illustrator 19.0.0, SVG Export Plug-In  -->
<svg version="1.1"
	 xmlns="http://www.w3.org/2000/svg" xmlns:xlink="http://www.w3.org/1999/xlink" xmlns:a="http://ns.adobe.com/AdobeSVGViewerExtensions/3.0/"
	 x="0px" y="0px" width="115px" height="115px" viewBox="0 0 115 115" style="enable-background:new 0 0 115 115;"
	 xml:space="preserve">
<style type="text/css">
	.st0{fill:#F6A300;}
	.st1{fill:#FF7A00;}
	.st2{fill:#454C53;}
	.st3{fill:none;stroke:#454C53;stroke-miterlimit:10;}
</style>
<defs>
</defs>
<rect class="st0" width="115" height="115"/>
<rect y="0" class="st1" width="115" height="57"/>
<g>
	<path class="st2" d="M42.8,99.8c0-0.1,0-0.2,0-0.3c0,0,0,0,0-0.1c0-0.3,0-0.5-0.1-0.8c-0.1-0.7-0.3-1.4-0.7-2
		c-0.8-1.2-2-2.1-3.4-2.4c-1.4-0.3-2.8-0.1-4,0.7c-0.4,0.3-0.7,0.6-1.1,0.9c-0.7,0.7-1.1,1.5-1.3,2.5c0,0,0,0.1,0,0.1
		c-0.1,0.5-0.2,0.9-0.1,1.4c0,0,0,0,0,0H42.8z"/>
	<path class="st3" d="M37.7,96.9l0.1,7.1c0,1.1-1.9,1.6-1.9,0.1"/>
	<path class="st3" d="M45.5,108.1c0,0.2-0.2,0.4-0.4,0.4H28.9c-0.2,0-0.4-0.2-0.4-0.4V91.9c0-0.2,0.2-0.4,0.4-0.4h16.2
		c0.2,0,0.4,0.2,0.4,0.4V108.1z"/>
</g>
<text transform="matrix(1 0 0 1 11.4992 59.1325)" class="st2" style="font-family:'Avenir-Black'; font-size:12px;">#inno_is_coming</text>
<g>
	<path class="st3" d="M23.5,108.1c0,0.2-0.2,0.4-0.4,0.4H6.9c-0.2,0-0.4-0.2-0.4-0.4V91.9c0-0.2,0.2-0.4,0.4-0.4h16.2
		c0.2,0,0.4,0.2,0.4,0.4V108.1z"/>
	<g>
		<path id="XMLID_6_" class="st2" d="M15.1,96.9c0.1-0.2,0.2-0.3,0.4-0.5c0.2-0.2,0.4-0.3,0.5-0.4c0.5,0,1.1,0,1.7,0
			c0.3,0,0.5,0,0.7,0.1c-0.2,0.2-0.5,0.3-0.7,0.5c-0.1,0.1-0.3,0.2-0.4,0.3c-0.4,0-0.7,0-1.1,0C15.9,96.8,15.5,96.8,15.1,96.9z"/>
		<path id="XMLID_5_" class="st2" d="M13.6,97.6c0.8-0.2,1.4-0.3,1.9-0.4c1.2-0.1,2.2,0,2.7,0.1c0.6,0.1,1.1,0.2,1.9,0.2
			c0.3,0,0.7,0,1.3-0.1c0.2-0.1,0.4-0.1,0.6-0.2C21.4,98,21,98.6,20.7,99c-0.6,0.8-0.9,1.1-0.9,1.2c-0.2,0.2-0.7,0.7-1.5,1.3
			c-1.3,0.9-2.6,1.2-3,1.3c-1.4,0.3-2.5,0.2-3.4,0.1c-0.8-0.1-1.6-0.2-1.8-0.2c-0.6-0.1-1.1-0.2-1.5-0.3c0.2-0.5,0.5-1.2,1-1.9
			c0.1-0.1,0.5-0.6,1-1.1c1.4-1.2,3.2-1.5,3.9-1.5c-0.1,0.1-0.2,0.3-0.3,0.4c-0.5,0.1-1,0.2-1.5,0.4c-0.5,0.2-1.3,0.5-2.1,1.3
			c-0.3,0.2-0.7,0.6-1,1.2c-0.2,0.4-0.4,0.8-0.4,1.1c0.3,0.1,0.7,0.2,1.1,0.2c1.1,0.2,1.9,0.2,2.2,0.2c0.3,0,0.8,0,1.4-0.1
			c0.4,0,1.2-0.1,2.1-0.4c2.2-0.7,3.6-2.2,4-2.8c0.5-0.6,0.8-1.1,1-1.5c-0.6,0-1.2,0-1.5-0.1c-0.4-0.1-0.7-0.1-1.4-0.2
			c-0.2,0-0.4-0.1-1-0.1c-0.7-0.1-0.8-0.1-1-0.1c-0.3,0-0.5,0-0.8,0c-0.2,0-0.5,0-0.8,0.1C14.2,97.5,13.9,97.5,13.6,97.6z"/>
		<path id="XMLID_1_" class="st2" d="M16.5,97.6c-0.4,0.3-0.8,0.6-1,0.9c-0.5,0.5-0.7,0.9-0.8,1.1c-0.2,0.4-0.3,0.7-0.4,1
			c0,0.4,0.1,0.5,0.1,0.6c0,0,0.2,0.2,0.5,0.3c0.3,0,0.5-0.2,0.7-0.5c0.1-0.2,0.3-0.4,0.5-0.8c-0.1,0.3-0.2,1-0.7,1.4
			c-0.2,0.2-0.3,0.3-0.4,0.3c-0.4,0.1-0.7,0.1-0.8,0c-0.4-0.1-0.6-0.4-0.7-0.5c-0.1-0.1-0.2-0.3-0.2-0.7c0-0.2,0-0.7,0.3-1.5
			c0.2-0.4,0.4-0.9,0.8-1.5c0.3-0.1,0.6-0.1,0.9-0.1C15.7,97.6,16.1,97.6,16.5,97.6z"/>
	</g>
</g>
</svg>
