<!-- Generator: Adobe Illustrator 19.0.0, SVG Export Plug-In  -->
<svg version="1.1"
	 xmlns="http://www.w3.org/2000/svg" xmlns:xlink="http://www.w3.org/1999/xlink" xmlns:a="http://ns.adobe.com/AdobeSVGViewerExtensions/3.0/"
	 x="0px" y="0px" width="16.3px" height="16.3px" viewBox="0 0 16.3 16.3" style="enable-background:new 0 0 16.3 16.3;"
	 xml:space="preserve">
<style type="text/css">
	.st0{fill:#F9BD38;}
	.st1{fill:#FFFFFF;}
</style>
<defs>
</defs>
<g>
	<g>
		<path class="st0" d="M15.4,12.4l1-2.4l-1.4-0.6C15,8.5,15,7.6,14.8,6.7l1.5-0.6l-1-2.4l-1.6,0.7c-0.5-0.7-1.1-1.3-1.9-1.8L12.4,1
			L10,0L9.4,1.6c-0.9-0.2-1.7-0.1-2.6,0L6.1,0.1l-2.4,1l0.7,1.5C3.6,3.1,3,3.7,2.5,4.5L1,3.9L0,6.3l1.4,0.6c-0.2,0.9-0.2,1.9,0,2.8
			l-1.3,0.6l1,2.4l1.3-0.5c0.5,0.8,1.2,1.5,2,2l-0.5,1.2l2.4,1l0.5-1.2c1,0.2,2,0.2,2.9-0.1l0.5,1.2l2.4-1l-0.6-1.3
			c0.8-0.5,1.4-1.2,1.9-2.1L15.4,12.4z M7.5,9.9C6.6,9.6,6.2,8.6,6.5,7.7c0.3-0.9,1.3-1.3,2.2-0.9C9.6,7.1,10,8.1,9.7,9
			C9.3,9.8,8.4,10.3,7.5,9.9z"/>
	</g>
	<g>
		<circle class="st1" cx="8.1" cy="8.4" r="1.7"/>
	</g>
</g>
</svg>
