<!-- Generator: Adobe Illustrator 19.0.0, SVG Export Plug-In  -->
<svg version="1.1"
	 xmlns="http://www.w3.org/2000/svg" xmlns:xlink="http://www.w3.org/1999/xlink" xmlns:a="http://ns.adobe.com/AdobeSVGViewerExtensions/3.0/"
	 x="0px" y="0px" width="21.6px" height="21.6px" viewBox="0 0 21.6 21.6" style="enable-background:new 0 0 21.6 21.6;"
	 xml:space="preserve">
<style type="text/css">
	.st0{fill:#F9BD38;}
</style>
<defs>
</defs>
<path class="st0" d="M20.3,16.5l1.3-3.2l-1.9-0.8c0.2-1.2,0.1-2.4-0.1-3.6l2-0.9l-1.4-3.2l-2.1,0.9c-0.7-0.9-1.5-1.7-2.5-2.4
	l0.8-2.1L13.2,0l-0.9,2.1c-1.2-0.2-2.3-0.2-3.4,0L8.1,0.1L4.9,1.4l0.9,2C4.8,4.1,3.9,5,3.3,5.9l-2-0.8L0,8.4l1.9,0.8
	c-0.3,1.2-0.3,2.5,0,3.7l-1.8,0.8l1.4,3.2L3.1,16c0.7,1.1,1.6,2,2.7,2.7l-0.7,1.7l3.2,1.3L9,20c1.3,0.3,2.6,0.2,3.8-0.1l0.7,1.6
	l3.2-1.4L16,18.5c1-0.7,1.9-1.6,2.5-2.7L20.3,16.5z M9.9,13.1c-1.1-0.5-1.7-1.8-1.3-2.9c0.5-1.1,1.8-1.7,2.9-1.3
	c1.1,0.5,1.7,1.8,1.3,2.9C12.4,13,11.1,13.6,9.9,13.1z"/>
</svg>
