<!-- Generator: Adobe Illustrator 19.0.0, SVG Export Plug-In  -->
<svg version="1.1"
	 xmlns="http://www.w3.org/2000/svg" xmlns:xlink="http://www.w3.org/1999/xlink" xmlns:a="http://ns.adobe.com/AdobeSVGViewerExtensions/3.0/"
	 x="0px" y="0px" width="52px" height="52px" viewBox="0 0 52 52" style="enable-background:new 0 0 52 52;" xml:space="preserve">
<style type="text/css">
	.st0{opacity:0.2;fill:#FFFFFF;}
	.st1{fill:#F6A300;}
	.st2{fill:#FF7A00;}
	.st3{fill:#454C53;}
	.st4{font-family:'Avenir-Black';}
	.st5{font-size:6.335px;}
	.st6{fill:none;stroke:#454C53;stroke-width:0.25;stroke-miterlimit:10;}
	.st7{fill:none;stroke:#454C53;stroke-width:0.5;stroke-miterlimit:10;}
</style>
<defs>
</defs>
<g>
	<rect x="3" y="3" class="st0" width="46" height="46"/>
	<polyline class="st1" points="3,26 0,26 0,52 52,52 52,26 49,26 	"/>
	<g>
		<polygon class="st2" points="52,52 52,26 49,26 49,49 3,49 3,26 0,26 0,52 		"/>
		<polygon class="st1" points="52,0 52,26 49,26 49,3 3,3 3,26 0,26 0,0 		"/>
		<g>
			<text transform="matrix(1 0 0 1 4.5912 32.6785)" class="st3 st4 st5">#innoiscoming</text>
			<g>
				<g>
					<path id="XMLID_3_" class="st3" d="M8.7,42.7c0-0.1,0.1-0.2,0.2-0.2C9,42.4,9,42.3,9.1,42.3c0.2,0,0.5,0,0.8,0
						c0.1,0,0.2,0,0.3,0c-0.1,0.1-0.2,0.2-0.3,0.2c-0.1,0-0.1,0.1-0.2,0.1c-0.2,0-0.3,0-0.5,0C9,42.7,8.9,42.7,8.7,42.7z"/>
					<path id="XMLID_2_" class="st3" d="M8,43c0.3-0.1,0.6-0.2,0.9-0.2c0.5,0,1,0,1.2,0c0.3,0,0.5,0.1,0.9,0.1c0.1,0,0.3,0,0.6,0
						c0.1,0,0.2-0.1,0.3-0.1c-0.2,0.3-0.4,0.6-0.6,0.8c-0.3,0.4-0.4,0.5-0.4,0.5c-0.1,0.1-0.3,0.3-0.7,0.6c-0.6,0.4-1.2,0.5-1.4,0.6
						c-0.6,0.1-1.1,0.1-1.5,0.1c-0.3,0-0.7-0.1-0.8-0.1c-0.3,0-0.5-0.1-0.7-0.1c0.1-0.2,0.2-0.5,0.5-0.9c0,0,0.2-0.3,0.5-0.5
						c0.6-0.5,1.4-0.7,1.8-0.7c0,0.1-0.1,0.1-0.1,0.2c-0.2,0-0.4,0.1-0.7,0.2c-0.2,0.1-0.6,0.2-1,0.6c-0.1,0.1-0.3,0.3-0.5,0.5
						C6,44.8,6,45,6,45.1c0.1,0,0.3,0.1,0.5,0.1c0.5,0.1,0.9,0.1,1,0.1c0.1,0,0.4,0,0.6,0c0.2,0,0.6-0.1,1-0.2c1-0.3,1.6-1,1.8-1.2
						c0.2-0.3,0.4-0.5,0.4-0.7c-0.3,0-0.5,0-0.7,0c-0.2,0-0.3-0.1-0.6-0.1c-0.1,0-0.2,0-0.4-0.1c-0.3,0-0.4,0-0.5,0
						c-0.1,0-0.2,0-0.4,0c-0.1,0-0.2,0-0.4,0C8.3,43,8.2,43,8,43z"/>
					<path id="XMLID_1_" class="st3" d="M9.3,43c-0.2,0.2-0.3,0.3-0.5,0.4c-0.2,0.2-0.3,0.4-0.4,0.5c-0.1,0.2-0.2,0.3-0.2,0.5
						c0,0.2,0,0.2,0.1,0.3c0,0,0.1,0.1,0.2,0.1c0.1,0,0.2-0.1,0.3-0.2c0.1-0.1,0.2-0.2,0.2-0.4c0,0.1-0.1,0.4-0.3,0.6
						C8.8,45,8.7,45,8.6,45c-0.2,0.1-0.3,0-0.3,0C8.1,45,8,44.8,8,44.8c0,0-0.1-0.1-0.1-0.3c0-0.1,0-0.3,0.1-0.7
						c0.1-0.2,0.2-0.4,0.4-0.7c0.1,0,0.3-0.1,0.4-0.1C9,43.1,9.2,43,9.3,43z"/>
				</g>
				<path class="st6" d="M11.5,48.1h-6c-0.6,0-1-0.4-1-1v-6c0-0.6,0.4-1,1-1h6c0.6,0,1,0.4,1,1v6C12.5,47.6,12,48.1,11.5,48.1z"/>
			</g>
			<g>
				<g>
					<path class="st3" d="M20.4,44c0-0.1,0-0.1,0-0.2c0,0,0,0,0,0c0-0.1,0-0.2,0-0.4c0-0.3-0.2-0.6-0.3-0.9c-0.3-0.6-0.9-1-1.5-1.1
						c-0.6-0.1-1.3,0-1.8,0.3c-0.2,0.1-0.3,0.3-0.5,0.4c-0.3,0.3-0.5,0.7-0.6,1.1c0,0,0,0,0,0c-0.1,0.2-0.1,0.4-0.1,0.7c0,0,0,0,0,0
						H20.4z"/>
					<path class="st7" d="M17.9,42.7l0.1,3.2c0,0.5-0.9,0.7-0.9,0"/>
				</g>
				<path class="st6" d="M21,48h-6c-0.6,0-1-0.4-1-1v-6c0-0.6,0.4-1,1-1h6c0.6,0,1,0.4,1,1v6C22,47.6,21.5,48,21,48z"/>
			</g>
		</g>
	</g>
	<polygon class="st0" points="37,3 3,3 3,26 25,26 	"/>
</g>
</svg>
