<!-- Generator: Adobe Illustrator 19.0.0, SVG Export Plug-In  -->
<svg version="1.1"
	 xmlns="http://www.w3.org/2000/svg" xmlns:xlink="http://www.w3.org/1999/xlink" xmlns:a="http://ns.adobe.com/AdobeSVGViewerExtensions/3.0/"
	 x="0px" y="0px" width="397.2px" height="260.3px" viewBox="0 0 397.2 260.3" style="enable-background:new 0 0 397.2 260.3;"
	 xml:space="preserve">
<style type="text/css">
	.st0{fill-rule:evenodd;clip-rule:evenodd;fill:#374F4E;}
	
		.st1{fill-rule:evenodd;clip-rule:evenodd;fill:none;stroke:#374F4E;stroke-linecap:round;stroke-linejoin:round;stroke-miterlimit:22.9256;}
	.st2{fill-rule:evenodd;clip-rule:evenodd;fill:#B9D6D4;}
	.st3{fill-rule:evenodd;clip-rule:evenodd;fill:#FFFFFF;}
	.st4{fill:#E72B48;}
	.st5{fill:#22648A;}
	.st6{fill:#B1C4CE;}
	.st7{fill:#11354B;}
	.st8{fill:#FFFFFF;stroke:#B1C4CE;stroke-miterlimit:10;}
	.st9{fill:#EABEA7;}
	.st10{fill:#FFFFFF;}
	.st11{fill:none;}
	.st12{fill:#F9BD38;}
	.st13{fill:#F5BCD7;stroke:#0071BC;stroke-miterlimit:10;}
	.st14{fill:#FFFFFF;stroke:#0071BC;stroke-miterlimit:10;}
	.st15{fill:#F9BD38;stroke:#22648A;stroke-miterlimit:10;}
	.st16{fill:none;stroke:#B1C4CE;stroke-width:0.5;stroke-miterlimit:10;}
	.st17{fill:none;stroke:#0071BC;stroke-miterlimit:10;}
	
		.st18{fill-rule:evenodd;clip-rule:evenodd;fill:none;stroke:#D3EBEB;stroke-width:6;stroke-linecap:round;stroke-linejoin:round;stroke-miterlimit:22.9256;}
</style>
<defs>
</defs>
<path class="st0" d="M80.9,200H8c-3.4,0-6.2,3.2-6.2,7l0,0c0,3.8,2.8,7,6.2,7h72.9c3.4,0,6.2-3.2,6.2-7l0,0
	C87.1,203.2,84.3,200,80.9,200z"/>
<path class="st1" d="M82.1,198.5H6.9c-3.5,0-6.4,3.7-6.4,8.5l0,0c0,4.8,2.9,8.5,6.4,8.5h75.2c3.5,0,6.4-3.7,6.4-8.5l0,0
	C88.4,202.2,85.6,198.5,82.1,198.5z"/>
<rect x="9.2" y="206" class="st2" width="70" height="1"/>
<path class="st2" d="M78.9,210.2c2,0,3.6-1.6,3.6-3.6c0-2-1.6-3.6-3.6-3.6c-2,0-3.6,1.6-3.6,3.6C75.3,208.6,76.9,210.2,78.9,210.2z"
	/>
<path class="st2" d="M55.5,210.2c2,0,3.6-1.6,3.6-3.6c0-2-1.6-3.6-3.6-3.6c-2,0-3.6,1.6-3.6,3.6C52,208.6,53.6,210.2,55.5,210.2z"/>
<path class="st2" d="M32.2,210.2c2,0,3.6-1.6,3.6-3.6c0-2-1.6-3.6-3.6-3.6c-2,0-3.6,1.6-3.6,3.6C28.7,208.6,30.3,210.2,32.2,210.2z"
	/>
<path class="st2" d="M8.9,210.2c2,0,3.6-1.6,3.6-3.6c0-2-1.6-3.6-3.6-3.6s-3.6,1.6-3.6,3.6C5.3,208.6,6.9,210.2,8.9,210.2z"/>
<path class="st3" d="M32.2,208.8c1.2,0,2.2-1,2.2-2.2c0-1.2-1-2.2-2.2-2.2c-1.2,0-2.2,1-2.2,2.2C30.1,207.9,31,208.8,32.2,208.8z"/>
<path class="st3" d="M55.5,208.8c1.2,0,2.2-1,2.2-2.2c0-1.2-1-2.2-2.2-2.2c-1.2,0-2.2,1-2.2,2.2C53.4,207.9,54.4,208.8,55.5,208.8z"
	/>
<path class="st3" d="M78.9,208.8c1.2,0,2.2-1,2.2-2.2c0-1.2-1-2.2-2.2-2.2c-1.2,0-2.2,1-2.2,2.2C76.7,207.9,77.7,208.8,78.9,208.8z"
	/>
<path class="st3" d="M20.5,208.6c1,0,1.9-0.8,1.9-1.9c0-1-0.8-1.9-1.9-1.9c-1,0-1.9,0.8-1.9,1.9C18.7,207.7,19.5,208.6,20.5,208.6z"
	/>
<path class="st3" d="M43.9,208.6c1,0,1.9-0.8,1.9-1.9c0-1-0.8-1.9-1.9-1.9c-1,0-1.9,0.8-1.9,1.9C42,207.7,42.8,208.6,43.9,208.6z"/>
<path class="st3" d="M68.4,208.6c1,0,1.9-0.8,1.9-1.9c0-1-0.8-1.9-1.9-1.9c-1,0-1.9,0.8-1.9,1.9C66.5,207.7,67.4,208.6,68.4,208.6z"
	/>
<path class="st3" d="M8.9,208.8c1.2,0,2.2-1,2.2-2.2c0-1.2-1-2.2-2.2-2.2c-1.2,0-2.2,1-2.2,2.2C6.7,207.9,7.7,208.8,8.9,208.8z"/>
<path class="st0" d="M245.6,213.7c0.3,0.1,0.7,0.2,1,0.2C246.3,213.9,246,213.8,245.6,213.7z"/>
<path class="st0" d="M378.8,202.1c-1.4-1.2-3.4-2.1-5.5-2.1h-270c-4.3,0-7.8,3.2-7.8,7c0,1.9,0.9,3.7,2.3,5c1.4,1.3,3.4,2.1,5.5,2.1
	h270c4.3,0,7.8-3.1,7.8-6.9C381.1,205.2,380.2,203.3,378.8,202.1z M277,200.8c0.4-0.2,0.9-0.4,1.4-0.5
	C277.9,200.5,277.5,200.6,277,200.8z M278.7,213.7c0.4,0.1,0.8,0.2,1.2,0.2C279.5,213.9,279.1,213.8,278.7,213.7z"/>
<path class="st0" d="M244.7,213.4c-0.2-0.1-0.4-0.2-0.5-0.3C244.4,213.2,244.6,213.3,244.7,213.4z"/>
<path class="st0" d="M243.9,212.9c-0.3-0.2-0.5-0.4-0.7-0.6C243.4,212.5,243.7,212.7,243.9,212.9z"/>
<path class="st0" d="M244.2,213.1c-0.1-0.1-0.2-0.1-0.3-0.2C244,213,244.1,213,244.2,213.1z"/>
<path class="st0" d="M246.6,214c-0.4,0-0.7-0.1-1-0.2C246,213.8,246.3,213.9,246.6,214z"/>
<path class="st0" d="M243.1,212.3C243.2,212.3,243.2,212.3,243.1,212.3C243.2,212.3,243.2,212.3,243.1,212.3z"/>
<path class="st0" d="M245.6,213.7c-0.1,0-0.1,0-0.2-0.1C245.5,213.7,245.6,213.7,245.6,213.7z"/>
<path class="st0" d="M245.4,213.7c-0.2-0.1-0.5-0.2-0.7-0.3C245,213.5,245.2,213.6,245.4,213.7z"/>
<path class="st1" d="M382.8,207.2c0,4.5-3.6,8.3-8.1,8.3H101.8c-2.2,0-4.2-1-5.7-2.5c-1.5-1.5-2.4-3.8-2.4-6c0-4.5,3.6-8.4,8.1-8.4
	h272.9c2.2,0,4.2,1.1,5.7,2.6C381.9,202.6,382.8,204.9,382.8,207.2z"/>
<rect x="102.2" y="207" class="st2" width="73" height="0"/>
<path class="st2" d="M175.3,210.6c2,0,3.7-1.6,3.7-3.6c0-2-1.7-3.6-3.7-3.6c-2,0-3.7,1.6-3.7,3.6C171.6,209,173.3,210.6,175.3,210.6
	z"/>
<path class="st2" d="M151,210.6c2,0,3.7-1.6,3.7-3.6c0-2-1.7-3.6-3.7-3.6c-2,0-3.7,1.6-3.7,3.6C147.3,209,149,210.6,151,210.6z"/>
<path class="st2" d="M126.7,210.6c2,0,3.7-1.6,3.7-3.6c0-2-1.7-3.6-3.7-3.6c-2,0-3.7,1.6-3.7,3.6C123,209,124.7,210.6,126.7,210.6z"
	/>
<path class="st2" d="M102.4,210.6c2,0,3.7-1.6,3.7-3.6c0-2-1.7-3.6-3.7-3.6s-3.7,1.6-3.7,3.6C98.7,209,100.4,210.6,102.4,210.6z"/>
<path class="st3" d="M126.7,209.2c1.2,0,2.2-1,2.2-2.2c0-1.2-1-2.2-2.2-2.2c-1.2,0-2.2,1-2.2,2.2
	C124.5,208.2,125.5,209.2,126.7,209.2z"/>
<path class="st3" d="M151,209.2c1.2,0,2.2-1,2.2-2.2c0-1.2-1-2.2-2.2-2.2c-1.2,0-2.2,1-2.2,2.2C148.8,208.2,149.8,209.2,151,209.2z"
	/>
<path class="st3" d="M175.3,209.2c1.2,0,2.2-1,2.2-2.2c0-1.2-1-2.2-2.2-2.2c-1.2,0-2.2,1-2.2,2.2
	C173.1,208.2,174.1,209.2,175.3,209.2z"/>
<path class="st3" d="M114.6,208.9c1.1,0,2-0.8,2-1.9c0-1-0.9-1.9-2-1.9c-1.1,0-1.9,0.8-1.9,1.9C112.6,208.1,113.5,208.9,114.6,208.9
	z"/>
<path class="st3" d="M138.9,208.9c1.1,0,2-0.8,2-1.9c0-1-0.9-1.9-2-1.9c-1.1,0-1.9,0.8-1.9,1.9C136.9,208.1,137.8,208.9,138.9,208.9
	z"/>
<path class="st3" d="M164.4,208.9c1.1,0,2-0.8,2-1.9c0-1-0.9-1.9-2-1.9c-1.1,0-1.9,0.8-1.9,1.9C162.5,208.1,163.4,208.9,164.4,208.9
	z"/>
<path class="st3" d="M102.4,209.2c1.2,0,2.2-1,2.2-2.2c0-1.2-1-2.2-2.2-2.2c-1.2,0-2.2,1-2.2,2.2
	C100.2,208.2,101.2,209.2,102.4,209.2z"/>
<path class="st0" d="M244.2,213.1c-0.1-0.1-0.2-0.1-0.3-0.2C244,213,244.1,213,244.2,213.1z"/>
<path class="st0" d="M244.7,213.4c-0.2-0.1-0.4-0.2-0.5-0.3C244.4,213.2,244.6,213.3,244.7,213.4z"/>
<path class="st0" d="M243.9,212.9c-0.3-0.2-0.5-0.4-0.7-0.6C243.4,212.5,243.7,212.7,243.9,212.9z"/>
<path class="st0" d="M245.4,213.7c-0.2-0.1-0.5-0.2-0.7-0.3C245,213.5,245.2,213.6,245.4,213.7z"/>
<path class="st0" d="M246.6,214c-0.4,0-0.7-0.1-1-0.2C246,213.8,246.3,213.9,246.6,214z"/>
<path class="st0" d="M243.1,212.3C243.2,212.3,243.2,212.3,243.1,212.3C243.2,212.3,243.2,212.3,243.1,212.3z"/>
<path class="st0" d="M245.6,213.7c-0.1,0-0.1,0-0.2-0.1C245.5,213.7,245.6,213.7,245.6,213.7z"/>
<rect x="175.2" y="207" class="st2" width="73" height="0"/>
<path class="st2" d="M248.4,210.6c2,0,3.7-1.6,3.7-3.6c0-2-1.7-3.6-3.7-3.6c-2,0-3.7,1.6-3.7,3.6C244.7,209,246.4,210.6,248.4,210.6
	z"/>
<path class="st2" d="M224.1,210.6c2,0,3.7-1.6,3.7-3.6c0-2-1.7-3.6-3.7-3.6c-2,0-3.7,1.6-3.7,3.6C220.4,209,222.1,210.6,224.1,210.6
	z"/>
<path class="st2" d="M199.8,210.6c2,0,3.7-1.6,3.7-3.6c0-2-1.7-3.6-3.7-3.6c-2,0-3.7,1.6-3.7,3.6C196.1,209,197.8,210.6,199.8,210.6
	z"/>
<path class="st2" d="M175.5,210.6c2,0,3.7-1.6,3.7-3.6c0-2-1.7-3.6-3.7-3.6s-3.7,1.6-3.7,3.6C171.8,209,173.5,210.6,175.5,210.6z"/>
<path class="st3" d="M199.8,209.2c1.2,0,2.2-1,2.2-2.2c0-1.2-1-2.2-2.2-2.2c-1.2,0-2.2,1-2.2,2.2
	C197.6,208.2,198.6,209.2,199.8,209.2z"/>
<path class="st3" d="M224.1,209.2c1.2,0,2.2-1,2.2-2.2c0-1.2-1-2.2-2.2-2.2c-1.2,0-2.2,1-2.2,2.2
	C221.9,208.2,222.9,209.2,224.1,209.2z"/>
<path class="st3" d="M248.4,209.2c1.2,0,2.2-1,2.2-2.2c0-1.2-1-2.2-2.2-2.2c-1.2,0-2.2,1-2.2,2.2
	C246.2,208.2,247.2,209.2,248.4,209.2z"/>
<path class="st3" d="M187.7,208.9c1.1,0,2-0.8,2-1.9c0-1-0.9-1.9-2-1.9c-1.1,0-1.9,0.8-1.9,1.9C185.7,208.1,186.6,208.9,187.7,208.9
	z"/>
<path class="st3" d="M212,208.9c1.1,0,2-0.8,2-1.9c0-1-0.9-1.9-2-1.9c-1.1,0-1.9,0.8-1.9,1.9C210,208.1,210.9,208.9,212,208.9z"/>
<path class="st3" d="M237.5,208.9c1.1,0,2-0.8,2-1.9c0-1-0.9-1.9-2-1.9c-1.1,0-1.9,0.8-1.9,1.9C235.6,208.1,236.5,208.9,237.5,208.9
	z"/>
<path class="st3" d="M175.5,209.2c1.2,0,2.2-1,2.2-2.2c0-1.2-1-2.2-2.2-2.2c-1.2,0-2.2,1-2.2,2.2
	C173.3,208.2,174.3,209.2,175.5,209.2z"/>
<path class="st0" d="M244.7,213.4c-0.2-0.1-0.4-0.2-0.5-0.3C244.4,213.2,244.6,213.3,244.7,213.4z"/>
<path class="st0" d="M244.2,213.1c-0.1-0.1-0.2-0.1-0.3-0.2C244,213,244.1,213,244.2,213.1z"/>
<path class="st0" d="M243.9,212.9c-0.3-0.2-0.5-0.4-0.7-0.6C243.4,212.5,243.7,212.7,243.9,212.9z"/>
<path class="st0" d="M245.4,213.7c-0.2-0.1-0.5-0.2-0.7-0.3C245,213.5,245.2,213.6,245.4,213.7z"/>
<path class="st0" d="M243.1,212.3C243.2,212.3,243.2,212.3,243.1,212.3C243.2,212.3,243.2,212.3,243.1,212.3z"/>
<path class="st0" d="M246.6,214c-0.4,0-0.7-0.1-1-0.2C246,213.8,246.3,213.9,246.6,214z"/>
<path class="st0" d="M245.6,213.7c-0.1,0-0.1,0-0.2-0.1C245.5,213.7,245.6,213.7,245.6,213.7z"/>
<rect x="248.2" y="207" class="st2" width="123" height="0"/>
<path class="st2" d="M321.1,210.6c2,0,3.7-1.6,3.7-3.6c0-2-1.7-3.6-3.7-3.6c-2,0-3.7,1.6-3.7,3.6C317.4,209,319.1,210.6,321.1,210.6
	z"/>
<path class="st2" d="M296.8,210.6c2,0,3.7-1.6,3.7-3.6c0-2-1.7-3.6-3.7-3.6s-3.7,1.6-3.7,3.6C293.1,209,294.8,210.6,296.8,210.6z"/>
<path class="st2" d="M272.5,210.6c2,0,3.7-1.6,3.7-3.6c0-2-1.7-3.6-3.7-3.6c-2,0-3.7,1.6-3.7,3.6C268.8,209,270.5,210.6,272.5,210.6
	z"/>
<path class="st2" d="M248.2,210.6c2,0,3.7-1.6,3.7-3.6c0-2-1.7-3.6-3.7-3.6s-3.7,1.6-3.7,3.6C244.5,209,246.2,210.6,248.2,210.6z"/>
<path class="st3" d="M272.5,209.2c1.2,0,2.2-1,2.2-2.2c0-1.2-1-2.2-2.2-2.2c-1.2,0-2.2,1-2.2,2.2
	C270.3,208.2,271.3,209.2,272.5,209.2z"/>
<path class="st3" d="M296.8,209.2c1.2,0,2.2-1,2.2-2.2c0-1.2-1-2.2-2.2-2.2c-1.2,0-2.2,1-2.2,2.2
	C294.6,208.2,295.6,209.2,296.8,209.2z"/>
<path class="st3" d="M321.1,209.2c1.2,0,2.2-1,2.2-2.2c0-1.2-1-2.2-2.2-2.2c-1.2,0-2.2,1-2.2,2.2
	C318.9,208.2,319.9,209.2,321.1,209.2z"/>
<path class="st3" d="M260.4,208.9c1.1,0,2-0.8,2-1.9c0-1-0.9-1.9-2-1.9c-1.1,0-1.9,0.8-1.9,1.9C258.4,208.1,259.3,208.9,260.4,208.9
	z"/>
<path class="st3" d="M284.7,208.9c1.1,0,2-0.8,2-1.9c0-1-0.9-1.9-2-1.9c-1.1,0-1.9,0.8-1.9,1.9C282.7,208.1,283.6,208.9,284.7,208.9
	z"/>
<path class="st3" d="M310.2,208.9c1.1,0,2-0.8,2-1.9c0-1-0.9-1.9-2-1.9c-1.1,0-1.9,0.8-1.9,1.9C308.3,208.1,309.2,208.9,310.2,208.9
	z"/>
<path class="st2" d="M371.4,210.6c2,0,3.7-1.6,3.7-3.6c0-2-1.7-3.6-3.7-3.6c-2,0-3.7,1.6-3.7,3.6C367.7,209,369.3,210.6,371.4,210.6
	z"/>
<path class="st2" d="M347.1,210.6c2,0,3.7-1.6,3.7-3.6c0-2-1.7-3.6-3.7-3.6s-3.7,1.6-3.7,3.6C343.3,209,345,210.6,347.1,210.6z"/>
<path class="st3" d="M347.1,209.2c1.2,0,2.2-1,2.2-2.2c0-1.2-1-2.2-2.2-2.2c-1.2,0-2.2,1-2.2,2.2
	C344.8,208.2,345.8,209.2,347.1,209.2z"/>
<path class="st3" d="M371.4,209.2c1.2,0,2.2-1,2.2-2.2c0-1.2-1-2.2-2.2-2.2c-1.2,0-2.2,1-2.2,2.2
	C369.1,208.2,370.1,209.2,371.4,209.2z"/>
<path class="st3" d="M334.9,208.9c1.1,0,2-0.8,2-1.9c0-1-0.9-1.9-2-1.9c-1.1,0-1.9,0.8-1.9,1.9C332.9,208.1,333.8,208.9,334.9,208.9
	z"/>
<path class="st3" d="M360.5,208.9c1.1,0,2-0.8,2-1.9c0-1-0.9-1.9-2-1.9c-1.1,0-1.9,0.8-1.9,1.9C358.5,208.1,359.4,208.9,360.5,208.9
	z"/>
<path class="st3" d="M248.2,209.2c1.2,0,2.2-1,2.2-2.2c0-1.2-1-2.2-2.2-2.2c-1.2,0-2.2,1-2.2,2.2C246,208.2,247,209.2,248.2,209.2z"
	/>
<rect x="191.2" y="193" class="st4" width="3" height="6"/>
<rect x="110.2" y="184" class="st5" width="28" height="8"/>
<rect x="130.2" y="110" class="st5" width="8" height="82"/>
<rect x="310.2" y="177" class="st5" width="7" height="59"/>
<rect x="301.2" y="188" class="st5" width="4" height="48"/>
<rect x="130.2" y="105" class="st5" width="55" height="8"/>
<rect x="217.2" y="177" class="st5" width="97" height="8"/>
<rect x="213.2" y="188" class="st5" width="92" height="4"/>
<rect x="210.2" y="105" class="st5" width="55" height="8"/>
<path class="st4" d="M128.2,234h-3v-66.2c0-2,2.2-3.8,5.4-3.8h0.4c3.2,0,6.2,1.8,6.2,3.8v30.6c0,0.7,0.5,1.2,1.5,1.2
	c1,0,1.5-0.5,1.5-1.2v-30.6c0-2,2.9-3.8,6.1-3.8h0.4c3.2,0,5.4,1.8,5.4,3.8v29c0,0.7,1.2,1.2,2.3,1.2h0.7c1.1,0,2-0.5,2-1.2v-28.2
	c0-2,2.3-3.5,5.5-3.5c3.2,0,5.5,1.6,5.5,3.5v28.7c0,0.7,1.3,1.7,2.4,1.7h1c1.1,0,1.6-1,1.6-1.7v-28.7c0-2,2.9-3.7,6.2-3.7h1.3
	c3.2,0,5.5,1.7,5.5,3.7v28.7c0,0.7,1.2,1.7,2.2,1.7h0.4c0.9,0,1.3-0.6,2.3-0.6V198h3v0.8c0,1.2-1.8,2.2-5.3,2.2h-0.4
	c-3.2,0-6.2-1.7-6.2-3.7v-28.7c0-0.7-0.4-1.7-1.5-1.7h-1.3c-1.1,0-2.2,1-2.2,1.7v28.7c0,2-2.4,3.7-5.6,3.7h-1
	c-3.2,0-5.4-1.7-5.4-3.7v-28.7c0-0.7-1-1.2-2-1.2c-1,0-2,0.5-2,1.2v28.2c0,2-2.7,3.2-6,3.2h-0.7c-3.2,0-5.3-1.2-5.3-3.2v-29
	c0-0.7-1.4-0.8-2.4-0.8h-0.4c-1.1,0-2.1,0.1-2.1,0.8v30.6c0,2-2.3,3.5-5.5,3.5c-3.2,0-5.5-1.6-5.5-3.5v-30.6c0-0.7-1.1-0.8-2.2-0.8
	h-0.4c-1.1,0-2.4,0.1-2.4,0.8V234z"/>
<path class="st5" d="M208.2,154.2c0,4.2-0.6,7.8-0.8,7.8h-6.5c-0.2,0-0.7-3.6-0.7-7.8v-22.8c0-4.2,0.5-7.4,0.7-7.4h6.5
	c0.2,0,0.8,3.1,0.8,7.4V154.2z"/>
<path class="st5" d="M233.2,154.2c0,4.2-0.6,7.8-0.8,7.8h-6.5c-0.2,0-0.7-3.6-0.7-7.8v-22.8c0-4.2,0.5-7.4,0.7-7.4h6.5
	c0.2,0,0.8,3.1,0.8,7.4V154.2z"/>
<rect x="76.2" y="215" class="st4" width="27" height="21"/>
<rect x="63.2" y="170" class="st6" width="52" height="45"/>
<rect x="86.2" y="125" class="st5" width="5" height="23"/>
<path id="XMLID_34_" class="st7" d="M96.2,124.3c0,1-0.8,1.7-1.7,1.7H84c-1,0-1.7-0.8-1.7-1.7v-0.5c0-1,0.8-1.7,1.7-1.7h10.5
	c1,0,1.7,0.8,1.7,1.7V124.3z"/>
<path id="XMLID_33_" class="st7" d="M95.2,78c0,1.1-0.9,2-2,2h-8c-1.1,0-2-0.9-2-2v0c0-1.1,0.9-2,2-2h8C94.3,76,95.2,76.9,95.2,78
	L95.2,78z"/>
<rect id="XMLID_32_" x="87.2" y="56" class="st5" width="5" height="20"/>
<line class="st8" x1="239.7" y1="53" x2="239.7" y2="80"/>
<path class="st9" d="M241.2,192.2c0,1.3-0.7,2.8-1.7,2.8h-46.8c-1.1,0-1.5-1.5-1.5-2.8v-30.9c0-1.3,0.4-2.3,1.5-2.3h46.8
	c1.1,0,1.7,1,1.7,2.3V192.2z"/>
<path class="st6" d="M226.2,170.2c0,1-0.8,1.8-1.8,1.8H197c-1,0-1.8-0.8-1.8-1.8v-5.5c0-1,0.8-1.8,1.8-1.8h27.5c1,0,1.8,0.8,1.8,1.8
	V170.2z"/>
<path class="st7" d="M215.2,171.5c0,0.8-0.7,1.5-1.5,1.5h-3c-0.8,0-1.5-0.7-1.5-1.5l0,0c0-0.8,0.7-1.5,1.5-1.5h3
	C214.6,170,215.2,170.7,215.2,171.5L215.2,171.5z"/>
<circle class="st7" cx="218.3" cy="188.2" r="2.3"/>
<circle class="st4" cx="224" cy="188.2" r="2.3"/>
<circle class="st10" cx="229.7" cy="188.2" r="2.3"/>
<circle class="st6" cx="235.3" cy="188.2" r="2.3"/>
<path id="XMLID_31_" class="st9" d="M107.6,155H72c-1.1,0-1.8,1.4-1.8,2.5v5.9v26.4v23.5c0,1.1,0.7,1.7,1.8,1.7h5l0,0h12.1l0,0h6
	l0,0h6l0,0h6.4c1.1,0,0.6-0.6,0.6-1.7v-55.8C108.2,156.4,108.7,155,107.6,155z"/>
<path id="XMLID_30_" class="st5" d="M99.2,88h-20v-5.4c0-2.1,1.6-3.6,3.6-3.6h12.5c1.9,0,3.9,1.4,3.9,3.3V88z"/>
<path id="XMLID_29_" class="st5" d="M79.2,116h20v5.1c0,1.9-2.1,3.9-4,3.9H82.6c-1.9,0-3.3-1.9-3.3-3.8V116z"/>
<path id="XMLID_26_" class="st6" d="M106.6,192.7c0,1.6-1.3,2.9-2.9,2.9c-1.6,0-2.9-1.3-2.9-2.9s1.3-2.9,2.9-2.9
	C105.3,189.8,106.6,191.1,106.6,192.7z M105.5,192.7c0-1-0.8-1.8-1.8-1.8c-1,0-1.8,0.8-1.8,1.8c0,1,0.8,1.8,1.8,1.8
	C104.7,194.5,105.5,193.7,105.5,192.7z"/>
<path id="XMLID_23_" class="st10" d="M97.2,192.7c0,1.6-1.3,2.9-2.9,2.9c-1.6,0-2.9-1.3-2.9-2.9s1.3-2.9,2.9-2.9
	C95.9,189.8,97.2,191.1,97.2,192.7z M96.2,192.7c0-1-0.8-1.8-1.8-1.8c-1,0-1.8,0.8-1.8,1.8c0,1,0.8,1.8,1.8,1.8
	C95.3,194.5,96.2,193.7,96.2,192.7z"/>
<path id="XMLID_20_" class="st4" d="M87.8,192.7c0,1.6-1.3,2.9-2.9,2.9c-1.6,0-2.9-1.3-2.9-2.9s1.3-2.9,2.9-2.9
	C86.5,189.8,87.8,191.1,87.8,192.7z M86.8,192.7c0-1-0.8-1.8-1.8-1.8c-1,0-1.8,0.8-1.8,1.8c0,1,0.8,1.8,1.8,1.8
	C86,194.5,86.8,193.7,86.8,192.7z"/>
<path id="XMLID_19_" class="st11" d="M84.9,190.9c1,0,1.8,0.8,1.8,1.8c0,1-0.8,1.8-1.8,1.8c-1,0-1.8-0.8-1.8-1.8
	C83.1,191.7,83.9,190.9,84.9,190.9z"/>
<path id="XMLID_16_" class="st7" d="M78.4,192.7c0,1.6-1.3,2.9-2.9,2.9c-1.6,0-2.9-1.3-2.9-2.9s1.3-2.9,2.9-2.9
	C77.2,189.8,78.4,191.1,78.4,192.7z M77.4,192.7c0-1-0.8-1.8-1.8-1.8c-1,0-1.8,0.8-1.8,1.8c0,1,0.8,1.8,1.8,1.8
	C76.6,194.5,77.4,193.7,77.4,192.7z"/>
<circle id="XMLID_15_" class="st12" cx="89.6" cy="102" r="19"/>
<ellipse id="XMLID_14_" class="st13" cx="89.6" cy="102.2" rx="11.1" ry="10.9"/>
<ellipse id="XMLID_13_" class="st4" cx="89.5" cy="102.3" rx="8" ry="7.9"/>
<ellipse id="XMLID_12_" class="st14" cx="89.6" cy="102.1" rx="3" ry="3"/>
<rect id="XMLID_11_" x="83.2" y="18" class="st7" width="13" height="19"/>
<polygon id="XMLID_10_" class="st4" points="99.8,0 79.4,0 81.4,18 97.8,18 "/>
<path class="st5" d="M249.2,122.4c0,1.6-1.1,2.6-2.5,2.6h-62.6c-1.4,0-2.9-1-2.9-2.6V82.6c0-1.6,1.5-2.6,2.9-2.6h62.6
	c1.4,0,2.5,1,2.5,2.6V122.4z"/>
<path class="st6" d="M245.2,120c0,1.4-1,3-2.3,3h-55c-1.3,0-2.7-1.5-2.7-3V85c0-1.4,1.4-3,2.7-3h55c1.3,0,2.3,1.6,2.3,3V120z"/>
<path class="st15" d="M240.7,114.7c0,1.1,0.2,1.8-0.1,1.8h-13.9c-0.3,0-1.1-0.7-1.1-1.8V87.3c0-1.1,0.7-1.8,1.1-1.8h13.9
	c0.3,0,0.1,0.7,0.1,1.8V114.7z"/>
<circle class="st5" cx="239.7" cy="51.1" r="5.7"/>
<line class="st8" x1="192.7" y1="53" x2="192.7" y2="80"/>
<circle class="st5" cx="192.7" cy="51.1" r="5.7"/>
<rect id="XMLID_9_" x="83.2" y="37" class="st7" width="13" height="20"/>
<path class="st5" d="M100.2,42c0,0.6-0.4,1-1,1h-18c-0.6,0-1-0.4-1-1v-7c0-0.6,0.4-1,1-1h18c0.6,0,1,0.4,1,1V42z"/>
<path id="XMLID_8_" class="st7" d="M96.2,157h-14v-10.6c0-0.6,0.6-1.4,1.2-1.4h11.9c0.7,0,0.9,0.9,0.9,1.6V157z"/>
<rect x="72.2" y="159" class="st7" width="34" height="26"/>
<polyline class="st16" points="72.6,169.3 78.7,172.8 81.8,166.5 84.4,174.3 86.5,170.9 89.7,172 92.9,165.7 95,176 97.7,170.9 
	99.4,173.7 102.1,162.1 103.6,172.5 106.6,168.8 "/>
<circle class="st7" cx="75.7" cy="208.9" r="2.3"/>
<circle class="st7" cx="81.4" cy="208.9" r="2.3"/>
<polygon class="st5" points="115.4,236.3 119.7,231 134.7,231 139.3,236.5 "/>
<polygon class="st5" points="295.6,236.1 301,231 319.9,231 325.6,236.4 "/>
<rect x="259.2" y="59" class="st5" width="8" height="54"/>
<polygon id="XMLID_5_" class="st4" points="273.8,42 253.4,42 255.4,60 271.8,60 "/>
<rect x="257.2" y="120" class="st5" width="2" height="11"/>
<rect x="247.2" y="119" class="st5" width="12" height="2"/>
<ellipse id="XMLID_2_" class="st4" cx="258.5" cy="133.3" rx="3.9" ry="3.9"/>
<line class="st17" x1="194.7" y1="88" x2="194.7" y2="114"/>
<line class="st17" x1="202.7" y1="88" x2="202.7" y2="114"/>
<line class="st17" x1="210.7" y1="88" x2="210.7" y2="114"/>
<path class="st6" d="M397.2,252v8H34.8c-1.9,0-3.7-0.3-4.9-1.1s-2-1.7-2-2.9c0-2.3,3.1-4.1,7-4.1H397.2z"/>
<path class="st6" d="M397.2,238v9H34.8c-1.9,0-3.7-0.6-4.9-1.4c-1.3-0.7-2-2.1-2-3.2c0-2.3,3.1-4.4,7-4.4H397.2z"/>
<path class="st6" d="M23.3,249.3c0,6,5.9,10.9,11.9,10.9v-8.1c-1,0-3.1-1.3-3.1-2.9c0-1.6,2.1-2.8,3.1-2.8v-8.1
	C29.2,238.4,23.3,243.3,23.3,249.3z"/>
<path class="st18" d="M369,193.9c-0.8,0.1-1.6,0.3-2.3,0.6l-0.4-1.2c-0.8,0.3-1.6,0.7-2.4,1.1l0.6,1.1c-0.7,0.4-1.3,0.9-2,1.4
	l-0.8-1c-0.7,0.6-1.3,1.2-1.8,1.8l1,0.8c-0.5,0.6-1,1.3-1.4,2l-1.1-0.6c-0.4,0.8-0.8,1.5-1.1,2.4l1.2,0.4c-0.3,0.7-0.5,1.5-0.6,2.3
	l-1.3-0.4c-0.1,0.8-0.2,2.4-0.2,2.4l0,0h1.3c0,1,0.1,1.8,0.2,2.6l-1.3,0.3c0.2,0.9,0.4,1.8,0.7,2.6l1.2-0.4c0.3,0.8,0.6,1.5,1,2.2
	l-1.1,0.6c0.4,0.8,0.9,1.5,1.5,2.1l1-0.8c0.5,0.6,1.1,1.2,1.7,1.7l-0.8,1c0.7,0.6,1.4,1.1,2.1,1.5l0.6-1.1c0.7,0.4,1.4,0.7,2.2,1
	l-0.4,1.2c0.8,0.3,1.7,0.5,2.5,0.7l0.2-1.3c0.8,0.1,1.3,0.2,2.3,0.2v1.3c1,0,1.8-0.1,2.7-0.2l-0.2-1.3c0.8-0.1,1.6-0.3,2.3-0.6
	l0.4,1.2c0.8-0.3,1.6-0.7,2.4-1.1l-0.6-1.1c0.7-0.4,1.3-0.9,2-1.4l0.8,1c0.7-0.6,1.3-1.2,1.8-1.8l-1-0.8c0.5-0.6,1-1.3,1.4-2
	l1.1,0.6c0.4-0.8,0.8-1.5,1.1-2.4l-1.2-0.4c0.3-0.7,0.5-1.5,0.6-2.3l1.3,0c0.1-0.8,0.2-1.8,0.2-2.8l0,0h-1.3c0,0-0.1-1.4-0.2-2.2
	l1.3-0.1c-0.2-0.9-0.4-1.7-0.7-2.5l-1.2,0.5c-0.3-0.8-0.6-1.5-1-2.2l1.1-0.6c-0.4-0.8-0.9-1.5-1.5-2.1l-1,0.8
	c-0.5-0.6-1.1-1.2-1.7-1.7l0.8-1c-0.7-0.6-1.4-1.1-2.1-1.5l-0.6,1.1c-0.7-0.4-1.4-0.7-2.2-1l0.4-1.2c-0.8-0.3-1.7-0.5-2.5-0.7
	l-0.3,1.3c-0.8-0.1-1.5-0.2-2.5-0.2v-1.3c-1,0-1.7,0.1-2.5,0.2L369,193.9z"/>
</svg>
