<!-- Generator: Adobe Illustrator 19.2.1, SVG Export Plug-In  -->
<svg version="1.1"
	 xmlns="http://www.w3.org/2000/svg" xmlns:xlink="http://www.w3.org/1999/xlink" xmlns:a="http://ns.adobe.com/AdobeSVGViewerExtensions/3.0/"
	 x="0px" y="0px" width="7px" height="8px" viewBox="0 0 7 8" style="enable-background:new 0 0 7 8;" xml:space="preserve">
<style type="text/css">
	.st0{fill:#22648A;}
	.st1{fill:#11354B;}
</style>
<defs>
</defs>
<g>
	<path class="st0" d="M2.2,1.9C1.1,2.6,0.8,4,1.4,5.2S3.6,6.6,4.7,6s1.5-2.1,0.8-3.3S3.4,1.2,2.2,1.9z M4.4,5.4
		C3.5,6,2.4,5.7,1.9,4.8S1.7,2.9,2.5,2.4C3.4,1.9,4.5,2.2,5,3C5.5,3.9,5.2,4.9,4.4,5.4z"/>
	<path class="st1" d="M0,2l0.1,4l3.5,2L7,6L6.9,2L3.4,0L0,2L0,2z M4.8,6.2C3.6,7,1.9,6.6,1.2,5.3S0.8,2.4,2.1,1.6S5,1.3,5.7,2.6
		S6.1,5.5,4.8,6.2z"/>
</g>
</svg>
