<!-- Generator: Adobe Illustrator 19.2.1, SVG Export Plug-In  -->
<svg version="1.1"
	 xmlns="http://www.w3.org/2000/svg" xmlns:xlink="http://www.w3.org/1999/xlink" xmlns:a="http://ns.adobe.com/AdobeSVGViewerExtensions/3.0/"
	 x="0px" y="0px" width="14.3px" height="6.7px" viewBox="0 0 14.3 6.7" style="enable-background:new 0 0 14.3 6.7;"
	 xml:space="preserve">
<style type="text/css">
	.st0{fill:#11354B;}
	.st1{fill:#22648A;}
</style>
<defs>
</defs>
<g>
	<polygon class="st0" points="1,0 2,0.2 1.7,2.1 13.2,4.1 14.3,5.3 12.9,6.1 1.3,4.1 1,6.1 0,5.9 	"/>
	<polygon class="st1" points="2.7,1.3 3.1,1.4 4.1,5.6 3.7,5.5 	"/>
	<polygon class="st1" points="4.2,1.6 4.7,1.6 5.7,5.9 5.2,5.8 	"/>
	<polygon class="st1" points="5.8,1.8 6.2,1.9 7.2,6.1 6.8,6.1 	"/>
	<polygon class="st1" points="7.4,2.1 7.8,2.2 8.8,6.4 8.4,6.3 	"/>
	<polygon class="st1" points="8.9,2.4 9.4,2.4 10.4,6.7 9.9,6.6 	"/>
</g>
</svg>
