<!-- Generator: Adobe Illustrator 19.2.1, SVG Export Plug-In  -->
<svg version="1.1"
	 xmlns="http://www.w3.org/2000/svg" xmlns:xlink="http://www.w3.org/1999/xlink" xmlns:a="http://ns.adobe.com/AdobeSVGViewerExtensions/3.0/"
	 x="0px" y="0px" width="13px" height="12.3px" viewBox="0 0 13 12.3" style="enable-background:new 0 0 13 12.3;"
	 xml:space="preserve">
<style type="text/css">
	.st0{fill:#22648A;}
	.st1{fill:#11354B;}
</style>
<defs>
</defs>
<g>
	<path class="st0" d="M3.9,1.1c-1.3,0-2.3,1.1-2.3,2.4S2.7,5.9,4,5.8s2.3-1.1,2.3-2.4C6.3,2.1,5.2,1,3.9,1.1z M4,5.2
		c-1,0-1.8-0.7-1.8-1.7s0.7-1.8,1.7-1.8c1,0,1.8,0.7,1.8,1.7C5.8,4.4,5,5.2,4,5.2z"/>
	<path class="st1" d="M1.9,0.1L0,3.6l2.1,3.4L6,7l1.9-3.5L5.9,0L1.9,0.1L1.9,0.1z M4,6.1C2.6,6.1,1.3,5,1.3,3.5
		c0-1.5,1.1-2.7,2.6-2.7c1.5,0,2.7,1.1,2.7,2.6C6.7,4.9,5.5,6.1,4,6.1z"/>
</g>
<g>
	<path class="st0" d="M9.5,6.1C8.2,5.9,7,6.8,6.8,8.1s0.7,2.5,2,2.7s2.5-0.7,2.7-2C11.7,7.5,10.8,6.3,9.5,6.1z M8.9,10.2
		c-1-0.1-1.6-1.1-1.5-2c0.1-1,1.1-1.6,2-1.5c1,0.1,1.6,1.1,1.5,2C10.8,9.7,9.8,10.4,8.9,10.2z"/>
	<path class="st1" d="M7.7,4.8L5.2,7.9l1.4,3.7l3.9,0.6L13,9.2l-1.4-3.7L7.7,4.8L7.7,4.8z M8.7,11.1c-1.5-0.2-2.4-1.6-2.2-3
		s1.6-2.4,3-2.2c1.5,0.2,2.4,1.6,2.2,3C11.6,10.3,10.2,11.3,8.7,11.1z"/>
</g>
</svg>
