<!-- Generator: Adobe Illustrator 19.2.1, SVG Export Plug-In  -->
<svg version="1.1"
	 xmlns="http://www.w3.org/2000/svg" xmlns:xlink="http://www.w3.org/1999/xlink" xmlns:a="http://ns.adobe.com/AdobeSVGViewerExtensions/3.0/"
	 x="0px" y="0px" width="19.4px" height="13.1px" viewBox="0 0 19.4 13.1" style="enable-background:new 0 0 19.4 13.1;"
	 xml:space="preserve">
<style type="text/css">
	.st0{fill:#11354B;}
	.st1{fill:#22648A;}
</style>
<defs>
</defs>
<g>
	<polygon class="st0" points="5.4,7.1 6.4,7.1 6.4,9.1 18.1,9.2 19.4,10.2 18,11.2 6.3,11.1 6.3,13.1 5.3,13.1 	"/>
	<polygon class="st1" points="7.2,8.1 7.7,8.1 9.3,12.1 8.9,12.1 	"/>
	<polygon class="st1" points="8.8,8.1 9.3,8.1 10.9,12.1 10.5,12.1 	"/>
	<polygon class="st1" points="10.4,8.1 10.9,8.1 12.5,12.1 12.1,12.1 	"/>
	<polygon class="st1" points="12,8.1 12.4,8.1 14.1,12.2 13.6,12.2 	"/>
	<polygon class="st1" points="13.6,8.2 14,8.2 15.7,12.2 15.2,12.2 	"/>
</g>
<g>
	<path class="st1" d="M3.9,1.1c-1.3,0-2.3,1.1-2.3,2.4S2.7,5.9,4,5.8s2.3-1.1,2.3-2.4C6.3,2.1,5.2,1,3.9,1.1z M4,5.2
		c-1,0-1.8-0.7-1.8-1.7s0.7-1.8,1.7-1.8c1,0,1.8,0.7,1.8,1.7C5.8,4.4,5,5.2,4,5.2z"/>
	<path class="st0" d="M1.9,0.1L0,3.6l2.1,3.4L6,7l1.9-3.5L5.9,0L1.9,0.1L1.9,0.1z M4,6.1C2.6,6.1,1.3,5,1.3,3.5
		c0-1.5,1.1-2.7,2.6-2.7c1.5,0,2.7,1.1,2.7,2.6C6.7,4.9,5.5,6.1,4,6.1z"/>
</g>
</svg>
