<!-- Generator: Adobe Illustrator 19.0.0, SVG Export Plug-In  -->
<svg version="1.1"
	 xmlns="http://www.w3.org/2000/svg" xmlns:xlink="http://www.w3.org/1999/xlink" xmlns:a="http://ns.adobe.com/AdobeSVGViewerExtensions/3.0/"
	 x="0px" y="0px" width="50.6px" height="35.5px" viewBox="0 0 50.6 35.5" style="enable-background:new 0 0 50.6 35.5;"
	 xml:space="preserve">
<style type="text/css">
	.st0{fill:#EABEA7;}
	.st1{fill:#B1C4CE;}
	.st2{fill:#11354B;}
	.st3{fill:#E72B48;}
	.st4{fill:#FFFFFF;}
</style>
<defs>
</defs>
<path class="st0" d="M50.6,33.2c0,1.3-0.9,2.3-1.9,2.3H1.9c-1.1,0-1.9-1-1.9-2.3V2.3C0,1,0.9,0,1.9,0h46.8c1.1,0,1.9,1,1.9,2.3V33.2
	z"/>
<path class="st1" d="M35.9,10.6c0,1-0.8,1.8-1.8,1.8H6.5c-1,0-1.8-0.8-1.8-1.8V5.3c0-1,0.8-1.8,1.8-1.8h27.6c1,0,1.8,0.8,1.8,1.8
	V10.6z"/>
<path class="st2" d="M24.2,12.3c0,0.9-0.7,1.6-1.6,1.6H20c-0.9,0-1.6-0.7-1.6-1.6l0,0c0-0.9,0.7-1.6,1.6-1.6h2.6
	C23.5,10.7,24.2,11.4,24.2,12.3L24.2,12.3z"/>
<circle class="st2" cx="27.5" cy="29.2" r="2.3"/>
<circle class="st3" cx="33.2" cy="29.2" r="2.3"/>
<circle class="st4" cx="38.9" cy="29.2" r="2.3"/>
<circle class="st1" cx="44.6" cy="29.2" r="2.3"/>
</svg>
