<!-- Generator: Adobe Illustrator 19.0.0, SVG Export Plug-In  -->
<svg version="1.1"
	 xmlns="http://www.w3.org/2000/svg" xmlns:xlink="http://www.w3.org/1999/xlink" xmlns:a="http://ns.adobe.com/AdobeSVGViewerExtensions/3.0/"
	 x="0px" y="0px" width="253.4px" height="22px" viewBox="0 0 253.4 22" style="enable-background:new 0 0 253.4 22;"
	 xml:space="preserve">
<style type="text/css">
	.st0{fill:#B1C4CE;}
</style>
<defs>
</defs>
<rect y="0" class="st0" width="243" height="9"/>
<rect y="14" class="st0" width="243" height="8"/>
<path class="st0" d="M253.4,11.4c-0.2,3.7-2.2,6.2-2.8,6.9c-3.6,4.1-7.3,3.8-8.1,3.7l-0.3-8.1c0.1,0,1.3,0.1,2.2-0.8
	c0.7-0.7,0.7-1.6,0.7-1.7c0-0.9-0.5-1.5-0.6-1.6C243.9,9.2,243.2,9,243,9V0c1.1,0,3.6,0.1,6,1.8C253.7,5,253.5,10.9,253.4,11.4z"/>
</svg>
