<!-- Generator: Adobe Illustrator 19.0.0, SVG Export Plug-In  -->
<svg version="1.1"
	 xmlns="http://www.w3.org/2000/svg" xmlns:xlink="http://www.w3.org/1999/xlink" xmlns:a="http://ns.adobe.com/AdobeSVGViewerExtensions/3.0/"
	 x="0px" y="0px" width="134.7px" height="65px" viewBox="0 0 134.7 65" style="enable-background:new 0 0 134.7 65;"
	 xml:space="preserve">
<style type="text/css">
	.st0{fill:#FDCA00;}
	.st1{fill:#FD5400;}
	.st2{fill:#FFFFFF;}
	.st3{fill:#706E6F;}
	.st4{fill:#B4B2B2;}
	.st5{fill:#F59C00;}
	.st6{fill:#C7C5C5;}
	.st7{fill:#5E5D5D;}
	.st8{fill:#ABFDFF;}
	.st9{fill:#757373;}
	.st10{fill:#373737;}
	.st11{fill:#5E5C5D;}
	.st12{opacity:0.4;fill:none;stroke:#373737;stroke-miterlimit:10;}
	.st13{opacity:0.8;}
	.st14{fill:none;stroke:#373737;stroke-miterlimit:10;}
	.st15{opacity:0.4;fill:#373737;}
	.st16{opacity:0.4;fill:none;stroke:#373737;stroke-width:2;stroke-miterlimit:10;}
</style>
<defs>
</defs>
<polygon id="XMLID_192_" class="st0" points="33,46 33,26 5.7,26 0,46 "/>
<path id="XMLID_191_" class="st1" d="M4,43.8C4,43.4,3.6,43,3.2,43H2.8C2.4,43,2,43.4,2,43.8v2.3C2,46.6,2.4,47,2.8,47h0.3
	C3.6,47,4,46.6,4,46.2V43.8z"/>
<g id="XMLID_188_">
	<path id="XMLID_190_" class="st2" d="M60,1.6C60,1.3,59.7,1,59.4,1h-0.9C58.3,1,58,1.3,58,1.6v0.9C58,2.7,58.3,3,58.6,3h0.9
		C59.7,3,60,2.7,60,2.4V1.6z"/>
	<path id="XMLID_189_" class="st3" d="M59,0.6C59,0.3,58.7,0,58.4,0h-0.9C57.3,0,57,0.3,57,0.6v1.9C57,2.7,57.3,3,57.6,3h0.9
		C58.7,3,59,2.7,59,2.4V0.6z"/>
</g>
<g id="XMLID_185_">
	<rect id="XMLID_187_" x="87" y="32" class="st4" width="9" height="2"/>
	<path id="XMLID_186_" class="st5" d="M90,31.8c0-0.5-0.4-0.8-0.8-0.8H78.8c-0.5,0-0.8,0.4-0.8,0.8v2.3c0,0.5,0.4,0.8,0.8,0.8h10.3
		c0.5,0,0.8-0.4,0.8-0.8V31.8z"/>
</g>
<path id="XMLID_184_" class="st0" d="M98,31.8c0-0.5-0.4-0.8-0.8-0.8h-2.3c-0.5,0-0.8,0.4-0.8,0.8v17.3c0,0.5,0.4,0.8,0.8,0.8h2.3
	c0.5,0,0.8-0.4,0.8-0.8V31.8z"/>
<circle id="XMLID_183_" class="st0" cx="77.8" cy="33.8" r="4.1"/>
<path id="XMLID_182_" class="st6" d="M66,11.3V6.5C66,6.1,65.8,6,65.5,6H61V5h4.5C66.1,5,67,5.9,67,6.5v4.8c0,0.6-0.9,0.7-1.5,0.7
	H64l0,0h1.5C65.8,12,66,11.6,66,11.3z"/>
<path id="XMLID_181_" class="st4" d="M65,10.8c0-0.4-0.3-0.8-0.8-0.8h-0.5c-0.4,0-0.8,0.3-0.8,0.8v2.5c0,0.4,0.3,0.8,0.8,0.8h0.5
	c0.4,0,0.8-0.3,0.8-0.8V10.8z"/>
<path id="XMLID_180_" class="st6" d="M64,8.5C64,8.2,63.8,8,63.5,8l0,0C63.2,8,63,8.2,63,8.5v9c0,0.3,0.2,0.5,0.5,0.5l0,0
	c0.3,0,0.5-0.2,0.5-0.5V8.5z"/>
<path id="XMLID_179_" class="st7" d="M62,2.9C62,2.4,61.6,2,61.1,2H50.9C50.4,2,50,2.4,50,2.9v33.2c0,0.5,0.4,0.9,0.9,0.9h10.2
	c0.5,0,0.9-0.4,0.9-0.9V2.9z"/>
<path id="XMLID_178_" class="st8" d="M61,5.8C61,5.4,60.6,5,60.2,5h-9.3C50.4,5,50,5.4,50,5.8v27.3c0,0.5,0.4,0.8,0.8,0.8h9.3
	c0.5,0,0.8-0.4,0.8-0.8V5.8z"/>
<rect id="XMLID_177_" x="58" y="25" class="st7" width="3" height="8"/>
<rect id="XMLID_176_" x="65" y="38" class="st0" width="12" height="7"/>
<polygon id="XMLID_175_" class="st5" points="101.7,56.4 93,41.1 64.8,28 61.6,28 60.1,31.5 64.8,37 71.2,37 101.1,58.4 "/>
<polygon id="XMLID_117_" class="st0" points="65,36.6 59,30.2 59,41 65,41 "/>
<polygon id="XMLID_116_" class="st9" points="61.9,41 64.9,36.7 73,44.1 73,46 59,46 59,41 "/>
<rect id="XMLID_115_" x="25" y="23" class="st4" width="1" height="3"/>
<path id="XMLID_114_" class="st4" d="M27,22.8c0-0.5-0.4-0.8-0.8-0.8h-1.3c-0.5,0-0.8,0.4-0.8,0.8v0.3c0,0.5,0.4,0.8,0.8,0.8h1.3
	c0.5,0,0.8-0.4,0.8-0.8V22.8z"/>
<g id="XMLID_112_">
	<path id="XMLID_113_" class="st10" d="M19,26h1v-8.5c0-1.7-1-3.2-3-3.9v2.3c1,0.1,2,0.5,2,1.7V26z"/>
</g>
<path id="XMLID_111_" class="st7" d="M58,2.8C58,2.4,57.6,2,57.2,2H34.8C34.4,2,34,2.4,34,2.8v35.3c0,0.5,0.4,0.8,0.8,0.8h22.3
	c0.5,0,0.8-0.4,0.8-0.8V2.8z"/>
<polygon id="XMLID_110_" class="st11" points="0,50 7.2,53 68.2,53 69.4,50 "/>
<rect id="XMLID_109_" y="46" class="st11" width="69" height="3"/>
<rect id="XMLID_108_" y="49" class="st9" width="69" height="1"/>
<rect id="XMLID_107_" x="34" y="39" class="st9" width="25" height="7"/>
<rect id="XMLID_106_" x="34" y="39" class="st7" width="25" height="0"/>
<g id="XMLID_98_">
	<rect id="XMLID_105_" x="55" y="39" class="st7" width="1" height="7"/>
	<rect id="XMLID_104_" x="52" y="39" class="st7" width="1" height="7"/>
	<rect id="XMLID_103_" x="49" y="39" class="st7" width="0" height="7"/>
	<rect id="XMLID_102_" x="46" y="39" class="st7" width="0" height="7"/>
	<rect id="XMLID_101_" x="43" y="39" class="st7" width="0" height="7"/>
	<rect id="XMLID_100_" x="39" y="39" class="st7" width="1" height="7"/>
	<rect id="XMLID_99_" x="36" y="39" class="st7" width="1" height="7"/>
</g>
<rect id="XMLID_97_" x="33" y="26" class="st5" width="1" height="20"/>
<g id="XMLID_79_">
	<path id="XMLID_96_" class="st12" d="M26.5,32.4c0-0.5-0.4-0.9-0.9-0.9H11.4c-0.5,0-0.9,0.4-0.9,0.9v9.3c0,0.5,0.4,0.9,0.9,0.9
		h14.3c0.5,0,0.9-0.4,0.9-0.9V32.4z"/>
	<g id="XMLID_80_">
		<g id="XMLID_93_" class="st13">
			<polygon id="XMLID_95_" class="st10" points="24,33 24,33 19,33 19,33 19,33 19,33 24,33 24,33 			"/>
			<polygon id="XMLID_94_" class="st10" points="17,33 17,33 12,33 12,33 12,33 12,33 17,33 17,33 			"/>
		</g>
		<g id="XMLID_90_" class="st13">
			<polygon id="XMLID_92_" class="st10" points="24,35 24,35 19,35 19,35 19,35 19,35 24,35 24,35 			"/>
			<polygon id="XMLID_91_" class="st10" points="17,35 17,35 12,35 12,35 12,35 12,35 17,35 17,35 			"/>
		</g>
		<g id="XMLID_87_" class="st13">
			<polygon id="XMLID_89_" class="st10" points="24,36 24,36 19,36 19,36 19,36 19,36 24,36 24,36 			"/>
			<polygon id="XMLID_88_" class="st10" points="17,36 17,36 12,36 12,36 12,36 12,36 17,36 17,36 			"/>
		</g>
		<g id="XMLID_84_" class="st13">
			<polygon id="XMLID_86_" class="st10" points="24,38 24,38 19,38 19,38 19,38 19,38 24,38 24,38 			"/>
			<polygon id="XMLID_85_" class="st10" points="17,38 17,38 12,38 12,38 12,38 12,38 17,38 17,38 			"/>
		</g>
		<g id="XMLID_81_" class="st13">
			<polygon id="XMLID_83_" class="st10" points="24,40 24,40 19,40 19,40 19,40 19,40 24,40 24,40 			"/>
			<polygon id="XMLID_82_" class="st10" points="17,40 17,40 12,40 12,40 12,40 12,40 17,40 17,40 			"/>
		</g>
	</g>
</g>
<g id="XMLID_75_">
	<path id="XMLID_78_" class="st10" d="M3,46v-3.2C3,42.4,3.3,42,3.7,42h3.3C7.5,42,8,42.4,8,42.8V46H3z"/>
	<rect id="XMLID_77_" x="8" y="44" class="st9" width="5" height="1"/>
	<rect id="XMLID_76_" x="12.1" y="43.7" class="st9" width="1" height="1.8"/>
</g>
<polygon id="XMLID_74_" class="st0" points="59,32.9 34,25.6 34,39 59,39 "/>
<path id="XMLID_73_" class="st8" d="M43,5.8C43,5.4,42.6,5,42.2,5h-5.3C36.4,5,36,5.4,36,5.8v19.3c0,0.5,0.4,0.8,0.8,0.8h5.3
	c0.5,0,0.8-0.4,0.8-0.8V5.8z"/>
<path id="XMLID_72_" class="st8" d="M56,5.8C56,5.4,55.6,5,55.2,5h-9.3C45.4,5,45,5.4,45,5.8v19.3c0,0.5,0.4,0.8,0.8,0.8h9.3
	c0.5,0,0.8-0.4,0.8-0.8V5.8z"/>
<polygon id="XMLID_71_" class="st2" points="45,7 56,17.9 56,16.6 45,5.6 "/>
<polygon id="XMLID_70_" class="st2" points="45,12.6 56,23.6 56,19.9 45,8.9 "/>
<path id="XMLID_69_" class="st14" d="M56.5,5.3c0-0.5-0.4-0.8-0.8-0.8h-9.3c-0.5,0-0.8,0.4-0.8,0.8v30.3c0,0.5,0.4,0.8,0.8,0.8h9.3
	c0.5,0,0.8-0.4,0.8-0.8V5.3z"/>
<path id="XMLID_68_" class="st14" d="M56.5,5.3c0-0.5-0.4-0.8-0.8-0.8h-9.3c-0.5,0-0.8,0.4-0.8,0.8v19.3c0,0.5,0.4,0.8,0.8,0.8h9.3
	c0.5,0,0.8-0.4,0.8-0.8V5.3z"/>
<polygon id="XMLID_67_" class="st2" points="43,14.8 43,18.5 36,11.4 36,7.8 "/>
<polygon id="XMLID_66_" class="st2" points="43,20.9 43,22 36,15 36,13.9 "/>
<path id="XMLID_65_" class="st14" d="M43.5,5.3c0-0.5-0.4-0.8-0.8-0.8h-5.3c-0.5,0-0.8,0.4-0.8,0.8v19.3c0,0.5,0.4,0.8,0.8,0.8h5.3
	c0.5,0,0.8-0.4,0.8-0.8V5.3z"/>
<path id="XMLID_64_" class="st6" d="M28,22.4c0-0.2-0.2-0.4-0.4-0.4h-4.1c-0.2,0-0.4,0.2-0.4,0.4v0.1c0,0.2,0.2,0.4,0.4,0.4h4.1
	c0.2,0,0.4-0.2,0.4-0.4V22.4z"/>
<path id="XMLID_63_" class="st14" d="M38,35.6c-0.3,0.3-0.4,0.8-0.1,1.2l1.3,1.4c0.3,0.3,0.8,0.4,1.2,0.1l0.4-0.3
	c0.3-0.3,0.4-0.8,0.1-1.2l-1.3-1.4c-0.3-0.3-0.8-0.4-1.2-0.1L38,35.6z"/>
<path id="XMLID_62_" class="st6" d="M50,26.4c0-0.2-0.2-0.4-0.4-0.4h-3.3c-0.2,0-0.4,0.2-0.4,0.4v0.3c0,0.2,0.2,0.4,0.4,0.4h3.3
	c0.2,0,0.4-0.2,0.4-0.4V26.4z"/>
<circle id="XMLID_61_" class="st0" cx="64.1" cy="30.9" r="1.7"/>
<circle id="XMLID_60_" class="st5" cx="78.6" cy="32.1" r="1.2"/>
<rect id="XMLID_59_" x="59" y="30" class="st5" width="0" height="16"/>
<circle id="XMLID_58_" class="st5" cx="95.8" cy="32.8" r="0.9"/>
<rect id="XMLID_57_" x="94" y="39" class="st15" width="4" height="1"/>
<rect id="XMLID_56_" x="94" y="37" class="st15" width="4" height="1"/>
<g id="XMLID_53_">
	<path id="XMLID_55_" class="st2" d="M71,33.8c0-0.5-0.4-0.8-0.8-0.8h-1.3c-0.5,0-0.8,0.4-0.8,0.8v1.3c0,0.5,0.4,0.8,0.8,0.8h1.3
		c0.5,0,0.8-0.4,0.8-0.8V33.8z"/>
	<path id="XMLID_54_" class="st3" d="M70,32.8c0-0.5-0.4-0.8-0.8-0.8h-1.3c-0.5,0-0.8,0.4-0.8,0.8v3.3c0,0.5,0.4,0.8,0.8,0.8h1.3
		c0.5,0,0.8-0.4,0.8-0.8V32.8z"/>
</g>
<g id="XMLID_4_">
	<g id="XMLID_51_">
		<path id="XMLID_52_" class="st10" d="M42.3,43h19.4l3.5-5H72c0.5,0,0.8-0.5,0.8-1c0-0.5-0.4-1-0.8-1h-7.7l-3.5,6H43.1l-5.8-7h-7.5
			c-0.5,0-0.8,0.5-0.8,1c0,0.5,0.4,1,0.8,1h6.8L42.3,43z"/>
	</g>
	<g id="XMLID_5_">
		<rect id="XMLID_50_" x="54" y="42" class="st5" width="2" height="16"/>
		<rect id="XMLID_49_" x="48" y="57" class="st0" width="6" height="1"/>
		<rect id="XMLID_9_" x="48" y="52" class="st0" width="6" height="1"/>
		<rect id="XMLID_8_" x="48" y="47" class="st0" width="6" height="1"/>
		<rect id="XMLID_7_" x="48" y="42" class="st0" width="6" height="1"/>
		<rect id="XMLID_6_" x="46" y="42" class="st5" width="2" height="16"/>
	</g>
</g>
<path id="XMLID_3_" class="st5" d="M131.2,64l-14.5-24.2l-3.4,2c0,0-12.7,8.6-12,16C102.2,65.1,117.7,65.5,131.2,64z"/>
<line id="XMLID_2_" class="st16" x1="114" y1="41.5" x2="127.5" y2="63.9"/>
<path id="XMLID_1_" class="st0" d="M134.7,65c0,0-17.8,0-20.8,0c-10.9,0-13.5-3.9-13.5-8.1c0-8.8,21.6-22.4,18.6-20.6V39
	c0,0-5.3,4-12,10.1c-7.6,6.9-3.4,14,3.7,14c8,0,22.6,0,22.6,0L134.7,65z"/>
</svg>
