<!-- Generator: Adobe Illustrator 19.0.0, SVG Export Plug-In  -->
<svg version="1.1"
	 xmlns="http://www.w3.org/2000/svg" xmlns:xlink="http://www.w3.org/1999/xlink" xmlns:a="http://ns.adobe.com/AdobeSVGViewerExtensions/3.0/"
	 x="0px" y="0px" width="33.7px" height="33.7px" viewBox="0 0 33.7 33.7" style="enable-background:new 0 0 33.7 33.7;"
	 xml:space="preserve">
<style type="text/css">
	.st0{fill-rule:evenodd;clip-rule:evenodd;fill:#374F4E;}
	.st1{fill-rule:evenodd;clip-rule:evenodd;fill:#B9D6D4;}
	.st2{fill-rule:evenodd;clip-rule:evenodd;fill:#FFFFFF;}
</style>
<defs>
</defs>
<g>
	<path class="st0" d="M19.5,1.8c0.9,0.2,1.7,0.4,2.6,0.7L22.6,1c0.9,0.3,1.8,0.8,2.7,1.2l-0.8,1.3c0.8,0.4,1.5,1,2.2,1.5l1-1.2
		c0.8,0.6,1.4,1.3,2.1,2.1l-1.2,1c0.6,0.7,1.1,1.4,1.5,2.2l1.3-0.8c0.5,0.8,0.9,1.7,1.2,2.7l-1.4,0.5c0.3,0.8,0.5,1.7,0.7,2.6
		l1.5-0.4c0.2,0.9,0.3,1.8,0.3,2.8l0,0h-1.5c0,1-0.1,1.9-0.2,2.8l1.5,0.3c-0.2,1-0.4,2-0.8,2.9l-1.4-0.5c-0.3,0.8-0.7,1.7-1.1,2.4
		l1.3,0.8c-0.5,0.9-1.1,1.7-1.7,2.4l-1.2-1c-0.6,0.7-1.2,1.3-1.9,1.9l1,1.2c-0.7,0.6-1.6,1.2-2.4,1.7l-0.8-1.3
		c-0.8,0.4-1.6,0.8-2.4,1.1l0.5,1.4c-0.9,0.3-1.9,0.6-2.8,0.8l-0.4-1.5c-0.9,0.2-1.8,0.2-2.8,0.2v1.5c-1,0-1.8-0.1-2.7-0.3l0.4-1.5
		c-0.9-0.2-1.7-0.4-2.5-0.7l-0.5,1.4c-0.9-0.3-1.8-0.8-2.6-1.2l0.8-1.3c-0.8-0.4-1.5-1-2.2-1.5l-1,1.2c-0.8-0.6-1.4-1.3-2.1-2.1
		l1.2-1C4.5,26,4,25.3,3.6,24.5l-1.3,0.8c-0.5-0.8-0.9-1.7-1.2-2.7l1.4-0.5c-0.3-0.8-0.5-1.7-0.7-2.6l-1.5,0.2c-0.2-0.9-0.3-2-0.3-3
		l0,0h1.5c0-1,0.1-1.7,0.2-2.5l-1.5-0.2C0.4,12.9,0.7,12,1,11l1.4,0.5c0.3-0.8,0.7-1.6,1.1-2.4L2.3,8.4C2.7,7.6,3.3,6.8,3.9,6l1.2,1
		C5.7,6.3,6.3,5.7,7,5.1L6,3.9c0.7-0.6,1.6-1.2,2.4-1.7l0.8,1.3c0.8-0.4,1.6-0.8,2.4-1.1L11.1,1c0.9-0.3,1.9-0.6,2.8-0.8L14,1.8
		c0.9-0.2,1.5-0.2,2.5-0.2V0c1,0,2.1,0.1,3.1,0.3L19.5,1.8z"/>
	<g>
		<path class="st1" d="M16.5,20.4c2,0,3.6-1.6,3.6-3.6c0-2-1.6-3.6-3.6-3.6S13,14.9,13,16.8C13,18.8,14.6,20.4,16.5,20.4z"/>
		<circle class="st2" cx="16.5" cy="16.8" r="1.1"/>
	</g>
</g>
</svg>
