<!-- Generator: Adobe Illustrator 19.0.0, SVG Export Plug-In  -->
<svg version="1.1"
	 xmlns="http://www.w3.org/2000/svg" xmlns:xlink="http://www.w3.org/1999/xlink" xmlns:a="http://ns.adobe.com/AdobeSVGViewerExtensions/3.0/"
	 x="0px" y="0px" width="57.5px" height="57.5px" viewBox="0 0 57.5 57.5" style="enable-background:new 0 0 57.5 57.5;"
	 xml:space="preserve">
<style type="text/css">
	.st0{fill-rule:evenodd;clip-rule:evenodd;fill:#539493;}
</style>
<defs>
</defs>
<path class="st0" d="M33.3,3c1.5,0.3,3,0.7,4.4,1.2l0.9-2.5c1.6,0.6,3.1,1.3,4.5,2.1l-1.3,2.3c1.3,0.8,2.6,1.6,3.7,2.6l1.7-2
	c1.3,1.1,2.5,2.3,3.5,3.5l-2,1.7c1,1.2,1.9,2.4,2.6,3.7l2.3-1.3c0.8,1.4,1.5,3,2.1,4.5l-2.5,0.9c0.5,1.4,0.9,2.9,1.2,4.4l2.6-0.6
	c0.3,1.6,0.4,3.9,0.4,4.9l0,0h-2.6c0,2-0.1,3.2-0.4,4.7l2.6,0.5c-0.3,1.7-0.7,3.3-1.3,4.9l-2.5-0.9c-0.5,1.4-1.2,2.8-1.9,4.1
	l2.3,1.3c-0.8,1.5-1.8,2.8-2.9,4.1l-2-1.7c-1,1.2-2.1,2.2-3.2,3.2l1.7,2c-1.3,1.1-2.7,2-4.1,2.9l-1.3-2.3c-1.3,0.8-2.7,1.4-4.1,1.9
	l0.9,2.5c-1.6,0.6-3.2,1-4.8,1.3l-0.6-2.6c-1.5,0.3-2.7,0.4-4.7,0.4v2.6c-1,0-3.2-0.1-4.8-0.4l0.5-2.6c-1.5-0.3-2.9-0.7-4.4-1.2
	l-0.9,2.5c-1.6-0.6-3.1-1.3-4.5-2.1l1.3-2.3c-1.3-0.8-2.6-1.6-3.7-2.6l-1.7,2c-1.3-1.1-2.5-2.3-3.5-3.5l2-1.7
	c-1-1.2-1.9-2.4-2.6-3.7l-2.3,1.3c-0.8-1.4-1.5-3-2.1-4.5l2.5-0.9c-0.5-1.4-0.9-2.9-1.2-4.4l-2.6,0.3C0.1,32,0,30.5,0,28.5l0,0h2.6
	c0-1,0.1-3,0.4-4.4l-2.6-0.4c0.3-1.7,0.7-3.3,1.3-4.8l2.5,0.9c0.5-1.4,1.2-2.8,1.9-4.1l-2.3-1.3c0.8-1.5,1.8-2.8,2.9-4.1l2,1.7
	c1-1.2,2.1-2.2,3.2-3.2l-1.7-2c1.3-1.1,2.7-2,4.1-2.9l1.3,2.3c1.3-0.8,2.7-1.4,4.1-1.9l-0.9-2.5c1.6-0.6,3.2-1,4.8-1.3L24.1,3
	c1.5-0.3,3.4-0.4,4.4-0.4V0c2,0,3.5,0.1,5.2,0.4L33.3,3z"/>
</svg>
