<!-- Generator: Adobe Illustrator 19.0.0, SVG Export Plug-In  -->
<svg version="1.1"
	 xmlns="http://www.w3.org/2000/svg" xmlns:xlink="http://www.w3.org/1999/xlink" xmlns:a="http://ns.adobe.com/AdobeSVGViewerExtensions/3.0/"
	 x="0px" y="0px" width="18.7px" height="18.7px" viewBox="0 0 18.7 18.7" style="enable-background:new 0 0 18.7 18.7;"
	 xml:space="preserve">
<style type="text/css">
	.st0{fill-rule:evenodd;clip-rule:evenodd;fill:#539493;}
	.st1{fill-rule:evenodd;clip-rule:evenodd;fill:#374F4E;}
	.st2{fill-rule:evenodd;clip-rule:evenodd;fill:#FFFFFF;}
</style>
<defs>
</defs>
<path class="st0" d="M7.9,0.9C7.4,1,6.9,1.1,6.4,1.3L6.1,0.6C5.6,0.7,5.1,1,4.7,1.3l0.4,0.7C4.6,2.2,4.2,2.5,3.8,2.8L3.3,2.2
	C2.9,2.5,2.5,2.9,2.2,3.3l0.6,0.5C2.5,4.2,2.2,4.6,1.9,5.1L1.3,4.7C1,5.1,0.7,5.6,0.6,6.1l0.7,0.3C1.1,6.9,1,7.4,0.9,7.9L0.1,8
	C0,8.6,0,9,0,10l0,0h0.8c0,0,0,0.7,0.1,1.2l-0.8,0c0.1,0.5,0.2,1,0.4,1.5l0.7-0.3c0.2,0.5,0.4,0.9,0.6,1.3L1.3,14
	c0.3,0.5,0.6,0.9,0.9,1.3l0.6-0.5c0.3,0.4,0.7,0.7,1.1,1.1l-0.5,0.6c0.4,0.3,0.9,0.7,1.3,0.9l0.4-0.7c0.4,0.2,0.9,0.5,1.3,0.6
	l-0.3,0.7c0.5,0.2,1,0.3,1.6,0.4l-0.3-0.8c0.5,0.1,1,0.1,1,0.1v0.8c1,0,1.6,0,2.1-0.1l0.1-0.8c0.5-0.1,1.1-0.2,1.6-0.4l0.3,0.7
	c0.5-0.2,1-0.4,1.5-0.7l-0.4-0.7c0.4-0.2,0.8-0.5,1.2-0.9l0.5,0.6c0.4-0.3,0.8-0.7,1.2-1.2l-0.6-0.5c0.3-0.4,0.6-0.8,0.9-1.2
	l0.7,0.4c0.3-0.5,0.5-1,0.7-1.5l-0.7-0.3c0.2-0.5,0.3-0.9,0.4-1.4l0.8,0.4c0.1-0.5,0.1-1.3,0.1-1.3l0,0h-0.8c0-1,0-1.3-0.1-1.8
	l0.8-0.3c-0.1-0.5-0.2-1.1-0.4-1.7l-0.7,0.2C17.2,6,17,5.5,16.7,5.1l0.7-0.4c-0.3-0.5-0.6-0.9-0.9-1.3l-0.6,0.5
	c-0.3-0.4-0.7-0.7-1.1-1.1l0.5-0.6c-0.4-0.3-0.9-0.7-1.3-0.9l-0.4,0.7c-0.4-0.2-0.9-0.5-1.3-0.6l0.3-0.7c-0.5-0.2-1-0.3-1.6-0.4
	l-0.6,0.8C9.9,0.8,9.4,0.8,8.4,0.8V0c0,0-0.6,0-1.2,0.1L7.9,0.9z"/>
<g>
	<path class="st1" d="M9.5,12.7c2,0,3.6-1.6,3.6-3.6c0-2-1.6-3.6-3.6-3.6S5.9,7.2,5.9,9.2C5.9,11.1,7.5,12.7,9.5,12.7z"/>
	<circle class="st2" cx="9.5" cy="9.2" r="1.1"/>
</g>
</svg>
