<!-- Generator: Adobe Illustrator 19.0.0, SVG Export Plug-In  -->
<svg version="1.1"
	 xmlns="http://www.w3.org/2000/svg" xmlns:xlink="http://www.w3.org/1999/xlink" xmlns:a="http://ns.adobe.com/AdobeSVGViewerExtensions/3.0/"
	 x="0px" y="0px" width="30px" height="30px" viewBox="0 0 30 30" style="enable-background:new 0 0 30 30;" xml:space="preserve">
<style type="text/css">
	.st0{fill-rule:evenodd;clip-rule:evenodd;fill:#539493;}
	.st1{fill-rule:evenodd;clip-rule:evenodd;fill:#374F4E;}
	.st2{fill-rule:evenodd;clip-rule:evenodd;fill:#B9D6D4;}
	.st3{fill-rule:evenodd;clip-rule:evenodd;fill:#FFFFFF;}
</style>
<defs>
</defs>
<path class="st0" d="M12.6,1.5c-0.8,0.1-1.6,0.3-2.3,0.6L9.9,0.9C9,1.2,8.2,1.6,7.5,2l0.6,1.1C7.4,3.5,6.8,4,6.2,4.5l-0.8-1
	C4.7,4.1,4.1,4.7,3.5,5.4l1,0.8c-0.5,0.6-1,1.3-1.4,2L2,7.5C1.6,8.2,1.2,9,0.9,9.9l1.2,0.4c-0.3,0.7-0.5,1.5-0.6,2.3l-1.3,0
	C0.1,13.4,0,14.4,0,15.4l0,0h1.3c0,0,0.1,1.4,0.2,2.2l-1.3,0.1c0.2,0.9,0.4,1.7,0.7,2.5l1.2-0.5c0.3,0.8,0.6,1.5,1,2.2L2,22.5
	c0.4,0.8,0.9,1.5,1.5,2.1l1-0.8C5,24.4,5.6,25,6.2,25.5l-0.8,1C6,27.1,6.7,27.6,7.5,28l0.6-1.1c0.7,0.4,1.4,0.7,2.2,1l-0.4,1.2
	c0.8,0.3,1.7,0.5,2.5,0.7l0.3-1.3c0.8,0.1,1.4,0.2,2.4,0.2V30c1,0,1.7-0.1,2.6-0.2l-0.2-1.3c0.8-0.1,1.6-0.3,2.3-0.6l0.4,1.2
	c0.8-0.3,1.6-0.7,2.4-1.1l-0.6-1.1c0.7-0.4,1.3-0.9,2-1.4l0.8,1c0.7-0.6,1.3-1.2,1.8-1.8l-1-0.8c0.5-0.6,1-1.3,1.4-2l1.1,0.6
	c0.4-0.8,0.8-1.5,1.1-2.4l-1.2-0.4c0.3-0.7,0.5-1.5,0.6-2.3l1.3,0.4c0.1-0.8,0.2-2.4,0.2-2.4l0,0h-1.3c0-1-0.1-1.8-0.2-2.6l1.3-0.3
	c-0.2-0.9-0.4-1.8-0.7-2.6l-1.2,0.4c-0.3-0.8-0.6-1.5-1-2.2L28,7.5C27.6,6.7,27,6,26.5,5.4l-1,0.8C25,5.6,24.4,5,23.8,4.5l0.8-1
	C24,3,23.3,2.4,22.5,2l-0.6,1.1c-0.7-0.4-1.4-0.7-2.2-1l0.4-1.2c-0.8-0.3-1.7-0.5-2.5-0.7l-0.2,1.3c-0.8-0.1-1.4-0.2-2.4-0.2V0
	c-1,0-1.8,0.1-2.6,0.2L12.6,1.5z"/>
<circle class="st1" cx="15" cy="15" r="9"/>
<path class="st2" d="M15,18.6c2,0,3.6-1.6,3.6-3.6c0-2-1.6-3.6-3.6-3.6S11.4,13,11.4,15C11.4,17,13,18.6,15,18.6z"/>
<circle class="st3" cx="15" cy="15" r="1.1"/>
</svg>
