<!-- Generator: Adobe Illustrator 19.0.0, SVG Export Plug-In  -->
<svg version="1.1"
	 xmlns="http://www.w3.org/2000/svg" xmlns:xlink="http://www.w3.org/1999/xlink" xmlns:a="http://ns.adobe.com/AdobeSVGViewerExtensions/3.0/"
	 x="0px" y="0px" width="83px" height="45px" viewBox="0 0 83 45" style="enable-background:new 0 0 83 45;" xml:space="preserve">
<style type="text/css">
	.st0{fill:#23648B;}
	.st1{fill:#EABEA7;}
	.st2{fill:#B1C4CE;}
	.st3{fill:#FFFFFF;}
	.st4{fill:#11354B;}
	.st5{fill:#E72B48;}
	.st6{opacity:0.5;fill:#B1C4CE;}
	.st7{fill:#901F2A;}
	.st8{fill:#F28F63;}
</style>
<defs>
</defs>
<g>
	<polygon class="st0" points="7,41 0,41 0,6 8,6 8,9 3,9 3,38 7,38 	"/>
	<g>
		<path class="st1" d="M80.1,0H8.9C7.3,0,6,1.3,6,2.9v39.2C6,43.7,7.3,45,8.9,45h71.2c1.6,0,2.9-1.3,2.9-2.9V2.9
			C83,1.3,81.7,0,80.1,0z M78,15.9c0,1.2-0.9,2.1-2.1,2.1H28.1c-1.2,0-2.1-0.9-2.1-2.1V7.1C26,5.9,26.9,5,28.1,5h47.8
			C77.1,5,78,5.9,78,7.1V15.9z"/>
		<circle class="st2" cx="73.5" cy="39.2" r="2.1"/>
		<circle class="st3" cx="65.1" cy="39.2" r="2.1"/>
		<circle class="st4" cx="47.2" cy="39.2" r="2.1"/>
		<circle class="st5" cx="56.7" cy="39.2" r="2.1"/>
		<path class="st6" d="M79,15.9c0,1.7-1.4,3.1-3.1,3.1H28.1c-1.7,0-3.1-1.4-3.1-3.1V7.1C25,5.4,26.4,4,28.1,4h47.9
			C77.6,4,79,5.4,79,7.1V15.9z"/>
		<path class="st4" d="M76,3H28c-2.2,0-4,1.8-4,4V16c0,2.2,1.8,4,4,4H76c2.2,0,4-1.8,4-4V7C80,4.8,78.2,3,76,3z M78,15.9
			c0,1.2-0.9,2.1-2.1,2.1H28.1c-1.2,0-2.1-0.9-2.1-2.1V7.1C26,5.9,26.9,5,28.1,5h47.8C77.1,5,78,5.9,78,7.1V15.9z"/>
		<circle class="st3" cx="16.1" cy="35.3" r="3.7"/>
		<path class="st3" d="M17,35.5c0,0.8-0.7,1.5-1.5,1.5l0,0c-0.8,0-1.5-0.7-1.5-1.5v-22c0-0.8,0.7-1.5,1.5-1.5l0,0
			c0.8,0,1.5,0.7,1.5,1.5V35.5z"/>
		<path class="st7" d="M17,32.7V16.3c0-0.4-0.6-0.8-1-0.8c-0.4,0-1,0.4-1,0.8v16.4c-1,0.3-1.4,1.1-1.4,2.1c0,1.2,1.1,2.2,2.3,2.2
			c1.2,0,2.3-1,2.3-2.2C18.2,33.8,18,33.1,17,32.7z"/>
		<rect x="11" y="13" class="st8" width="2" height="1"/>
		<rect x="10.9" y="16.8" class="st8" width="1.2" height="0.5"/>
		<rect x="11" y="20" class="st8" width="2" height="1"/>
		<rect x="10.9" y="22" class="st8" width="1.2" height="0.5"/>
		<rect x="11" y="24" class="st8" width="2" height="0"/>
		<rect x="11" y="25" class="st8" width="2" height="1"/>
		<rect x="10.9" y="27.2" class="st8" width="1.2" height="0.5"/>
	</g>
</g>
</svg>
