<!-- Generator: Adobe Illustrator 19.0.0, SVG Export Plug-In  -->
<svg version="1.1"
	 xmlns="http://www.w3.org/2000/svg" xmlns:xlink="http://www.w3.org/1999/xlink" xmlns:a="http://ns.adobe.com/AdobeSVGViewerExtensions/3.0/"
	 x="0px" y="0px" width="35.3px" height="478.2px" viewBox="0 0 35.3 478.2" style="enable-background:new 0 0 35.3 478.2;"
	 xml:space="preserve">
<style type="text/css">
	.st0{fill:#0071BC;}
	.st1{fill:none;stroke:#0071BC;stroke-width:1.5;stroke-miterlimit:10;}
</style>
<defs>
</defs>
<g>
	<g>
		<path class="st0" d="M31.5,466.4c0,1-0.8,1.8-1.8,1.8c-1,0-1.8-0.8-1.8-1.8c0-1,0.8-1.8,1.8-1.8C30.8,464.6,31.5,465.4,31.5,466.4
			z"/>
		<g>
			<path class="st0" d="M35.3,468.7v4.5c0,2.7-2.2,5-5,5c-2.7,0-5-2.2-5-5v-4.5c0-0.1,0-0.3,0-0.4l-7.8-8.2l-7.8,8.2
				c0,0.1,0,0.2,0,0.4v4.5c0,2.7-2.2,5-5,5c-2.7,0-5-2.2-5-5v-4.5c0-0.9,0.3-1.8,0.9-2.7c0.2-0.6,0.4-1.2,0.9-1.7l11.5-12.2v-5.4
				H9.8v-4.9h15.6v4.9H22v5.4l11.5,12.2c0.5,0.5,0.7,1.1,0.9,1.7C35,466.9,35.3,467.8,35.3,468.7z M34,473.2v-3.8
				c-0.2,0.4-0.4,0.7-0.8,1c-0.8,0.7-1.8,1.1-2.9,1.1c-1.2,0-2.4-0.5-3.2-1.4l-0.3-0.4l0,3.5c0,2,1.6,3.6,3.6,3.6S34,475.2,34,473.2
				z M32.3,469.4c0.9-0.8,1.1-1.9,0.9-3l0,0c-0.1-0.5-0.3-0.9-0.6-1.3c0,0,0,0,0,0l-10.7-11.3v0.4c0,0.7-0.2,1.4-0.5,1.9
				c-0.1,0.1-0.1,0.2-0.2,0.3c-0.3,0.5-0.8,1-1.3,1.3c0,0,0,0-0.1,0.1l-1.2,1.3l8.3,8.8v0l1.2,1.3C29.1,470.4,31.1,470.5,32.3,469.4
				z M24,445.4v-2.2H11.1v2.2h2.2h0.2h8.4H22H24z M20.5,454.2v-7.5h-5.8v7.5c0,1,0.6,2,1.5,2.5l0.1,0.1l0.1,0.1
				c0.3,0.1,0.6,0.2,1,0.2c0.5,0,1-0.2,1.4-0.4l0,0c0.4-0.3,0.8-0.6,1-1c0,0,0.1-0.1,0.1-0.1C20.4,455.2,20.5,454.7,20.5,454.2z
				 M16.7,459.1l-1-1c-1.5-0.7-2.5-2.2-2.5-3.9V454L2.8,465.2c-0.3,0.3-0.5,0.7-0.6,1.3l0,0c-0.2,1,0,2.2,0.9,2.9
				c0.6,0.5,1.3,0.8,2,0.8c0.9,0,1.7-0.4,2.2-1l1.2-1.3v0L16.7,459.1z M8.6,473.2v-3.5l-0.4,0.4c-0.8,0.9-2,1.4-3.2,1.4
				c-1.1,0-2.1-0.4-2.9-1.1c-0.3-0.3-0.6-0.7-0.8-1v3.8c0,2,1.6,3.6,3.6,3.6S8.6,475.2,8.6,473.2z"/>
			<path class="st0" d="M25.4,434.2v-4.9H9.8v4.9h2.7v2.2H9.8v4.9h15.6v-4.9h-2.7v-2.2H25.4z M24,437.7v2.2H11.1v-2.2H24z
				 M13.8,436.4v-2.2h7.5v2.2H13.8z M11.1,432.9v-2.2H24v2.2H11.1z"/>
			<path class="st0" d="M17.5,451.3c1,0,1.8,0.8,1.8,1.8c0,1-0.8,1.8-1.8,1.8c-1,0-1.8-0.8-1.8-1.8
				C15.7,452.1,16.5,451.3,17.5,451.3z"/>
		</g>
		<path class="st0" d="M5.5,464.6c1,0,1.8,0.8,1.8,1.8c0,1-0.8,1.8-1.8,1.8c-1,0-1.8-0.8-1.8-1.8C3.7,465.4,4.5,464.6,5.5,464.6z"/>
	</g>
	<line class="st1" x1="13.1" y1="430" x2="13.1" y2="0"/>
	<line class="st1" x1="21.4" y1="430" x2="21.4" y2="0"/>
</g>
</svg>
