<!-- Generator: Adobe Illustrator 19.0.0, SVG Export Plug-In  -->
<svg version="1.1"
	 xmlns="http://www.w3.org/2000/svg" xmlns:xlink="http://www.w3.org/1999/xlink" xmlns:a="http://ns.adobe.com/AdobeSVGViewerExtensions/3.0/"
	 x="0px" y="0px" width="47px" height="74px" viewBox="0 0 47 74" style="enable-background:new 0 0 47 74;" xml:space="preserve">
<style type="text/css">
	
		.st0{fill-rule:evenodd;clip-rule:evenodd;fill:none;stroke:#D3EBEB;stroke-width:6;stroke-linecap:round;stroke-linejoin:round;stroke-miterlimit:22.9256;}
	.st1{fill-rule:evenodd;clip-rule:evenodd;fill:#539493;}
	.st2{fill-rule:evenodd;clip-rule:evenodd;fill:#FFEADE;}
</style>
<defs>
</defs>
<g>
	<rect x="3" y="3" class="st0" width="41" height="68"/>
	<path class="st1" d="M3,71h41V3H3V71z"/>
</g>
<path class="st2" d="M11.6,15.1c1.7,0,3.2-1.4,3.2-3.2c0-1.7-1.4-3.2-3.2-3.2c-1.7,0-3.2,1.4-3.2,3.2C8.4,13.7,9.8,15.1,11.6,15.1z"
	/>
<path class="st2" d="M23.3,15.1c1.7,0,3.2-1.4,3.2-3.2c0-1.7-1.4-3.2-3.2-3.2c-1.7,0-3.2,1.4-3.2,3.2C20.1,13.7,21.6,15.1,23.3,15.1
	z"/>
<path class="st2" d="M35,15.1c1.7,0,3.2-1.4,3.2-3.2c0-1.7-1.4-3.2-3.2-3.2c-1.7,0-3.2,1.4-3.2,3.2C31.9,13.7,33.3,15.1,35,15.1z"/>
</svg>
