<!-- Generator: Adobe Illustrator 19.0.0, SVG Export Plug-In  -->
<svg version="1.1"
	 xmlns="http://www.w3.org/2000/svg" xmlns:xlink="http://www.w3.org/1999/xlink" xmlns:a="http://ns.adobe.com/AdobeSVGViewerExtensions/3.0/"
	 x="0px" y="0px" width="14.5px" height="14.5px" viewBox="0 0 14.5 14.5" style="enable-background:new 0 0 14.5 14.5;"
	 xml:space="preserve">
<style type="text/css">
	.st0{fill:#F9BD38;}
</style>
<defs>
</defs>
<g>
	<path class="st0" d="M13.6,11l0.9-2.2l-1.3-0.5c0.1-0.8,0.1-1.6-0.1-2.4l1.3-0.6l-0.9-2.1l-1.4,0.6c-0.4-0.6-1-1.2-1.7-1.6L11,0.9
		L8.9,0L8.3,1.4C7.5,1.3,6.8,1.3,6,1.5L5.4,0L3.3,1l0.6,1.4C3.2,2.8,2.6,3.3,2.2,4L0.9,3.5L0,5.6l1.3,0.5c-0.2,0.8-0.2,1.7,0,2.5
		L0,9.1L1,11.2l1.1-0.5c0.5,0.7,1.1,1.3,1.8,1.8l-0.4,1.1l2.2,0.9L6,13.4c0.9,0.2,1.7,0.1,2.6-0.1l0.5,1.1l2.1-0.9l-0.5-1.1
		c0.7-0.5,1.3-1.1,1.7-1.8L13.6,11z M6.7,8.8C5.9,8.5,5.5,7.6,5.8,6.9C6.1,6.1,7,5.7,7.8,6C8.5,6.3,8.9,7.2,8.6,8
		C8.3,8.7,7.4,9.1,6.7,8.8z"/>
</g>
</svg>
