<!-- Generator: Adobe Illustrator 19.0.0, SVG Export Plug-In  -->
<svg version="1.1"
	 xmlns="http://www.w3.org/2000/svg" xmlns:xlink="http://www.w3.org/1999/xlink" xmlns:a="http://ns.adobe.com/AdobeSVGViewerExtensions/3.0/"
	 x="0px" y="0px" width="72px" height="266.4px" viewBox="0 0 72 266.4" style="enable-background:new 0 0 72 266.4;"
	 xml:space="preserve">
<style type="text/css">
	.st0{fill:#0071BC;}
	.st1{fill:none;stroke:#0071BC;stroke-width:1.5;stroke-miterlimit:10;}
	.st2{fill:#F6A300;}
	.st3{fill:#FF7A00;}
	.st4{fill:#454C53;}
	.st5{fill:none;stroke:#454C53;stroke-miterlimit:10;}
	.st6{font-family:'Avenir-Black';}
	.st7{font-size:8.7265px;}
</style>
<defs>
</defs>
<path class="st0" d="M46.7,184.8v-6.2h-20v6.2h3.5v2.8h-3.5v6.2h20v-6.2h-3.5v-2.8H46.7z M45,189.3v2.8H28.4v-2.8H45z M31.9,187.6
	v-2.8h9.6v2.8H31.9z M28.4,183v-2.8H45v2.8H28.4z"/>
<line class="st1" x1="31.9" y1="0" x2="31.9" y2="178.5"/>
<line class="st1" x1="41.5" y1="0" x2="41.5" y2="178.5"/>
<g>
	<rect y="194.4" class="st2" width="72" height="72"/>
	<rect y="194.4" class="st3" width="72" height="35"/>
	<g>
		<path class="st4" d="M26.7,256.6c0-0.1,0-0.1,0-0.2c0,0,0,0,0,0c0-0.2,0-0.3-0.1-0.5c-0.1-0.4-0.2-0.9-0.5-1.3
			c-0.5-0.8-1.3-1.3-2.1-1.5c-0.9-0.2-1.8,0-2.5,0.4c-0.2,0.2-0.5,0.4-0.7,0.6c-0.4,0.4-0.7,1-0.8,1.6c0,0,0,0,0,0.1
			c-0.1,0.3-0.1,0.6-0.1,0.9c0,0,0,0,0,0H26.7z"/>
		<path class="st5" d="M23.5,254.8l0.1,4.4c0,0.7-1.2,1-1.2,0"/>
		<path class="st5" d="M27.5,261.6c0,0.1-0.1,0.3-0.3,0.3h-9.5c-0.1,0-0.3-0.1-0.3-0.3v-9.5c0-0.1,0.1-0.3,0.3-0.3h9.5
			c0.1,0,0.3,0.1,0.3,0.3V261.6z"/>
	</g>
	<text transform="matrix(1 0 0 1 6.0704 231.2668)" class="st4 st6 st7">#innoiscoming</text>
	<g>
		<path class="st5" d="M14.5,261.6c0,0.1-0.1,0.3-0.3,0.3H4.8c-0.1,0-0.3-0.1-0.3-0.3v-9.5c0-0.1,0.1-0.3,0.3-0.3h9.5
			c0.1,0,0.3,0.1,0.3,0.3V261.6z"/>
		<g>
			<path id="XMLID_3_" class="st4" d="M9.4,254.8c0.1-0.1,0.1-0.2,0.2-0.3c0.1-0.1,0.2-0.2,0.3-0.3c0.3,0,0.7,0,1.1,0
				c0.2,0,0.3,0,0.5,0c-0.1,0.1-0.3,0.2-0.4,0.3c-0.1,0.1-0.2,0.1-0.2,0.2c-0.2,0-0.5,0-0.7,0C9.9,254.7,9.6,254.8,9.4,254.8z"/>
			<path id="XMLID_2_" class="st4" d="M8.5,255.3c0.5-0.1,0.9-0.2,1.2-0.2c0.7-0.1,1.4,0,1.7,0.1c0.3,0,0.7,0.1,1.2,0.1
				c0.2,0,0.4,0,0.8-0.1c0.2,0,0.3-0.1,0.4-0.1c-0.3,0.5-0.6,0.8-0.8,1.1c-0.4,0.5-0.5,0.7-0.6,0.8c-0.1,0.1-0.4,0.4-0.9,0.8
				c-0.8,0.6-1.6,0.8-1.9,0.8c-0.9,0.2-1.5,0.1-2.1,0.1c-0.5,0-1-0.1-1.1-0.2c-0.4-0.1-0.7-0.1-0.9-0.2c0.1-0.3,0.3-0.7,0.6-1.2
				c0-0.1,0.3-0.4,0.6-0.7c0.9-0.7,2-0.9,2.4-1c0,0.1-0.1,0.2-0.2,0.2c-0.3,0.1-0.6,0.1-1,0.3c-0.3,0.1-0.8,0.3-1.3,0.8
				c-0.2,0.2-0.4,0.4-0.6,0.7c-0.1,0.3-0.2,0.5-0.3,0.7c0.2,0,0.4,0.1,0.7,0.1c0.7,0.1,1.2,0.1,1.4,0.1c0.2,0,0.5,0,0.9,0
				c0.2,0,0.8-0.1,1.3-0.2c1.4-0.4,2.2-1.4,2.5-1.7c0.3-0.4,0.5-0.7,0.6-0.9c-0.4,0-0.7,0-0.9,0c-0.3,0-0.4-0.1-0.9-0.1
				c-0.1,0-0.3,0-0.6-0.1c-0.4-0.1-0.5-0.1-0.6-0.1c-0.2,0-0.3,0-0.5,0c-0.1,0-0.3,0-0.5,0C8.8,255.2,8.7,255.2,8.5,255.3z"/>
			<path id="XMLID_1_" class="st4" d="M10.3,255.3c-0.3,0.2-0.5,0.4-0.6,0.6c-0.3,0.3-0.5,0.6-0.5,0.7c-0.1,0.2-0.2,0.4-0.2,0.6
				c0,0.2,0,0.3,0.1,0.4c0,0,0.1,0.2,0.3,0.2c0.2,0,0.3-0.1,0.4-0.3c0.1-0.1,0.2-0.3,0.3-0.5c0,0.2-0.1,0.6-0.4,0.9
				c-0.1,0.1-0.2,0.2-0.3,0.2c-0.2,0.1-0.4,0-0.5,0c-0.2-0.1-0.4-0.2-0.4-0.3c0-0.1-0.1-0.2-0.1-0.5c0-0.1,0-0.4,0.2-0.9
				c0.1-0.2,0.2-0.6,0.5-0.9c0.2,0,0.4-0.1,0.6-0.1C9.8,255.3,10.1,255.3,10.3,255.3z"/>
		</g>
	</g>
</g>
</svg>
