<!-- Generator: Adobe Illustrator 19.0.0, SVG Export Plug-In  -->
<svg version="1.1"
	 xmlns="http://www.w3.org/2000/svg" xmlns:xlink="http://www.w3.org/1999/xlink" xmlns:a="http://ns.adobe.com/AdobeSVGViewerExtensions/3.0/"
	 x="0px" y="0px" width="36px" height="36px" viewBox="0 0 36 36" style="enable-background:new 0 0 36 36;" xml:space="preserve">
<style type="text/css">
	
		.st0{fill-rule:evenodd;clip-rule:evenodd;fill:none;stroke:#D3EBEB;stroke-width:6;stroke-linecap:round;stroke-linejoin:round;stroke-miterlimit:22.9256;}
</style>
<defs>
</defs>
<path class="st0" d="M15.6,4.5c-0.8,0.1-1.6,0.3-2.3,0.6l-0.4-1.2C12,4.2,11.2,4.6,10.5,5l0.6,1.1c-0.7,0.4-1.3,0.9-2,1.4l-0.8-1
	C7.7,7.1,7.1,7.7,6.5,8.4l1,0.8c-0.5,0.6-1,1.3-1.4,2L5,10.5c-0.4,0.8-0.8,1.5-1.1,2.4l1.2,0.4c-0.3,0.7-0.5,1.5-0.6,2.3l-1.3-0.4
	C3.1,16.1,3,16.7,3,17.7l0,0h1.3c0,1,0.1,1.8,0.2,2.5l-1.3,0.3c0.2,0.9,0.4,1.8,0.7,2.6l1.2-0.4c0.3,0.8,0.6,1.5,1,2.2L5,25.5
	c0.4,0.8,0.9,1.5,1.5,2.1l1-0.8C8,27.4,8.6,28,9.2,28.5l-0.8,1C9,30,9.7,30.6,10.5,31l0.6-1.1c0.7,0.4,1.4,0.7,2.2,1l-0.4,1.2
	c0.8,0.3,1.7,0.5,2.5,0.7l0.1-1.3c0.8,0.1,1.3,0.2,2.3,0.2V33c1,0,1.9-0.1,2.7-0.2l-0.2-1.3c0.8-0.1,1.6-0.3,2.3-0.6l0.5,1.2
	c0.8-0.3,1.6-0.7,2.4-1.1l-0.6-1.1c0.7-0.4,1.4-0.9,2-1.4l0.8,1c0.7-0.6,1.3-1.2,1.8-1.8l-1-0.8c0.5-0.6,1-1.3,1.4-2l1.1,0.6
	c0.4-0.8,0.8-1.5,1.1-2.4l-1.2-0.4c0.3-0.7,0.5-1.5,0.6-2.3l1.3,0.1c0.1-0.8,0.2-1.8,0.2-2.8l0,0h-1.3c0-1-0.1-1.5-0.2-2.2l1.3-0.1
	c-0.2-0.9-0.4-1.7-0.7-2.5l-1.2,0.5c-0.3-0.8-0.6-1.5-1-2.2l1.1-0.6C30.6,9.7,30,9,29.5,8.4l-1,0.8C28,8.6,27.4,8,26.8,7.5l0.8-1
	C27,5.9,26.3,5.4,25.5,5l-0.6,1.1c-0.7-0.4-1.4-0.7-2.2-1l0.4-1.2c-0.8-0.3-1.7-0.5-2.5-0.7l-0.4,1.3c-0.8-0.1-1.5-0.2-2.5-0.2V3
	c-1,0-1.6,0.1-2.5,0.2L15.6,4.5z"/>
</svg>
