<!-- Generator: Adobe Illustrator 19.0.0, SVG Export Plug-In  -->
<svg version="1.1"
	 xmlns="http://www.w3.org/2000/svg" xmlns:xlink="http://www.w3.org/1999/xlink" xmlns:a="http://ns.adobe.com/AdobeSVGViewerExtensions/3.0/"
	 x="0px" y="0px" width="931px" height="273.5px" viewBox="0 0 931 273.5" style="enable-background:new 0 0 931 273.5;"
	 xml:space="preserve">
<style type="text/css">
	
		.st0{fill-rule:evenodd;clip-rule:evenodd;fill:none;stroke:#374F4E;stroke-linecap:round;stroke-linejoin:round;stroke-miterlimit:22.9256;}
	.st1{fill-rule:evenodd;clip-rule:evenodd;fill:#374F4E;}
	.st2{fill-rule:evenodd;clip-rule:evenodd;fill:#B9D6D4;}
	.st3{fill-rule:evenodd;clip-rule:evenodd;fill:#FFFFFF;}
	.st4{fill:#B1C4CE;}
	.st5{fill:#E72B48;}
	.st6{fill:#22648A;}
	.st7{fill:#EABEA7;}
	.st8{fill:#F9BD38;}
	.st9{fill:none;stroke:#FFFFFF;stroke-width:5;stroke-miterlimit:10;}
	.st10{fill:none;stroke:#FFFFFF;stroke-width:3;stroke-miterlimit:10;}
	.st11{fill:#11354B;}
	.st12{fill:#901F2A;}
	.st13{fill:#FFFFFF;}
	.st14{fill:#23648B;}
	.st15{fill:none;stroke:#D3EBEB;stroke-width:6;stroke-linecap:round;stroke-linejoin:round;stroke-miterlimit:22.9256;}
	.st16{fill-rule:evenodd;clip-rule:evenodd;fill:none;stroke:#CCCCCC;stroke-width:3.8401;stroke-miterlimit:22.9256;}
	.st17{fill:#F28F63;}
	
		.st18{fill-rule:evenodd;clip-rule:evenodd;fill:none;stroke:#D3EBEB;stroke-width:6;stroke-linecap:round;stroke-linejoin:round;stroke-miterlimit:22.9256;}
	.st19{fill:none;stroke:#CCCCCC;stroke-width:2;stroke-miterlimit:22.9256;}
	.st20{fill:none;stroke:#CCCCCC;stroke-width:3;stroke-miterlimit:22.9256;}
	
		.st21{fill-rule:evenodd;clip-rule:evenodd;fill:none;stroke:#D3EBEB;stroke-width:6.0001;stroke-linecap:round;stroke-linejoin:round;stroke-miterlimit:22.9256;}
</style>
<defs>
</defs>
<path class="st0" d="M376.7,251.1c0,4.5-3,8.4-6.7,8.4h-76.2c-0.7,0-1.5,0-2.3,0H18.5c-2.2,0-4.2-1-5.7-2.5c-1.5-1.5-2.4-3.8-2.4-6
	c0-4.5,3.6-8.4,8.1-8.4h272.9c0.6,0,1.2,0,1.7,0H370c1.8,0,3.5,1.1,4.7,2.6C375.9,246.6,376.7,248.9,376.7,251.1z"/>
<path class="st1" d="M373.5,246c-1.1-1.2-2.7-2-4.4-2h-72.9c-0.1,0-0.2,0-0.3,0c0,0,0,0,0,0c-0.3,0-0.5,0-0.8,0H20.1
	c-4.4,0-8,3.2-8,7c0,1.9,0.9,3.7,2.3,5c1.5,1.3,3.5,2.1,5.6,2.1h275.1c0.6,0,1.2,0,1.7,0h72.3c3.4,0,6.2-3.2,6.2-7
	C375.3,249.1,374.6,247.3,373.5,246z M197.1,244.8c0.5-0.2,0.9-0.4,1.4-0.5C198.1,244.5,197.6,244.6,197.1,244.8z M198.9,257.7
	c0.4,0.1,0.8,0.2,1.3,0.2C199.7,257.9,199.3,257.8,198.9,257.7z"/>
<rect x="297" y="251" class="st2" width="70" height="0"/>
<path class="st2" d="M367.1,254.5c2,0,3.6-1.6,3.6-3.6c0-2-1.6-3.6-3.6-3.6c-2,0-3.6,1.6-3.6,3.6
	C363.6,252.9,365.2,254.5,367.1,254.5z"/>
<path class="st2" d="M343.8,254.5c2,0,3.6-1.6,3.6-3.6c0-2-1.6-3.6-3.6-3.6s-3.6,1.6-3.6,3.6C340.2,252.9,341.8,254.5,343.8,254.5z"
	/>
<path class="st3" d="M343.8,253.1c1.2,0,2.2-1,2.2-2.2c0-1.2-1-2.2-2.2-2.2c-1.2,0-2.2,1-2.2,2.2
	C341.6,252.1,342.6,253.1,343.8,253.1z"/>
<path class="st3" d="M367.1,253.1c1.2,0,2.2-1,2.2-2.2c0-1.2-1-2.2-2.2-2.2c-1.2,0-2.2,1-2.2,2.2C365,252.1,365.9,253.1,367.1,253.1
	z"/>
<path class="st3" d="M356.7,252.8c1,0,1.9-0.8,1.9-1.9c0-1-0.8-1.9-1.9-1.9c-1,0-1.9,0.8-1.9,1.9C354.8,252,355.6,252.8,356.7,252.8
	z"/>
<path class="st1" d="M535.6,186h-114c-5.3,0-9.7,3.2-9.7,7l0,0c0,3.8,4.3,7,9.7,7h114c5.3,0,9.7-3.2,9.7-7l0,0
	C545.2,189.2,540.9,186,535.6,186z"/>
<rect x="413" y="192" class="st2" width="118" height="1"/>
<path class="st4" d="M737,191h-31.9c-4,0-7.1-3-7.1-7v-0.5c0-4,3.1-7.5,7.1-7.5H730c1.3,0,2-0.9,2-2.3V172c0-1.3-0.7-2-2-2h-24.9
	c-4,0-7.1-3.7-7.1-7.7V161c0-4,3.1-7,7.1-7H729c1.3,0,2.4-1.2,2.4-2.5c0-1.3-1.1-2.5-2.4-2.5h-23.4c-4,0-7.6-3.3-7.6-7.3v-0.9
	c0-4,3.6-7.8,7.6-7.8h22.9c1.3,0,2.5-0.6,2.5-2v-0.5c0-1.3-1.1-2.5-2.5-2.5h-24.4c-4,0-7.3-3-7.3-7s3.3-7,7.3-7h24.4
	c1.3,0,2.5-1.4,2.5-2.8v-0.5c0-1.3-1.1-2.7-2.5-2.7h-24.9c-4,0-7.7-3-7.7-7.1v-0.5c0-4,3.6-7.4,7.7-7.4h23.9c2.7,0,7.1,0.1,9.8,0.1
	l18.9,0.2c4,0,7.3,3.3,7.3,7.3l0.1,19l-4.9,0l-0.1-19c0-1.3-1.2-2.5-2.5-2.5L737.3,98c-2.7,0-7.1,0-9.7,0h-23.9
	c-1.3,0-2.7,1-2.7,2.4v0.5c0,1.3,1.3,2.1,2.7,2.1h24.9c4,0,7.5,3.6,7.5,7.7v0.5c0,4-3.4,7.8-7.5,7.8h-24.4c-1.3,0-2.4,0.7-2.4,2
	c0,1.3,1.1,2,2.4,2h24.4c4,0,7.5,3.5,7.5,7.5v0.5c0,4-3.4,7-7.5,7h-22.9c-1.3,0-2.6,1.4-2.6,2.8v0.9c0,1.3,1.3,2.3,2.6,2.3H729
	c4,0,7.3,3.5,7.3,7.5c0,4-3.3,7.5-7.3,7.5h-23.9c-1.3,0-2.1,0.6-2.1,2v1.3c0,1.3,0.8,2.7,2.1,2.7H730c4,0,7,3,7,7v1.7
	c0,4-3,7.3-7,7.3h-24.9c-1.3,0-2.1,1.1-2.1,2.5v0.5c0,1.3,0.8,2,2.1,2H737V191z"/>
<g>
	<path class="st1" d="M903.2,222H792.8c-5.1,0-9.3,3.2-9.3,7l0,0c0,3.8,4.2,7,9.3,7h110.4c5.1,0,9.3-3.2,9.3-7l0,0
		C912.6,225.2,908.4,222,903.2,222z"/>
	<path class="st0" d="M904.5,220.5H791.1c-5.3,0-9.6,4-9.6,8.5l0,0c0,4.5,4.3,8.5,9.6,8.5h113.4c5.3,0,9.6-4,9.6-8.5l0,0
		C914.1,224.5,909.8,220.5,904.5,220.5z"/>
	<rect x="790" y="229" class="st2" width="115" height="0"/>
	<path class="st2" d="M857.6,232.6c1.9,0,3.5-1.6,3.5-3.6c0-2-1.6-3.6-3.5-3.6c-1.9,0-3.5,1.6-3.5,3.6
		C854.1,231,855.7,232.6,857.6,232.6z"/>
	<path class="st2" d="M834.9,232.6c1.9,0,3.5-1.6,3.5-3.6c0-2-1.6-3.6-3.5-3.6s-3.5,1.6-3.5,3.6C831.5,231,833,232.6,834.9,232.6z"
		/>
	<path class="st2" d="M812.3,232.6c1.9,0,3.5-1.6,3.5-3.6c0-2-1.6-3.6-3.5-3.6c-1.9,0-3.5,1.6-3.5,3.6
		C808.8,231,810.4,232.6,812.3,232.6z"/>
	<path class="st2" d="M789.6,232.6c1.9,0,3.5-1.6,3.5-3.6c0-2-1.6-3.6-3.5-3.6c-1.9,0-3.5,1.6-3.5,3.6
		C786.2,231,787.7,232.6,789.6,232.6z"/>
	<path class="st3" d="M812.3,231.2c1.2,0,2.1-1,2.1-2.2c0-1.2-0.9-2.2-2.1-2.2c-1.2,0-2.1,1-2.1,2.2
		C810.2,230.2,811.1,231.2,812.3,231.2z"/>
	<path class="st3" d="M834.9,231.2c1.2,0,2.1-1,2.1-2.2c0-1.2-0.9-2.2-2.1-2.2c-1.2,0-2.1,1-2.1,2.2
		C832.8,230.2,833.8,231.2,834.9,231.2z"/>
	<path class="st3" d="M857.6,231.2c1.2,0,2.1-1,2.1-2.2c0-1.2-0.9-2.2-2.1-2.2c-1.2,0-2.1,1-2.1,2.2
		C855.5,230.2,856.4,231.2,857.6,231.2z"/>
	<path class="st3" d="M800.9,230.9c1,0,1.8-0.8,1.8-1.9c0-1-0.8-1.9-1.8-1.9c-1,0-1.8,0.8-1.8,1.9
		C799.1,230,799.9,230.9,800.9,230.9z"/>
	<path class="st3" d="M823.6,230.9c1,0,1.8-0.8,1.8-1.9c0-1-0.8-1.9-1.8-1.9c-1,0-1.8,0.8-1.8,1.9
		C821.8,230,822.6,230.9,823.6,230.9z"/>
	<path class="st3" d="M847.4,230.9c1,0,1.8-0.8,1.8-1.9c0-1-0.8-1.9-1.8-1.9c-1,0-1.8,0.8-1.8,1.9
		C845.6,230,846.4,230.9,847.4,230.9z"/>
	<path class="st3" d="M789.6,231.2c1.2,0,2.1-1,2.1-2.2c0-1.2-0.9-2.2-2.1-2.2c-1.2,0-2.1,1-2.1,2.2
		C787.5,230.2,788.5,231.2,789.6,231.2z"/>
	<path class="st2" d="M880.1,232.9c1.9,0,3.5-1.6,3.5-3.6c0-2-1.6-3.6-3.5-3.6c-1.9,0-3.5,1.6-3.5,3.6
		C876.6,231.3,878.2,232.9,880.1,232.9z"/>
	<path class="st3" d="M880.1,231.5c1.2,0,2.1-1,2.1-2.2c0-1.2-0.9-2.2-2.1-2.2c-1.2,0-2.1,1-2.1,2.2
		C878,230.6,878.9,231.5,880.1,231.5z"/>
	<path class="st2" d="M904.5,232.9c1.9,0,3.5-1.6,3.5-3.6c0-2-1.6-3.6-3.5-3.6c-1.9,0-3.5,1.6-3.5,3.6
		C901.1,231.3,902.6,232.9,904.5,232.9z"/>
	<path class="st3" d="M904.5,231.5c1.2,0,2.1-1,2.1-2.2c0-1.2-0.9-2.2-2.1-2.2c-1.2,0-2.1,1-2.1,2.2
		C902.4,230.6,903.4,231.5,904.5,231.5z"/>
	<path class="st3" d="M868.9,231.3c1,0,1.8-0.8,1.8-1.9c0-1-0.8-1.9-1.8-1.9c-1,0-1.8,0.8-1.8,1.9
		C867.1,230.4,867.9,231.3,868.9,231.3z"/>
	<path class="st3" d="M891.4,231.3c1,0,1.8-0.8,1.8-1.9c0-1-0.8-1.9-1.8-1.9c-1,0-1.8,0.8-1.8,1.9
		C889.6,230.4,890.4,231.3,891.4,231.3z"/>
</g>
<g>
	<path class="st1" d="M637.6,186h-72.9c-3.4,0-6.2,3.2-6.2,7l0,0c0,3.8,2.8,7,6.2,7h72.9c3.4,0,6.2-3.2,6.2-7l0,0
		C643.8,189.2,641,186,637.6,186z"/>
	<path class="st0" d="M638.7,184.5h-75.2c-3.5,0-6.4,4-6.4,8.5l0,0c0,4.5,2.9,8.5,6.4,8.5h75.2c3.5,0,6.4-4,6.4-8.5l0,0
		C645.1,188.5,642.2,184.5,638.7,184.5z"/>
	<rect x="566" y="193" class="st2" width="70" height="0"/>
	<path class="st2" d="M635.6,196.6c2,0,3.6-1.6,3.6-3.6c0-2-1.6-3.6-3.6-3.6c-2,0-3.6,1.6-3.6,3.6C632,195,633.6,196.6,635.6,196.6z
		"/>
	<path class="st2" d="M612.2,196.6c2,0,3.6-1.6,3.6-3.6c0-2-1.6-3.6-3.6-3.6c-2,0-3.6,1.6-3.6,3.6
		C608.7,195,610.3,196.6,612.2,196.6z"/>
	<path class="st2" d="M588.9,196.6c2,0,3.6-1.6,3.6-3.6c0-2-1.6-3.6-3.6-3.6c-2,0-3.6,1.6-3.6,3.6
		C585.3,195,586.9,196.6,588.9,196.6z"/>
	<path class="st2" d="M565.5,196.6c2,0,3.6-1.6,3.6-3.6c0-2-1.6-3.6-3.6-3.6c-2,0-3.6,1.6-3.6,3.6C562,195,563.6,196.6,565.5,196.6z
		"/>
	<path class="st3" d="M588.9,195.2c1.2,0,2.2-1,2.2-2.2c0-1.2-1-2.2-2.2-2.2c-1.2,0-2.2,1-2.2,2.2
		C586.7,194.2,587.7,195.2,588.9,195.2z"/>
	<path class="st3" d="M612.2,195.2c1.2,0,2.2-1,2.2-2.2c0-1.2-1-2.2-2.2-2.2c-1.2,0-2.2,1-2.2,2.2
		C610.1,194.2,611,195.2,612.2,195.2z"/>
	<path class="st3" d="M635.6,195.2c1.2,0,2.2-1,2.2-2.2c0-1.2-1-2.2-2.2-2.2c-1.2,0-2.2,1-2.2,2.2
		C633.4,194.2,634.4,195.2,635.6,195.2z"/>
	<path class="st3" d="M577.2,194.9c1,0,1.9-0.8,1.9-1.9c0-1-0.8-1.9-1.9-1.9c-1,0-1.9,0.8-1.9,1.9
		C575.3,194.1,576.2,194.9,577.2,194.9z"/>
	<path class="st3" d="M600.6,194.9c1,0,1.9-0.8,1.9-1.9c0-1-0.8-1.9-1.9-1.9c-1,0-1.9,0.8-1.9,1.9
		C598.7,194.1,599.5,194.9,600.6,194.9z"/>
	<path class="st3" d="M625.1,194.9c1,0,1.9-0.8,1.9-1.9c0-1-0.8-1.9-1.9-1.9c-1,0-1.9,0.8-1.9,1.9
		C623.2,194.1,624.1,194.9,625.1,194.9z"/>
	<path class="st3" d="M565.5,195.2c1.2,0,2.2-1,2.2-2.2c0-1.2-1-2.2-2.2-2.2c-1.2,0-2.2,1-2.2,2.2
		C563.4,194.2,564.4,195.2,565.5,195.2z"/>
</g>
<path class="st1" d="M795,229.1c0,3.8-2.8,6.9-6.2,6.9H646.2c-1.7,0-3.2-0.8-4.4-2s-1.8-3.1-1.8-5c0-3.8,2.8-7,6.2-7h142.7
	c1.7,0,3.2,0.9,4.4,2.1C794.3,225.4,795,227.2,795,229.1z"/>
<path class="st0" d="M793.4,229.2c0,4.5-2.8,8.3-6.2,8.3H644.9c-1.7,0-3.3-1-4.4-2.5c-1.1-1.5-1.8-3.8-1.8-6c0-4.5,2.8-8.5,6.2-8.5
	h142.2c1.7,0,3.3,1.2,4.4,2.7C792.7,224.6,793.4,226.9,793.4,229.2z"/>
<rect x="647" y="229" class="st2" width="70" height="0"/>
<path class="st2" d="M717.1,232.7c2,0,3.6-1.6,3.6-3.6c0-2-1.6-3.6-3.6-3.6c-2,0-3.6,1.6-3.6,3.6
	C713.5,231.1,715.1,232.7,717.1,232.7z"/>
<path class="st2" d="M693.7,232.7c2,0,3.6-1.6,3.6-3.6c0-2-1.6-3.6-3.6-3.6c-2,0-3.6,1.6-3.6,3.6
	C690.2,231.1,691.8,232.7,693.7,232.7z"/>
<path class="st2" d="M670.4,232.7c2,0,3.6-1.6,3.6-3.6c0-2-1.6-3.6-3.6-3.6c-2,0-3.6,1.6-3.6,3.6
	C666.8,231.1,668.4,232.7,670.4,232.7z"/>
<path class="st2" d="M647,232.7c2,0,3.6-1.6,3.6-3.6c0-2-1.6-3.6-3.6-3.6s-3.6,1.6-3.6,3.6C643.5,231.1,645.1,232.7,647,232.7z"/>
<path class="st3" d="M670.4,231.3c1.2,0,2.2-1,2.2-2.2c0-1.2-1-2.2-2.2-2.2c-1.2,0-2.2,1-2.2,2.2
	C668.2,230.3,669.2,231.3,670.4,231.3z"/>
<path class="st3" d="M693.7,231.3c1.2,0,2.2-1,2.2-2.2c0-1.2-1-2.2-2.2-2.2c-1.2,0-2.2,1-2.2,2.2
	C691.6,230.3,692.5,231.3,693.7,231.3z"/>
<path class="st3" d="M717.1,231.3c1.2,0,2.2-1,2.2-2.2c0-1.2-1-2.2-2.2-2.2c-1.2,0-2.2,1-2.2,2.2
	C714.9,230.3,715.9,231.3,717.1,231.3z"/>
<path class="st3" d="M658.7,231c1,0,1.9-0.8,1.9-1.9c0-1-0.8-1.9-1.9-1.9c-1,0-1.9,0.8-1.9,1.9C656.8,230.1,657.7,231,658.7,231z"/>
<path class="st3" d="M682.1,231c1,0,1.9-0.8,1.9-1.9c0-1-0.8-1.9-1.9-1.9c-1,0-1.9,0.8-1.9,1.9C680.2,230.1,681,231,682.1,231z"/>
<path class="st3" d="M706.6,231c1,0,1.9-0.8,1.9-1.9c0-1-0.8-1.9-1.9-1.9c-1,0-1.9,0.8-1.9,1.9C704.7,230.1,705.6,231,706.6,231z"/>
<path class="st3" d="M647,231.3c1.2,0,2.2-1,2.2-2.2c0-1.2-1-2.2-2.2-2.2c-1.2,0-2.2,1-2.2,2.2C644.9,230.3,645.9,231.3,647,231.3z"
	/>
<rect x="717" y="229" class="st2" width="70" height="0"/>
<path class="st2" d="M786.8,232.7c2,0,3.6-1.6,3.6-3.6c0-2-1.6-3.6-3.6-3.6c-2,0-3.6,1.6-3.6,3.6
	C783.3,231.1,784.9,232.7,786.8,232.7z"/>
<path class="st2" d="M763.5,232.7c2,0,3.6-1.6,3.6-3.6c0-2-1.6-3.6-3.6-3.6c-2,0-3.6,1.6-3.6,3.6C760,231.1,761.5,232.7,763.5,232.7
	z"/>
<path class="st2" d="M740.2,232.7c2,0,3.6-1.6,3.6-3.6c0-2-1.6-3.6-3.6-3.6c-2,0-3.6,1.6-3.6,3.6
	C736.6,231.1,738.2,232.7,740.2,232.7z"/>
<path class="st2" d="M716.8,232.7c2,0,3.6-1.6,3.6-3.6c0-2-1.6-3.6-3.6-3.6c-2,0-3.6,1.6-3.6,3.6
	C713.3,231.1,714.9,232.7,716.8,232.7z"/>
<path class="st3" d="M740.2,231.3c1.2,0,2.2-1,2.2-2.2c0-1.2-1-2.2-2.2-2.2c-1.2,0-2.2,1-2.2,2.2C738,230.3,739,231.3,740.2,231.3z"
	/>
<path class="st3" d="M763.5,231.3c1.2,0,2.2-1,2.2-2.2c0-1.2-1-2.2-2.2-2.2c-1.2,0-2.2,1-2.2,2.2
	C761.4,230.3,762.3,231.3,763.5,231.3z"/>
<path class="st3" d="M786.8,231.3c1.2,0,2.2-1,2.2-2.2c0-1.2-1-2.2-2.2-2.2c-1.2,0-2.2,1-2.2,2.2
	C784.7,230.3,785.7,231.3,786.8,231.3z"/>
<path class="st3" d="M728.5,231c1,0,1.9-0.8,1.9-1.9c0-1-0.8-1.9-1.9-1.9c-1,0-1.9,0.8-1.9,1.9C726.6,230.1,727.5,231,728.5,231z"/>
<path class="st3" d="M751.8,231c1,0,1.9-0.8,1.9-1.9c0-1-0.8-1.9-1.9-1.9c-1,0-1.9,0.8-1.9,1.9C750,230.1,750.8,231,751.8,231z"/>
<path class="st3" d="M776.4,231c1,0,1.9-0.8,1.9-1.9c0-1-0.8-1.9-1.9-1.9c-1,0-1.9,0.8-1.9,1.9C774.5,230.1,775.3,231,776.4,231z"/>
<path class="st3" d="M716.8,231.3c1.2,0,2.2-1,2.2-2.2c0-1.2-1-2.2-2.2-2.2c-1.2,0-2.2,1-2.2,2.2
	C714.7,230.3,715.7,231.3,716.8,231.3z"/>
<path class="st5" d="M518,244h-5V106.5c0-4,3-7.5,7-7.5h0.5c4,0,7.5,3.5,7.5,7.5v63.1c0,1.3,0.7,2.4,2,2.4c1.3,0,2-1.1,2-2.4v-63.1
	c0-4,3.8-7.5,7.8-7.5h0.5c4,0,7.6,3.5,7.6,7.5v60c0,1.3,0.8,2.4,2.1,2.4h0.9c1.3,0,2-1.1,2-2.4v-58.3c0-4,3.5-7.3,7.5-7.3
	c4,0,7.5,3.3,7.5,7.3v59.4c0,1.3,1,2.4,2.3,2.4h1.3c1.3,0,2.4-1.1,2.4-2.4v-59.3c0-4,3.3-7.3,7.4-7.3h1.7c4,0,7,3.3,7,7.3v59.3
	c0,1.3,1.4,2.4,2.8,2.4h0.5c1.1,0,1.7-0.1,2.7-0.3V169h5v1.7c0,2.6-3.2,4.3-7.7,4.3h-0.5c-4,0-7.8-3.4-7.8-7.4v-59.3
	c0-1.3-0.6-2.3-2-2.3h-1.7c-1.3,0-2.4,1-2.4,2.3v59.3c0,4-3.4,7.4-7.4,7.4h-1.3c-4,0-7.3-3.4-7.3-7.4v-59.4c0-1.3-1.2-2.4-2.5-2.4
	c-1.3,0-2.5,1.1-2.5,2.4v58.3c0,4-2.9,7.4-7,7.4h-0.9c-4,0-7.1-3.4-7.1-7.4v-60c0-1.3-1.3-2.5-2.6-2.5h-0.5c-1.3,0-2.8,1.2-2.8,2.5
	v63.1c0,4-3,7.3-7,7.3c-4,0-7-3.3-7-7.3v-63.1c0-1.3-1.1-2.5-2.5-2.5H520c-1.3,0-2,1.2-2,2.5V244z"/>
<g>
	<path class="st1" d="M410.5,191L359,242.5c-2.4,2.4-2.2,6.6,0.5,9.3l0,0c2.7,2.7,6.9,2.9,9.3,0.5l51.5-51.5
		c2.4-2.4,2.2-6.6-0.5-9.3l0,0C417.1,188.8,412.9,188.6,410.5,191z"/>
	<path class="st0" d="M410.4,189.3l-53.2,53.2c-2.5,2.5-1.9,7.1,1.3,10.3l0,0c3.2,3.2,7.8,3.8,10.3,1.3l53.2-53.2
		c2.5-2.5,1.9-7.1-1.3-10.3l0,0C417.5,187.4,412.9,186.8,410.4,189.3z"/>
	
		<rect x="354.2" y="221.7" transform="matrix(0.7071 -0.7071 0.7071 0.7071 -43.0165 340.2468)" class="st2" width="70" height="0.8"/>
	<path class="st2" d="M416.5,199.8c1.4-1.4,1.4-3.6,0-5c-1.4-1.4-3.6-1.4-5,0c-1.4,1.4-1.4,3.6,0,5
		C412.8,201.2,415.1,201.2,416.5,199.8z"/>
	<path class="st2" d="M400,216.3c1.4-1.4,1.4-3.6,0-5c-1.4-1.4-3.6-1.4-5,0s-1.4,3.6,0,5C396.3,217.7,398.6,217.7,400,216.3z"/>
	<path class="st2" d="M383.5,232.8c1.4-1.4,1.4-3.6,0-5c-1.4-1.4-3.6-1.4-5,0c-1.4,1.4-1.4,3.6,0,5
		C379.8,234.2,382.1,234.2,383.5,232.8z"/>
	<path class="st2" d="M367,249.3c1.4-1.4,1.4-3.6,0-5c-1.4-1.4-3.6-1.4-5,0c-1.4,1.4-1.4,3.6,0,5C363.3,250.7,365.6,250.7,367,249.3
		z"/>
	<circle class="st3" cx="381" cy="230.3" r="2.2"/>
	<circle class="st3" cx="397.5" cy="213.8" r="2.2"/>
	<circle class="st3" cx="414" cy="197.3" r="2.2"/>
	<circle class="st3" cx="372.7" cy="238.5" r="1.9"/>
	<circle class="st3" cx="389.2" cy="222" r="1.9"/>
	<circle class="st3" cx="406.6" cy="204.7" r="1.9"/>
	<circle class="st3" cx="364.5" cy="246.8" r="2.2"/>
</g>
<path class="st0" d="M537.3,184.5H419.8c-5.5,0-10,3.5-10,8l0,0c0,4.5,4.5,8,10,8h117.6c5.5,0,10-3.5,10-8l0,0
	C547.3,188,542.8,184.5,537.3,184.5z"/>
<path class="st2" d="M537.8,196.2c2,0,3.6-1.6,3.6-3.6c0-2-1.6-3.6-3.6-3.6c-2,0-3.6,1.6-3.6,3.6
	C534.2,194.6,535.8,196.2,537.8,196.2z"/>
<path class="st2" d="M514.4,196.2c2,0,3.6-1.6,3.6-3.6c0-2-1.6-3.6-3.6-3.6c-2,0-3.6,1.6-3.6,3.6
	C510.9,194.6,512.5,196.2,514.4,196.2z"/>
<path class="st2" d="M491.1,196.2c2,0,3.6-1.6,3.6-3.6c0-2-1.6-3.6-3.6-3.6c-2,0-3.6,1.6-3.6,3.6
	C487.5,194.6,489.1,196.2,491.1,196.2z"/>
<path class="st2" d="M467.8,196.2c2,0,3.6-1.6,3.6-3.6c0-2-1.6-3.6-3.6-3.6c-2,0-3.6,1.6-3.6,3.6
	C464.2,194.6,465.8,196.2,467.8,196.2z"/>
<path class="st3" d="M491.1,194.8c1.2,0,2.2-1,2.2-2.2c0-1.2-1-2.2-2.2-2.2c-1.2,0-2.2,1-2.2,2.2
	C488.9,193.8,489.9,194.8,491.1,194.8z"/>
<path class="st3" d="M514.4,194.8c1.2,0,2.2-1,2.2-2.2c0-1.2-1-2.2-2.2-2.2c-1.2,0-2.2,1-2.2,2.2
	C512.3,193.8,513.2,194.8,514.4,194.8z"/>
<path class="st3" d="M537.8,194.8c1.2,0,2.2-1,2.2-2.2c0-1.2-1-2.2-2.2-2.2c-1.2,0-2.2,1-2.2,2.2
	C535.6,193.8,536.6,194.8,537.8,194.8z"/>
<path class="st3" d="M479.4,194.5c1,0,1.9-0.8,1.9-1.9c0-1-0.8-1.9-1.9-1.9c-1,0-1.9,0.8-1.9,1.9
	C477.5,193.7,478.4,194.5,479.4,194.5z"/>
<path class="st3" d="M502.8,194.5c1,0,1.9-0.8,1.9-1.9c0-1-0.8-1.9-1.9-1.9c-1,0-1.9,0.8-1.9,1.9
	C500.9,193.7,501.7,194.5,502.8,194.5z"/>
<path class="st3" d="M527.3,194.5c1,0,1.9-0.8,1.9-1.9c0-1-0.8-1.9-1.9-1.9c-1,0-1.9,0.8-1.9,1.9
	C525.4,193.7,526.3,194.5,527.3,194.5z"/>
<path class="st3" d="M467.8,194.8c1.2,0,2.2-1,2.2-2.2c0-1.2-1-2.2-2.2-2.2c-1.2,0-2.2,1-2.2,2.2
	C465.6,193.8,466.6,194.8,467.8,194.8z"/>
<path class="st2" d="M444.4,196.2c2,0,3.6-1.6,3.6-3.6c0-2-1.6-3.6-3.6-3.6c-2,0-3.6,1.6-3.6,3.6
	C440.9,194.6,442.5,196.2,444.4,196.2z"/>
<path class="st2" d="M421.1,196.2c2,0,3.6-1.6,3.6-3.6c0-2-1.6-3.6-3.6-3.6c-2,0-3.6,1.6-3.6,3.6
	C417.5,194.6,419.1,196.2,421.1,196.2z"/>
<path class="st3" d="M444.4,194.8c1.2,0,2.2-1,2.2-2.2c0-1.2-1-2.2-2.2-2.2c-1.2,0-2.2,1-2.2,2.2
	C442.3,193.8,443.2,194.8,444.4,194.8z"/>
<path class="st3" d="M432.7,194.5c1,0,1.9-0.8,1.9-1.9c0-1-0.8-1.9-1.9-1.9c-1,0-1.9,0.8-1.9,1.9
	C430.9,193.7,431.7,194.5,432.7,194.5z"/>
<path class="st3" d="M456.1,194.5c1,0,1.9-0.8,1.9-1.9c0-1-0.8-1.9-1.9-1.9c-1,0-1.9,0.8-1.9,1.9
	C454.2,193.7,455.1,194.5,456.1,194.5z"/>
<path class="st3" d="M421.1,194.8c1.2,0,2.2-1,2.2-2.2c0-1.2-1-2.2-2.2-2.2c-1.2,0-2.2,1-2.2,2.2
	C418.9,193.8,419.9,194.8,421.1,194.8z"/>
<path class="st4" d="M931,249v9H451.6c-3.8,0-7-2-7-4.3c0-1.1,0.8-2.4,2-3.2s3-1.5,4.9-1.5H931z"/>
<path class="st4" d="M931,263v8H451.6c-3.8,0-7-1.7-7-4c0-1.1,0.8-2.1,2-2.8c1.3-0.7,3-1.1,4.9-1.1H931z"/>
<polygon class="st6" points="503.2,243.6 507.6,239 522.6,239 527.1,243.7 "/>
<g>
	<polygon class="st7" points="811,133 807,133 807,126 764,126 764,122 811,122 	"/>
</g>
<g>
	<polygon class="st7" points="788,133 784,133 784,126 741,126 741,122 788,122 	"/>
</g>
<g>
	<ellipse class="st8" cx="786.4" cy="137.3" rx="2.6" ry="0.9"/>
</g>
<g>
	<ellipse class="st8" cx="786.4" cy="138.6" rx="2.6" ry="0.9"/>
</g>
<g>
	<ellipse class="st8" cx="786.4" cy="139.9" rx="2.6" ry="0.9"/>
</g>
<g>
	<ellipse class="st8" cx="786.4" cy="141.2" rx="2.6" ry="0.9"/>
</g>
<g>
	<ellipse class="st8" cx="786.4" cy="142.5" rx="2.6" ry="0.9"/>
</g>
<g>
	<ellipse class="st8" cx="786.4" cy="143.8" rx="2.6" ry="0.9"/>
</g>
<g>
	<ellipse class="st8" cx="786.4" cy="145.1" rx="2.6" ry="0.9"/>
</g>
<g>
	<ellipse class="st8" cx="786.4" cy="146.4" rx="2.6" ry="0.9"/>
</g>
<g>
	<ellipse class="st8" cx="786.4" cy="147.7" rx="2.6" ry="0.9"/>
</g>
<g>
	<ellipse class="st8" cx="786.4" cy="149" rx="2.6" ry="0.9"/>
</g>
<g>
	<ellipse class="st8" cx="786.4" cy="150.3" rx="2.6" ry="0.9"/>
</g>
<g>
	<ellipse class="st8" cx="786.4" cy="151.6" rx="2.6" ry="0.9"/>
</g>
<g>
	<ellipse class="st8" cx="786.4" cy="152.9" rx="2.6" ry="0.9"/>
</g>
<g>
	<ellipse class="st8" cx="786.4" cy="154.2" rx="2.6" ry="0.9"/>
</g>
<g>
	<ellipse class="st8" cx="786.4" cy="155.5" rx="2.6" ry="0.9"/>
</g>
<g>
	<ellipse class="st8" cx="786.4" cy="156.8" rx="2.6" ry="0.9"/>
</g>
<g>
	<ellipse class="st8" cx="786.4" cy="158.1" rx="2.6" ry="0.9"/>
</g>
<g>
	<ellipse class="st8" cx="786.4" cy="159.4" rx="2.6" ry="0.9"/>
</g>
<g>
	<ellipse class="st8" cx="786.4" cy="160.7" rx="2.6" ry="0.9"/>
</g>
<g>
	<ellipse class="st8" cx="786.4" cy="162" rx="2.6" ry="0.9"/>
</g>
<g>
	<ellipse class="st8" cx="786.4" cy="163.3" rx="2.6" ry="0.9"/>
</g>
<g>
	<ellipse class="st8" cx="786.4" cy="164.6" rx="2.6" ry="0.9"/>
</g>
<g>
	<ellipse class="st8" cx="786.4" cy="165.9" rx="2.6" ry="0.9"/>
</g>
<g>
	<ellipse class="st8" cx="786.4" cy="167.2" rx="2.6" ry="0.9"/>
</g>
<g>
	<ellipse class="st8" cx="786.4" cy="168.5" rx="2.6" ry="0.9"/>
</g>
<g>
	<ellipse class="st8" cx="786.4" cy="169.8" rx="2.6" ry="0.9"/>
</g>
<g>
	<ellipse class="st8" cx="786.4" cy="171.1" rx="2.6" ry="0.9"/>
</g>
<g>
	<ellipse class="st8" cx="786.4" cy="172.4" rx="2.6" ry="0.9"/>
</g>
<g>
	<ellipse class="st8" cx="786.4" cy="173.7" rx="2.6" ry="0.9"/>
</g>
<g>
	<ellipse class="st8" cx="786.4" cy="175" rx="2.6" ry="0.9"/>
</g>
<g>
	<ellipse class="st8" cx="786.4" cy="176.3" rx="2.6" ry="0.9"/>
</g>
<g>
	<ellipse class="st8" cx="786.4" cy="177.7" rx="2.6" ry="0.9"/>
</g>
<g>
	<ellipse class="st8" cx="786.4" cy="179" rx="2.6" ry="0.9"/>
</g>
<g>
	<ellipse class="st8" cx="786.4" cy="180.3" rx="2.6" ry="0.9"/>
</g>
<g>
	<ellipse class="st8" cx="786.4" cy="181.6" rx="2.6" ry="0.9"/>
</g>
<g>
	<ellipse class="st8" cx="786.4" cy="182.9" rx="2.6" ry="0.9"/>
</g>
<g>
	<ellipse class="st8" cx="809.3" cy="137.3" rx="2.6" ry="0.9"/>
</g>
<g>
	<ellipse class="st8" cx="809.3" cy="138.6" rx="2.6" ry="0.9"/>
</g>
<g>
	<ellipse class="st8" cx="809.3" cy="139.9" rx="2.6" ry="0.9"/>
</g>
<g>
	<ellipse class="st8" cx="809.3" cy="141.2" rx="2.6" ry="0.9"/>
</g>
<g>
	<ellipse class="st8" cx="809.3" cy="142.5" rx="2.6" ry="0.9"/>
</g>
<g>
	<ellipse class="st8" cx="809.3" cy="143.8" rx="2.6" ry="0.9"/>
</g>
<g>
	<ellipse class="st8" cx="809.3" cy="145.1" rx="2.6" ry="0.9"/>
</g>
<g>
	<ellipse class="st8" cx="809.3" cy="146.4" rx="2.6" ry="0.9"/>
</g>
<g>
	<ellipse class="st8" cx="809.3" cy="147.7" rx="2.6" ry="0.9"/>
</g>
<g>
	<ellipse class="st8" cx="809.3" cy="149" rx="2.6" ry="0.9"/>
</g>
<g>
	<ellipse class="st8" cx="809.3" cy="150.3" rx="2.6" ry="0.9"/>
</g>
<g>
	<ellipse class="st8" cx="809.3" cy="151.6" rx="2.6" ry="0.9"/>
</g>
<g>
	<ellipse class="st8" cx="809.3" cy="152.9" rx="2.6" ry="0.9"/>
</g>
<g>
	<ellipse class="st8" cx="809.3" cy="154.2" rx="2.6" ry="0.9"/>
</g>
<g>
	<ellipse class="st8" cx="809.3" cy="155.5" rx="2.6" ry="0.9"/>
</g>
<g>
	<ellipse class="st8" cx="809.3" cy="156.8" rx="2.6" ry="0.9"/>
</g>
<g>
	<ellipse class="st8" cx="809.3" cy="158.1" rx="2.6" ry="0.9"/>
</g>
<g>
	<ellipse class="st8" cx="809.3" cy="159.4" rx="2.6" ry="0.9"/>
</g>
<g>
	<ellipse class="st8" cx="809.3" cy="160.7" rx="2.6" ry="0.9"/>
</g>
<g>
	<ellipse class="st8" cx="809.3" cy="162" rx="2.6" ry="0.9"/>
</g>
<g>
	<ellipse class="st8" cx="809.3" cy="163.3" rx="2.6" ry="0.9"/>
</g>
<g>
	<ellipse class="st8" cx="809.3" cy="164.6" rx="2.6" ry="0.9"/>
</g>
<g>
	<ellipse class="st8" cx="809.3" cy="165.9" rx="2.6" ry="0.9"/>
</g>
<g>
	<ellipse class="st8" cx="809.3" cy="167.2" rx="2.6" ry="0.9"/>
</g>
<g>
	<ellipse class="st8" cx="809.3" cy="168.5" rx="2.6" ry="0.9"/>
</g>
<g>
	<ellipse class="st8" cx="809.3" cy="169.8" rx="2.6" ry="0.9"/>
</g>
<g>
	<ellipse class="st8" cx="809.3" cy="171.1" rx="2.6" ry="0.9"/>
</g>
<g>
	<ellipse class="st8" cx="809.3" cy="172.4" rx="2.6" ry="0.9"/>
</g>
<g>
	<ellipse class="st8" cx="809.3" cy="173.7" rx="2.6" ry="0.9"/>
</g>
<g>
	<ellipse class="st8" cx="809.3" cy="175" rx="2.6" ry="0.9"/>
</g>
<g>
	<ellipse class="st8" cx="809.3" cy="176.3" rx="2.6" ry="0.9"/>
</g>
<g>
	<ellipse class="st8" cx="809.3" cy="177.7" rx="2.6" ry="0.9"/>
</g>
<g>
	<ellipse class="st8" cx="809.3" cy="179" rx="2.6" ry="0.9"/>
</g>
<g>
	<ellipse class="st8" cx="809.3" cy="180.3" rx="2.6" ry="0.9"/>
</g>
<g>
	<ellipse class="st8" cx="809.3" cy="181.6" rx="2.6" ry="0.9"/>
</g>
<g>
	<ellipse class="st8" cx="809.3" cy="182.9" rx="2.6" ry="0.9"/>
</g>
<path class="st8" d="M790,135.5c0,0.8-0.7,1.5-1.5,1.5h-4.1c-0.8,0-1.5-0.7-1.5-1.5v-2.1c0-0.8,0.7-1.5,1.5-1.5h4.1
	c0.8,0,1.5,0.7,1.5,1.5V135.5z"/>
<path class="st8" d="M812,135.5c0,0.8-0.7,1.5-1.5,1.5h-4.1c-0.8,0-1.5-0.7-1.5-1.5v-2.1c0-0.8,0.7-1.5,1.5-1.5h4.1
	c0.8,0,1.5,0.7,1.5,1.5V135.5z"/>
<polygon class="st8" points="783.1,183 790,183 790,188 783.3,188 "/>
<polygon class="st8" points="806.3,183 813,183 813,188 806.4,188 "/>
<path class="st5" d="M795,236.2c0,4.8-3.9,8.8-8.8,8.8h-0.5c-4.8,0-8.8-3.9-8.8-8.8v-40.5c0-4.8,3.9-8.8,8.8-8.8h0.5
	c4.8,0,8.8,3.9,8.8,8.8V236.2z"/>
<path class="st5" d="M819,236.2c0,4.8-3.9,8.8-8.8,8.8h-0.5c-4.8,0-8.8-3.9-8.8-8.8v-40.5c0-4.8,3.9-8.8,8.8-8.8h0.5
	c4.8,0,8.8,3.9,8.8,8.8V236.2z"/>
<rect x="783" y="243" class="st5" width="3" height="3"/>
<rect x="808" y="243" class="st5" width="3" height="3"/>
<circle class="st8" cx="797.9" cy="102.4" r="9.2"/>
<rect x="794" y="105" class="st8" width="8" height="16"/>
<line class="st9" x1="797.5" y1="120" x2="797.5" y2="107"/>
<path class="st6" d="M806,121c0,0.6-0.4,1-1,1h-14c-0.6,0-1-0.4-1-1l0,0c0-0.6,0.4-1,1-1h14C805.5,120,806,120.4,806,121L806,121z"
	/>
<polyline class="st10" points="801.2,106.2 797.8,108.1 794.9,105.7 "/>
<path class="st11" d="M738.2,179.2c-0.7,0-1.3-0.1-2.1-0.3L593,142.6V173h-9v-31.2c0-2.6,1.1-5,3.1-6.6c2-1.5,4.5-2,7.1-1.4
	l143.4,36.4"/>
<path class="st11" d="M738,127h-64.1c-5.1,0-8.9-3.7-8.9-8.8V94h8v24.2c0,0.3,0.7,0.8,0.9,0.8H738"/>
<path class="st6" d="M683.1,118.2c0-0.6,0.4-1.1,1-1.1l0,0c0.6,0,1.1,0.4,1.1,1l0.6,9.6c0,0.6-0.4,1.1-1,1.1l0,0
	c-0.6,0-1.1-0.4-1.1-1L683.1,118.2z"/>
<path class="st6" d="M703.3,118.2c0-0.6,0.4-1.1,1-1.1l0,0c0.6,0,1.1,0.4,1.1,1l0.6,9.6c0,0.6-0.4,1.1-1,1.1l0,0
	c-0.6,0-1.1-0.4-1.1-1L703.3,118.2z"/>
<path class="st6" d="M725.4,118.2c0-0.6,0.4-1.1,1-1.1l0,0c0.6,0,1.1,0.4,1.1,1l0.6,9.6c0,0.6-0.4,1.1-1,1.1l0,0
	c-0.6,0-1.1-0.4-1.1-1L725.4,118.2z"/>
<path class="st6" d="M596.1,144.1c-0.1,0.6-0.7,0.9-1.3,0.8l0,0c-0.6-0.1-0.9-0.7-0.8-1.3l2.4-9.3c0.1-0.6,0.7-0.9,1.3-0.8l0,0
	c0.6,0.1,0.9,0.7,0.8,1.3L596.1,144.1z"/>
<path class="st6" d="M615.4,149c-0.1,0.6-0.7,0.9-1.3,0.8l0,0c-0.6-0.1-0.9-0.7-0.8-1.3l2.4-9.3c0.1-0.6,0.7-0.9,1.3-0.8l0,0
	c0.6,0.1,0.9,0.7,0.8,1.3L615.4,149z"/>
<path class="st6" d="M634.8,154c-0.1,0.6-0.7,0.9-1.3,0.8l0,0c-0.6-0.1-0.9-0.7-0.8-1.3l2.4-9.3c0.1-0.6,0.7-0.9,1.3-0.8l0,0
	c0.6,0.1,0.9,0.7,0.8,1.3L634.8,154z"/>
<path class="st6" d="M654.1,159c-0.1,0.6-0.7,0.9-1.3,0.8l0,0c-0.6-0.1-0.9-0.7-0.8-1.3l2.4-9.3c0.1-0.6,0.7-0.9,1.3-0.8l0,0
	c0.6,0.1,0.9,0.7,0.8,1.3L654.1,159z"/>
<path class="st6" d="M673.5,163.9c-0.1,0.6-0.7,0.9-1.3,0.8l0,0c-0.6-0.1-0.9-0.7-0.8-1.3l2.4-9.3c0.1-0.6,0.7-0.9,1.3-0.8l0,0
	c0.6,0.1,0.9,0.7,0.8,1.3L673.5,163.9z"/>
<path class="st6" d="M692.9,168.8c-0.1,0.6-0.7,0.9-1.3,0.8l0,0c-0.6-0.1-0.9-0.7-0.8-1.3l2.4-9.3c0.1-0.6,0.7-0.9,1.3-0.8l0,0
	c0.6,0.1,0.9,0.7,0.8,1.3L692.9,168.8z"/>
<path class="st6" d="M712.2,173.8c-0.1,0.6-0.7,0.9-1.3,0.8l0,0c-0.6-0.1-0.9-0.7-0.8-1.3l2.4-9.3c0.1-0.6,0.7-0.9,1.3-0.8l0,0
	c0.6,0.1,0.9,0.7,0.8,1.3L712.2,173.8z"/>
<g>
	<polygon class="st5" points="673.4,98 664.6,98.4 659.3,89 677.8,89 	"/>
	<path class="st5" d="M675,99c0,0.5-0.4,1-1,1h-10.1c-0.5,0-1-0.4-1-1V99c0-0.5,0.4-1,1-1H674C674.5,98,675,98.4,675,99L675,99z"/>
</g>
<rect x="741" y="176" class="st12" width="4" height="10"/>
<rect x="758" y="176" class="st12" width="4" height="9"/>
<path class="st5" d="M769,179.1c0,0.8-0.9,1.9-1.7,1.9h-31.4c-0.8,0-1.8-1.1-1.8-1.9v-65.4c0-0.8,1-1.7,1.8-1.7h31.4
	c0.8,0,1.7,0.8,1.7,1.7V179.1z"/>
<rect x="762" y="122" class="st13" width="4" height="4"/>
<rect x="762" y="127" class="st13" width="4" height="3"/>
<rect x="762" y="131" class="st13" width="4" height="4"/>
<rect x="762" y="136" class="st13" width="4" height="3"/>
<rect x="762" y="141" class="st13" width="4" height="3"/>
<rect x="762" y="145" class="st13" width="4" height="4"/>
<path class="st13" d="M765.7,121c0-1-0.9-2.9-1.9-2.9c-1,0-1.9,1.9-1.9,2.9H765.7z"/>
<path class="st13" d="M765.7,150c0,1-0.9,2.9-1.9,2.9c-1,0-1.9-1.9-1.9-2.9H765.7z"/>
<circle class="st4" cx="751.4" cy="153.8" r="3.7"/>
<path class="st11" d="M751.4,158.5c-2.6,0-4.7-2.1-4.7-4.7c0-2.6,2.1-4.7,4.7-4.7c2.6,0,4.7,2.1,4.7,4.7
	C756.1,156.4,754,158.5,751.4,158.5z M751.4,151.1c-1.5,0-2.7,1.2-2.7,2.7c0,1.5,1.2,2.7,2.7,2.7s2.7-1.2,2.7-2.7
	C754.1,152.3,752.9,151.1,751.4,151.1z"/>
<circle class="st4" cx="751.4" cy="167.5" r="3.7"/>
<path class="st11" d="M751.4,172.2c-2.6,0-4.7-2.1-4.7-4.7c0-2.6,2.1-4.7,4.7-4.7c2.6,0,4.7,2.1,4.7,4.7
	C756.1,170.1,754,172.2,751.4,172.2z M751.4,164.8c-1.5,0-2.7,1.2-2.7,2.7c0,1.5,1.2,2.7,2.7,2.7s2.7-1.2,2.7-2.7
	C754.1,166,752.9,164.8,751.4,164.8z"/>
<rect x="751.2" y="150.6" class="st5" width="0.4" height="1"/>
<rect x="751.2" y="164.5" class="st5" width="0.4" height="1"/>
<circle class="st4" cx="747.1" cy="127.1" r="8.1"/>
<path class="st14" d="M770,126.5c0,0.3-0.2,0.5-0.5,0.5l0,0c-0.3,0-0.5-0.2-0.5-0.5v-6c0-0.3,0.2-0.5,0.5-0.5l0,0
	c0.3,0,0.5,0.2,0.5,0.5V126.5z"/>
<circle class="st4" cx="763.7" cy="165.7" r="0.9"/>
<circle class="st7" cx="763.7" cy="169.3" r="0.9"/>
<circle class="st5" cx="763.7" cy="172.8" r="0.9"/>
<path class="st8" d="M595.2,147h-55.6c-0.9,0-1.8,0.8-2.2,1.6c0,0,0,0.2-0.1,0.2c0,0-0.1,0.1-0.1,0.1c-0.2,0.4-0.3,0.8-0.3,1.2v13.2
	c0,1.5,1,2.7,2.5,2.7s2.5-1.2,2.5-2.7V152h53.2c1.3,0,2.4-1.2,2.4-2.5C597.6,148.2,596.5,147,595.2,147z"/>
<circle class="st3" cx="429" cy="193.4" r="1.1"/>
<circle class="st3" cx="369" cy="242.4" r="1.1"/>
<path class="st15" d="M358.4,237.1c-0.8,0.1-1.6,0.3-2.3,0.6l-0.4-1.2c-0.8,0.3-1.6,0.7-2.4,1.1l0.6,1.1c-0.7,0.4-1.3,0.9-2,1.4
	l-0.8-1c-0.7,0.6-1.3,1.2-1.8,1.8l1,0.8c-0.5,0.6-1,1.3-1.4,2l-1.1-0.6c-0.4,0.8-0.8,1.5-1.1,2.4l1.2,0.4c-0.3,0.7-0.5,1.5-0.6,2.3
	l-1.3-0.1c-0.1,0.8-0.2,1.8-0.2,2.8l0,0h1.3c0,0,0.1,1.4,0.2,2.2l-1.3,0.1c0.2,0.9,0.4,1.7,0.7,2.5l1.2-0.5c0.3,0.8,0.6,1.5,1,2.2
	l-1.1,0.6c0.4,0.8,0.9,1.5,1.5,2.1l1-0.8c0.5,0.6,1.1,1.2,1.7,1.7l-0.8,1c0.7,0.6,1.4,1.1,2.1,1.5l0.6-1.1c0.7,0.4,1.4,0.7,2.2,1
	l-0.4,1.2c0.8,0.3,1.7,0.5,2.5,0.7l0.3-1.3c0.8,0.1,1.5,0.2,2.5,0.2v1.3c1,0,1.7-0.1,2.5-0.2l-0.3-1.3c0.8-0.1,1.5-0.3,2.3-0.6
	l0.4,1.2c0.8-0.3,1.6-0.7,2.4-1.1l-0.6-1.1c0.7-0.4,1.3-0.9,2-1.4l0.8,1c0.7-0.6,1.3-1.2,1.8-1.8l-1-0.8c0.5-0.6,1-1.3,1.4-2
	l1.1,0.6c0.4-0.8,0.8-1.5,1.1-2.4l-1.2-0.4c0.3-0.7,0.5-1.5,0.6-2.3l1.3,0.4c0.1-0.8,0.2-1.4,0.2-2.4l0,0h-1.3c0-1-0.1-1.8-0.2-2.6
	l1.3-0.3c-0.2-0.9-0.4-1.8-0.7-2.6l-1.2,0.4c-0.3-0.8-0.6-1.5-1-2.2l1.1-0.6c-0.4-0.8-0.9-1.5-1.5-2.1l-1,0.8
	c-0.5-0.6-1.1-1.2-1.7-1.7l0.8-1c-0.7-0.6-1.4-1.1-2.1-1.5l-0.6,1.1c-0.7-0.4-1.4-0.7-2.2-1l0.4-1.2c-0.8-0.3-1.7-0.5-2.5-0.7
	l-0.1,1.3c-0.8-0.1-1.3-0.2-2.3-0.2v-1.3c-1,0-1.8,0.1-2.7,0.2L358.4,237.1z"/>
<line class="st16" x1="411" y1="195.9" x2="436.2" y2="264.7"/>
<line class="st16" x1="424.5" y1="188" x2="457.7" y2="248.2"/>
<line class="st16" x1="359.6" y1="258.2" x2="447.6" y2="271.6"/>
<line class="st16" x1="361.6" y1="242.7" x2="445.8" y2="244.6"/>
<path class="st11" d="M579,178.2c0,1.5-1.2,2.8-2.8,2.8h-4.5c-1.5,0-2.8-1.2-2.8-2.8v-0.5c0-1.5,1.2-2.8,2.8-2.8h4.5
	c1.5,0,2.8,1.2,2.8,2.8V178.2z"/>
<rect x="531" y="173" class="st17" width="2" height="0"/>
<rect x="531" y="177" class="st17" width="2" height="0"/>
<rect x="531" y="187" class="st17" width="2" height="0"/>
<rect x="531" y="189" class="st17" width="2" height="0"/>
<path class="st18" d="M641,184.7c-0.5,0.1-0.9,0.2-1.4,0.4l-0.3-0.7c-0.5,0.2-0.9,0.4-1.4,0.6l0.4,0.6c-0.4,0.2-0.8,0.5-1.1,0.8
	l-0.5-0.6c-0.4,0.3-0.8,0.7-1.1,1.1l0.6,0.5c-0.3,0.4-0.6,0.7-0.8,1.1l-0.6-0.4c-0.3,0.4-0.5,0.9-0.6,1.4l0.7,0.3
	c-0.2,0.4-0.3,0.9-0.4,1.4l-0.7,0.1c-0.1,0.5-0.1,0.7-0.1,1.7l0,0h0.7c0,0,0,0.8,0.1,1.2l-0.7,0c0.1,0.5,0.2,1,0.4,1.4l0.7-0.3
	c0.2,0.4,0.4,0.9,0.6,1.3l-0.6,0.4c0.3,0.4,0.6,0.9,0.9,1.3l0.6-0.5c0.3,0.4,0.6,0.7,1,1l-0.5,0.6c0.4,0.3,0.8,0.6,1.3,0.9l0.4-0.6
	c0.4,0.2,0.8,0.4,1.3,0.6l-0.3,0.7c0.5,0.2,1,0.3,1.5,0.4l-0.1-0.7c0.5,0.1,1.2,0.1,1.2,0.1v0.7c1,0,1.2,0,1.7-0.1l0-0.7
	c0.5-0.1,1-0.2,1.4-0.4l0.3,0.7c0.5-0.2,1-0.4,1.4-0.6l-0.4-0.6c0.4-0.2,0.8-0.5,1.2-0.8l0.5,0.6c0.4-0.3,0.8-0.7,1.1-1.1l-0.6-0.5
	c0.3-0.4,0.6-0.7,0.8-1.1l0.6,0.4c0.3-0.4,0.5-0.9,0.6-1.4l-0.7-0.3c0.2-0.4,0.3-0.9,0.4-1.4l0.7,0.3c0.1-0.5,0.1-1.3,0.1-1.3l0,0
	h-0.7c0-1,0-1.1-0.1-1.6l0.7-0.2c-0.1-0.5-0.2-1.1-0.4-1.5l-0.7,0.2c-0.2-0.4-0.4-0.9-0.6-1.3l0.6-0.4c-0.3-0.4-0.6-0.9-0.9-1.3
	l-0.6,0.5c-0.3-0.4-0.6-0.7-1-1l0.5-0.6c-0.4-0.3-0.8-0.6-1.3-0.9l-0.4,0.6c-0.4-0.2-0.8-0.4-1.3-0.6l0.3-0.7
	c-0.5-0.2-1-0.3-1.5-0.4l-0.3,0.7c-0.5-0.1-0.6-0.1-1.6-0.1v-0.7c0,0-0.8,0-1.3,0.1L641,184.7z"/>
<path class="st18" d="M641,221c-0.5,0.1-0.9,0.2-1.4,0.4l-0.3-0.7c-0.5,0.2-0.9,0.4-1.4,0.6l0.4,0.6c-0.4,0.2-0.8,0.5-1.1,0.8
	l-0.5-0.6c-0.4,0.3-0.8,0.7-1.1,1.1l0.6,0.5c-0.3,0.4-0.6,0.7-0.8,1.1l-0.6-0.4c-0.3,0.4-0.5,0.9-0.6,1.4l0.7,0.3
	c-0.2,0.4-0.3,0.9-0.4,1.4l-0.7-0.1c-0.1,0.5-0.1,0.6-0.1,1.6l0,0h0.7c0,0,0,0.9,0.1,1.4l-0.7,0.1c0.1,0.5,0.2,1,0.4,1.5l0.7-0.3
	c0.2,0.4,0.4,0.9,0.6,1.3l-0.6,0.4c0.3,0.4,0.6,0.9,0.9,1.3l0.6-0.5c0.3,0.4,0.6,0.7,1,1l-0.5,0.6c0.4,0.3,0.8,0.6,1.3,0.9l0.4-0.6
	c0.4,0.2,0.8,0.4,1.3,0.6l-0.3,0.7c0.5,0.2,1,0.3,1.5,0.4l-0.1-0.7c0.5,0.1,1.2,0.1,1.2,0.1v0.7c1,0,1.2,0,1.7-0.1l0-0.7
	c0.5-0.1,1-0.2,1.4-0.4l0.3,0.7c0.5-0.2,1-0.4,1.4-0.6l-0.4-0.6c0.4-0.2,0.8-0.5,1.2-0.8l0.5,0.6c0.4-0.3,0.8-0.7,1.1-1.1l-0.6-0.5
	c0.3-0.4,0.6-0.7,0.8-1.1l0.6,0.4c0.3-0.4,0.5-0.9,0.6-1.4l-0.7-0.3c0.2-0.4,0.3-0.9,0.4-1.4l0.7,0.2c0.1-0.5,0.1-1.5,0.1-1.5l0,0
	h-0.7c0-1,0-1-0.1-1.4l0.7-0.1c-0.1-0.5-0.2-1-0.4-1.5l-0.7,0.3c-0.2-0.4-0.4-0.9-0.6-1.3l0.6-0.4c-0.3-0.4-0.6-0.9-0.9-1.3
	l-0.6,0.5c-0.3-0.4-0.6-0.7-1-1l0.5-0.6c-0.4-0.3-0.8-0.6-1.3-0.9l-0.4,0.6c-0.4-0.2-0.8-0.4-1.3-0.6l0.3-0.7
	c-0.5-0.2-1-0.3-1.5-0.4l-0.3,0.7c-0.5-0.1-0.6-0.1-1.6-0.1v-0.7c0,0-0.8,0-1.3,0.1L641,221z"/>
<line class="st19" x1="650" y1="193" x2="650" y2="230"/>
<line class="st19" x1="636" y1="191" x2="636" y2="229"/>
<path class="st18" d="M902.7,215.1c-0.8,0.1-1.6,0.3-2.3,0.6l-0.4-1.2c-0.8,0.3-1.6,0.7-2.4,1.1l0.6,1.1c-0.7,0.4-1.3,0.9-2,1.4
	l-0.8-1c-0.7,0.6-1.3,1.2-1.8,1.8l1,0.8c-0.5,0.6-1,1.3-1.4,2l-1.1-0.6c-0.4,0.8-0.8,1.5-1.1,2.4l1.2,0.4c-0.3,0.7-0.5,1.5-0.6,2.3
	l-1.3,0c-0.1,0.8-0.2,1.8-0.2,2.8l0,0h1.3c0,0,0.1,1.4,0.2,2.2l-1.3,0.1c0.2,0.9,0.4,1.7,0.7,2.5l1.2-0.5c0.3,0.8,0.6,1.5,1,2.2
	l-1.1,0.6c0.4,0.8,0.9,1.5,1.5,2.1l1-0.8c0.5,0.6,1.1,1.2,1.7,1.7l-0.8,1c0.7,0.6,1.4,1.1,2.1,1.5l0.6-1.1c0.7,0.4,1.4,0.7,2.2,1
	l-0.4,1.2c0.8,0.3,1.7,0.5,2.5,0.7l0.2-1.3c0.8,0.1,1.3,0.2,2.3,0.2v1.3c1,0,1.8-0.1,2.7-0.2l-0.2-1.3c0.8-0.1,1.6-0.3,2.3-0.6
	l0.4,1.2c0.8-0.3,1.6-0.7,2.4-1.1l-0.6-1.1c0.7-0.4,1.3-0.9,2-1.4l0.8,1c0.7-0.6,1.3-1.2,1.8-1.8l-1-0.8c0.5-0.6,1-1.3,1.4-2
	l1.1,0.6c0.4-0.8,0.8-1.5,1.1-2.4l-1.2-0.4c0.3-0.7,0.5-1.5,0.6-2.3l1.3,0.4c0.1-0.8,0.2-2.4,0.2-2.4l0,0h-1.3c0-1-0.1-1.8-0.2-2.6
	l1.3-0.3c-0.2-0.9-0.4-1.8-0.7-2.6l-1.2,0.4c-0.3-0.8-0.6-1.5-1-2.2l1.1-0.6c-0.4-0.8-0.9-1.5-1.5-2.1l-1,0.8
	c-0.5-0.6-1.1-1.2-1.7-1.7l0.8-1c-0.7-0.6-1.4-1.1-2.1-1.5l-0.6,1.1c-0.7-0.4-1.4-0.7-2.2-1l0.4-1.2c-0.8-0.3-1.7-0.5-2.5-0.7
	l-0.3,1.3c-0.8-0.1-1.5-0.2-2.5-0.2v-1.3c-1,0-1.7,0.1-2.5,0.2L902.7,215.1z"/>
<line class="st20" x1="917.5" y1="1" x2="917.5" y2="229"/>
<line class="st20" x1="893.5" y1="0" x2="893.5" y2="228"/>
<path class="st1" d="M162.4,257.7c0.3,0.1,0.7,0.2,1,0.2C163,257.9,162.7,257.8,162.4,257.7z"/>
<path class="st1" d="M161.5,257.4c-0.2-0.1-0.4-0.2-0.5-0.3C161.1,257.2,161.3,257.3,161.5,257.4z"/>
<path class="st1" d="M160.7,256.9c-0.3-0.2-0.5-0.4-0.7-0.6C160.2,256.5,160.4,256.7,160.7,256.9z"/>
<path class="st1" d="M160.9,257.1c-0.1-0.1-0.2-0.1-0.3-0.2C160.8,257,160.9,257,160.9,257.1z"/>
<path class="st1" d="M163.4,258c-0.4,0-0.7-0.1-1-0.2C162.7,257.8,163,257.9,163.4,258z"/>
<path class="st1" d="M159.9,256.3C159.9,256.3,159.9,256.3,159.9,256.3C159.9,256.3,159.9,256.3,159.9,256.3z"/>
<path class="st1" d="M162.4,257.7c-0.1,0-0.1,0-0.2-0.1C162.2,257.7,162.3,257.7,162.4,257.7z"/>
<path class="st1" d="M162.2,257.7c-0.2-0.1-0.5-0.2-0.7-0.3C161.7,257.5,161.9,257.6,162.2,257.7z"/>
<rect x="19" y="251" class="st2" width="73" height="0"/>
<path class="st2" d="M92.1,254.6c2,0,3.7-1.6,3.7-3.6c0-2-1.7-3.6-3.7-3.6c-2,0-3.7,1.6-3.7,3.6C88.4,253,90,254.6,92.1,254.6z"/>
<path class="st2" d="M67.8,254.6c2,0,3.7-1.6,3.7-3.6c0-2-1.7-3.6-3.7-3.6s-3.7,1.6-3.7,3.6C64.1,253,65.7,254.6,67.8,254.6z"/>
<path class="st2" d="M43.5,254.6c2,0,3.7-1.6,3.7-3.6c0-2-1.7-3.6-3.7-3.6c-2,0-3.7,1.6-3.7,3.6C39.8,253,41.4,254.6,43.5,254.6z"/>
<path class="st2" d="M19.1,254.6c2,0,3.7-1.6,3.7-3.6c0-2-1.7-3.6-3.7-3.6s-3.7,1.6-3.7,3.6C15.4,253,17.1,254.6,19.1,254.6z"/>
<path class="st3" d="M43.5,253.2c1.2,0,2.2-1,2.2-2.2c0-1.2-1-2.2-2.2-2.2c-1.2,0-2.2,1-2.2,2.2C41.2,252.2,42.2,253.2,43.5,253.2z"
	/>
<path class="st3" d="M67.8,253.2c1.2,0,2.2-1,2.2-2.2c0-1.2-1-2.2-2.2-2.2c-1.2,0-2.2,1-2.2,2.2C65.5,252.2,66.5,253.2,67.8,253.2z"
	/>
<path class="st3" d="M92.1,253.2c1.2,0,2.2-1,2.2-2.2c0-1.2-1-2.2-2.2-2.2c-1.2,0-2.2,1-2.2,2.2C89.8,252.2,90.8,253.2,92.1,253.2z"
	/>
<path class="st3" d="M31.3,252.9c1.1,0,2-0.8,2-1.9c0-1-0.9-1.9-2-1.9c-1.1,0-1.9,0.8-1.9,1.9C29.4,252.1,30.2,252.9,31.3,252.9z"/>
<path class="st3" d="M55.6,252.9c1.1,0,2-0.8,2-1.9c0-1-0.9-1.9-2-1.9c-1.1,0-1.9,0.8-1.9,1.9C53.7,252.1,54.5,252.9,55.6,252.9z"/>
<path class="st3" d="M81.2,252.9c1.1,0,2-0.8,2-1.9c0-1-0.9-1.9-2-1.9c-1.1,0-1.9,0.8-1.9,1.9C79.2,252.1,80.1,252.9,81.2,252.9z"/>
<path class="st3" d="M19.1,253.2c1.2,0,2.2-1,2.2-2.2c0-1.2-1-2.2-2.2-2.2c-1.2,0-2.2,1-2.2,2.2C16.9,252.2,17.9,253.2,19.1,253.2z"
	/>
<path class="st1" d="M160.9,257.1c-0.1-0.1-0.2-0.1-0.3-0.2C160.8,257,160.9,257,160.9,257.1z"/>
<path class="st1" d="M161.5,257.4c-0.2-0.1-0.4-0.2-0.5-0.3C161.1,257.2,161.3,257.3,161.5,257.4z"/>
<path class="st1" d="M160.7,256.9c-0.3-0.2-0.5-0.4-0.7-0.6C160.2,256.5,160.4,256.7,160.7,256.9z"/>
<path class="st1" d="M162.2,257.7c-0.2-0.1-0.5-0.2-0.7-0.3C161.7,257.5,161.9,257.6,162.2,257.7z"/>
<path class="st1" d="M163.4,258c-0.4,0-0.7-0.1-1-0.2C162.7,257.8,163,257.9,163.4,258z"/>
<path class="st1" d="M159.9,256.3C159.9,256.3,159.9,256.3,159.9,256.3C159.9,256.3,159.9,256.3,159.9,256.3z"/>
<path class="st1" d="M162.4,257.7c-0.1,0-0.1,0-0.2-0.1C162.2,257.7,162.3,257.7,162.4,257.7z"/>
<rect x="92" y="251" class="st2" width="73" height="0"/>
<path class="st2" d="M165.2,254.6c2,0,3.7-1.6,3.7-3.6c0-2-1.7-3.6-3.7-3.6c-2,0-3.7,1.6-3.7,3.6C161.5,253,163.1,254.6,165.2,254.6
	z"/>
<path class="st2" d="M140.9,254.6c2,0,3.7-1.6,3.7-3.6c0-2-1.7-3.6-3.7-3.6s-3.7,1.6-3.7,3.6C137.2,253,138.8,254.6,140.9,254.6z"/>
<path class="st2" d="M116.6,254.6c2,0,3.7-1.6,3.7-3.6c0-2-1.7-3.6-3.7-3.6c-2,0-3.7,1.6-3.7,3.6C112.8,253,114.5,254.6,116.6,254.6
	z"/>
<path class="st2" d="M92.2,254.6c2,0,3.7-1.6,3.7-3.6c0-2-1.7-3.6-3.7-3.6c-2,0-3.7,1.6-3.7,3.6C88.5,253,90.2,254.6,92.2,254.6z"/>
<path class="st3" d="M116.6,253.2c1.2,0,2.2-1,2.2-2.2c0-1.2-1-2.2-2.2-2.2c-1.2,0-2.2,1-2.2,2.2
	C114.3,252.2,115.3,253.2,116.6,253.2z"/>
<path class="st3" d="M140.9,253.2c1.2,0,2.2-1,2.2-2.2c0-1.2-1-2.2-2.2-2.2c-1.2,0-2.2,1-2.2,2.2
	C138.6,252.2,139.6,253.2,140.9,253.2z"/>
<path class="st3" d="M165.2,253.2c1.2,0,2.2-1,2.2-2.2c0-1.2-1-2.2-2.2-2.2c-1.2,0-2.2,1-2.2,2.2
	C162.9,252.2,163.9,253.2,165.2,253.2z"/>
<path class="st3" d="M104.4,252.9c1.1,0,2-0.8,2-1.9c0-1-0.9-1.9-2-1.9c-1.1,0-1.9,0.8-1.9,1.9C102.5,252.1,103.3,252.9,104.4,252.9
	z"/>
<path class="st3" d="M128.7,252.9c1.1,0,2-0.8,2-1.9c0-1-0.9-1.9-2-1.9c-1.1,0-1.9,0.8-1.9,1.9C126.8,252.1,127.6,252.9,128.7,252.9
	z"/>
<path class="st3" d="M154.3,252.9c1.1,0,2-0.8,2-1.9c0-1-0.9-1.9-2-1.9c-1.1,0-1.9,0.8-1.9,1.9C152.3,252.1,153.2,252.9,154.3,252.9
	z"/>
<path class="st3" d="M92.2,253.2c1.2,0,2.2-1,2.2-2.2c0-1.2-1-2.2-2.2-2.2c-1.2,0-2.2,1-2.2,2.2C90,252.2,91,253.2,92.2,253.2z"/>
<path class="st1" d="M161.5,257.4c-0.2-0.1-0.4-0.2-0.5-0.3C161.1,257.2,161.3,257.3,161.5,257.4z"/>
<path class="st1" d="M160.9,257.1c-0.1-0.1-0.2-0.1-0.3-0.2C160.8,257,160.9,257,160.9,257.1z"/>
<path class="st1" d="M160.7,256.9c-0.3-0.2-0.5-0.4-0.7-0.6C160.2,256.5,160.4,256.7,160.7,256.9z"/>
<path class="st1" d="M162.2,257.7c-0.2-0.1-0.5-0.2-0.7-0.3C161.7,257.5,161.9,257.6,162.2,257.7z"/>
<path class="st1" d="M159.9,256.3C159.9,256.3,159.9,256.3,159.9,256.3C159.9,256.3,159.9,256.3,159.9,256.3z"/>
<path class="st1" d="M163.4,258c-0.4,0-0.7-0.1-1-0.2C162.7,257.8,163,257.9,163.4,258z"/>
<path class="st1" d="M162.4,257.7c-0.1,0-0.1,0-0.2-0.1C162.2,257.7,162.3,257.7,162.4,257.7z"/>
<rect x="165" y="251" class="st2" width="132" height="0"/>
<path class="st2" d="M237.9,254.6c2,0,3.7-1.6,3.7-3.6c0-2-1.7-3.6-3.7-3.6c-2,0-3.7,1.6-3.7,3.6C234.2,253,235.8,254.6,237.9,254.6
	z"/>
<path class="st2" d="M213.6,254.6c2,0,3.7-1.6,3.7-3.6c0-2-1.7-3.6-3.7-3.6s-3.7,1.6-3.7,3.6C209.9,253,211.5,254.6,213.6,254.6z"/>
<path class="st2" d="M189.3,254.6c2,0,3.7-1.6,3.7-3.6c0-2-1.7-3.6-3.7-3.6c-2,0-3.7,1.6-3.7,3.6C185.6,253,187.2,254.6,189.3,254.6
	z"/>
<path class="st2" d="M164.9,254.6c2,0,3.7-1.6,3.7-3.6c0-2-1.7-3.6-3.7-3.6s-3.7,1.6-3.7,3.6C161.2,253,162.9,254.6,164.9,254.6z"/>
<path class="st3" d="M189.3,253.2c1.2,0,2.2-1,2.2-2.2c0-1.2-1-2.2-2.2-2.2c-1.2,0-2.2,1-2.2,2.2C187,252.2,188,253.2,189.3,253.2z"
	/>
<path class="st3" d="M213.6,253.2c1.2,0,2.2-1,2.2-2.2c0-1.2-1-2.2-2.2-2.2c-1.2,0-2.2,1-2.2,2.2
	C211.3,252.2,212.3,253.2,213.6,253.2z"/>
<path class="st3" d="M237.9,253.2c1.2,0,2.2-1,2.2-2.2c0-1.2-1-2.2-2.2-2.2c-1.2,0-2.2,1-2.2,2.2
	C235.6,252.2,236.6,253.2,237.9,253.2z"/>
<path class="st3" d="M177.1,252.9c1.1,0,2-0.8,2-1.9c0-1-0.9-1.9-2-1.9c-1.1,0-1.9,0.8-1.9,1.9C175.2,252.1,176,252.9,177.1,252.9z"
	/>
<path class="st3" d="M201.4,252.9c1.1,0,2-0.8,2-1.9c0-1-0.9-1.9-2-1.9c-1.1,0-1.9,0.8-1.9,1.9C199.5,252.1,200.3,252.9,201.4,252.9
	z"/>
<path class="st3" d="M227,252.9c1.1,0,2-0.8,2-1.9c0-1-0.9-1.9-2-1.9c-1.1,0-1.9,0.8-1.9,1.9C225,252.1,225.9,252.9,227,252.9z"/>
<path class="st2" d="M265.8,254.6c2,0,3.7-1.6,3.7-3.6c0-2-1.7-3.6-3.7-3.6s-3.7,1.6-3.7,3.6C262.1,253,263.7,254.6,265.8,254.6z"/>
<path class="st3" d="M265.8,253.2c1.2,0,2.2-1,2.2-2.2c0-1.2-1-2.2-2.2-2.2c-1.2,0-2.2,1-2.2,2.2
	C263.5,252.2,264.6,253.2,265.8,253.2z"/>
<path class="st3" d="M251.6,252.9c1.1,0,2-0.8,2-1.9c0-1-0.9-1.9-2-1.9c-1.1,0-1.9,0.8-1.9,1.9C249.7,252.1,250.6,252.9,251.6,252.9
	z"/>
<path class="st3" d="M164.9,253.2c1.2,0,2.2-1,2.2-2.2c0-1.2-1-2.2-2.2-2.2c-1.2,0-2.2,1-2.2,2.2
	C162.7,252.2,163.7,253.2,164.9,253.2z"/>
<path class="st21" d="M15.5,237.2c-0.8,0.1-1.6,0.4-2.3,0.6l-0.5-1.2c-0.8,0.3-1.6,0.7-2.4,1.1l0.7,1.1c-0.7,0.4-1.3,0.9-1.9,1.4
	l-0.8-1c-0.7,0.6-1.3,1.2-1.8,1.9l1,0.8c-0.5,0.6-1,1.3-1.4,2l-1.1-0.6c-0.4,0.8-0.8,1.6-1.1,2.4l1.2,0.4c-0.3,0.7-0.5,1.5-0.6,2.3
	l-1.3-0.2c-0.1,0.8-0.2,1.7-0.2,2.6l0,0l1.3,0c0,0.8,0.1,1.6,0.2,2.4l-1.3,0.2c0.2,0.9,0.4,1.7,0.7,2.5l1.2-0.5
	c0.3,0.8,0.6,1.5,1,2.2l-1.1,0.7c0.4,0.8,1,1.5,1.5,2.1l1-0.8c0.5,0.6,1.1,1.2,1.7,1.7l-0.8,1c0.7,0.6,1.4,1,2.2,1.5l0.6-1.1
	c0.7,0.4,1.4,0.7,2.2,1l-0.4,1.2c0.8,0.3,1.7,0.5,2.5,0.6l0.2-1.3c0.8,0.1,1.6,0.2,2.4,0.2l0,1.3c0.9,0,1.8-0.1,2.6-0.3l-0.2-1.3
	c0.8-0.1,1.6-0.4,2.3-0.6l0.5,1.2c0.8-0.3,1.6-0.7,2.4-1.1l-0.7-1.1c0.7-0.4,1.3-0.9,1.9-1.4l0.8,1c0.7-0.6,1.3-1.2,1.8-1.9l-1-0.8
	c0.5-0.6,1-1.3,1.4-2l1.1,0.6c0.4-0.8,0.8-1.6,1.1-2.4l-1.2-0.4c0.3-0.7,0.5-1.5,0.6-2.3l1.3,0.2c0.1-0.8,0.2-1.7,0.2-2.6l0,0
	l-1.3,0c0-0.8-0.1-1.6-0.2-2.4l1.3-0.2c-0.2-0.9-0.4-1.7-0.7-2.5l-1.2,0.5c-0.3-0.8-0.6-1.5-1-2.2l1.1-0.7c-0.4-0.8-1-1.5-1.5-2.1
	l-1,0.8c-0.5-0.6-1.1-1.2-1.7-1.7l0.8-1c-0.7-0.6-1.4-1-2.2-1.5l-0.6,1.1c-0.7-0.4-1.4-0.7-2.2-1l0.4-1.2c-0.8-0.3-1.7-0.5-2.5-0.6
	l-0.2,1.3c-0.8-0.1-1.6-0.2-2.4-0.2l0-1.3c-0.9,0-1.8,0.1-2.6,0.3L15.5,237.2z"/>
<path class="st2" d="M320.4,254.5c2,0,3.6-1.6,3.6-3.6c0-2-1.6-3.6-3.6-3.6c-2,0-3.6,1.6-3.6,3.6
	C316.9,252.9,318.5,254.5,320.4,254.5z"/>
<path class="st2" d="M295.1,254.5c2,0,3.6-1.6,3.6-3.6c0-2-1.6-3.6-3.6-3.6c-2,0-3.6,1.6-3.6,3.6
	C291.6,252.9,293.2,254.5,295.1,254.5z"/>
<path class="st3" d="M320.4,253.1c1.2,0,2.2-1,2.2-2.2c0-1.2-1-2.2-2.2-2.2c-1.2,0-2.2,1-2.2,2.2
	C318.3,252.1,319.3,253.1,320.4,253.1z"/>
<path class="st3" d="M307.8,252.8c1,0,1.9-0.8,1.9-1.9c0-1-0.8-1.9-1.9-1.9c-1,0-1.9,0.8-1.9,1.9C305.9,252,306.7,252.8,307.8,252.8
	z"/>
<path class="st3" d="M281.2,252.8c1,0,1.9-0.8,1.9-1.9c0-1-0.8-1.9-1.9-1.9c-1,0-1.9,0.8-1.9,1.9C279.4,252,280.2,252.8,281.2,252.8
	z"/>
<path class="st3" d="M332.1,252.8c1,0,1.9-0.8,1.9-1.9c0-1-0.8-1.9-1.9-1.9c-1,0-1.9,0.8-1.9,1.9C330.2,252,331.1,252.8,332.1,252.8
	z"/>
<path class="st3" d="M295.1,253.1c1.2,0,2.2-1,2.2-2.2c0-1.2-1-2.2-2.2-2.2c-1.2,0-2.2,1-2.2,2.2C293,252.1,293.9,253.1,295.1,253.1
	z"/>
<path class="st7" d="M596.7,176.9h-49.1c-1.1,0-2-0.9-2-2V164c0-1.1,0.9-2,2-2h49.1c1.1,0,2,0.9,2,2v10.9
	C598.7,176,597.8,176.9,596.7,176.9z"/>
</svg>
