<!-- Generator: Adobe Illustrator 19.0.0, SVG Export Plug-In  -->
<svg version="1.1"
	 xmlns="http://www.w3.org/2000/svg" xmlns:xlink="http://www.w3.org/1999/xlink" xmlns:a="http://ns.adobe.com/AdobeSVGViewerExtensions/3.0/"
	 x="0px" y="0px" width="331.1px" height="229px" viewBox="0 0 331.1 229" style="enable-background:new 0 0 331.1 229;"
	 xml:space="preserve">
<style type="text/css">
	.st0{fill:#B1C4CE;}
	.st1{fill:#22648A;}
	.st2{fill-rule:evenodd;clip-rule:evenodd;fill:#374F4E;}
	
		.st3{fill-rule:evenodd;clip-rule:evenodd;fill:none;stroke:#374F4E;stroke-linecap:round;stroke-linejoin:round;stroke-miterlimit:22.9256;}
	.st4{fill-rule:evenodd;clip-rule:evenodd;fill:#B9D6D4;}
	.st5{fill-rule:evenodd;clip-rule:evenodd;fill:#FFFFFF;}
	.st6{fill:#11354B;}
	.st7{fill:#E72B48;}
	.st8{fill:none;stroke:#1D1D1B;stroke-miterlimit:10;}
	.st9{fill:none;stroke:#11354B;stroke-miterlimit:10;}
	.st10{fill:#9E8174;}
	.st11{fill:none;stroke:#1D1D1B;stroke-width:0.75;stroke-miterlimit:10;}
	
		.st12{fill-rule:evenodd;clip-rule:evenodd;fill:none;stroke:#D3EBEB;stroke-width:6;stroke-linecap:round;stroke-linejoin:round;stroke-miterlimit:22.9256;}
	.st13{fill:none;stroke:#CCCCCC;stroke-width:3;stroke-miterlimit:22.9256;}
</style>
<defs>
</defs>
<rect x="149" y="56.6" class="st0" width="109" height="54.6"/>
<polygon class="st1" points="315,144 315,151 315,151 315,177 309,177 309,151 290,151 290,144 "/>
<g>
	<path class="st2" d="M159.4,100H49c-5.1,0-9.3,3.2-9.3,7l0,0c0,3.8,4.2,7,9.3,7h110.4c5.1,0,9.3-3.2,9.3-7l0,0
		C168.7,103.2,164.5,100,159.4,100z"/>
	<path class="st3" d="M160.6,99.5H47.2c-5.3,0-9.6,3.5-9.6,8l0,0c0,4.5,4.3,8,9.6,8h113.4c5.3,0,9.6-3.5,9.6-8l0,0
		C170.2,103,165.9,99.5,160.6,99.5z"/>
	<rect x="46" y="107" class="st4" width="115" height="1"/>
	<path class="st4" d="M113.7,110.8c1.9,0,3.5-1.6,3.5-3.6c0-2-1.6-3.6-3.5-3.6c-1.9,0-3.5,1.6-3.5,3.6
		C110.3,109.2,111.8,110.8,113.7,110.8z"/>
	<path class="st4" d="M91.1,110.8c1.9,0,3.5-1.6,3.5-3.6c0-2-1.6-3.6-3.5-3.6s-3.5,1.6-3.5,3.6C87.6,109.2,89.2,110.8,91.1,110.8z"
		/>
	<path class="st4" d="M68.4,110.8c1.9,0,3.5-1.6,3.5-3.6c0-2-1.6-3.6-3.5-3.6c-1.9,0-3.5,1.6-3.5,3.6
		C65,109.2,66.5,110.8,68.4,110.8z"/>
	<path class="st4" d="M45.7,110.8c1.9,0,3.5-1.6,3.5-3.6c0-2-1.6-3.6-3.5-3.6c-1.9,0-3.5,1.6-3.5,3.6
		C42.3,109.2,43.8,110.8,45.7,110.8z"/>
	<path class="st5" d="M68.4,109.4c1.2,0,2.1-1,2.1-2.2c0-1.2-0.9-2.2-2.1-2.2c-1.2,0-2.1,1-2.1,2.2
		C66.3,108.4,67.3,109.4,68.4,109.4z"/>
	<path class="st5" d="M91.1,109.4c1.2,0,2.1-1,2.1-2.2c0-1.2-0.9-2.2-2.1-2.2c-1.2,0-2.1,1-2.1,2.2C89,108.4,89.9,109.4,91.1,109.4z
		"/>
	<path class="st5" d="M113.7,109.4c1.2,0,2.1-1,2.1-2.2c0-1.2-0.9-2.2-2.1-2.2c-1.2,0-2.1,1-2.1,2.2
		C111.6,108.4,112.6,109.4,113.7,109.4z"/>
	<path class="st5" d="M57.1,109.1c1,0,1.8-0.8,1.8-1.9c0-1-0.8-1.9-1.8-1.9c-1,0-1.8,0.8-1.8,1.9C55.3,108.2,56.1,109.1,57.1,109.1z
		"/>
	<path class="st5" d="M79.7,109.1c1,0,1.8-0.8,1.8-1.9c0-1-0.8-1.9-1.8-1.9c-1,0-1.8,0.8-1.8,1.9C77.9,108.2,78.7,109.1,79.7,109.1z
		"/>
	<path class="st5" d="M103.6,109.1c1,0,1.8-0.8,1.8-1.9c0-1-0.8-1.9-1.8-1.9c-1,0-1.8,0.8-1.8,1.9
		C101.8,108.2,102.6,109.1,103.6,109.1z"/>
	<path class="st5" d="M45.7,109.4c1.2,0,2.1-1,2.1-2.2c0-1.2-0.9-2.2-2.1-2.2c-1.2,0-2.1,1-2.1,2.2
		C43.7,108.4,44.6,109.4,45.7,109.4z"/>
	<path class="st4" d="M136.2,111.2c1.9,0,3.5-1.6,3.5-3.6c0-2-1.6-3.6-3.5-3.6c-1.9,0-3.5,1.6-3.5,3.6
		C132.8,109.6,134.3,111.2,136.2,111.2z"/>
	<path class="st5" d="M136.2,109.8c1.2,0,2.1-1,2.1-2.2c0-1.2-0.9-2.2-2.1-2.2c-1.2,0-2.1,1-2.1,2.2
		C134.1,108.8,135.1,109.8,136.2,109.8z"/>
	<path class="st4" d="M160.7,111.2c1.9,0,3.5-1.6,3.5-3.6c0-2-1.6-3.6-3.5-3.6c-1.9,0-3.5,1.6-3.5,3.6
		C157.2,109.6,158.8,111.2,160.7,111.2z"/>
	<path class="st5" d="M160.7,109.8c1.2,0,2.1-1,2.1-2.2c0-1.2-0.9-2.2-2.1-2.2c-1.2,0-2.1,1-2.1,2.2
		C158.6,108.8,159.5,109.8,160.7,109.8z"/>
	<path class="st5" d="M125.1,109.5c1,0,1.8-0.8,1.8-1.9c0-1-0.8-1.9-1.8-1.9c-1,0-1.8,0.8-1.8,1.9
		C123.3,108.6,124.1,109.5,125.1,109.5z"/>
	<path class="st5" d="M147.6,109.5c1,0,1.8-0.8,1.8-1.9c0-1-0.8-1.9-1.8-1.9c-1,0-1.8,0.8-1.8,1.9
		C145.8,108.6,146.6,109.5,147.6,109.5z"/>
</g>
<rect x="278" class="st6" width="32" height="3"/>
<polygon class="st7" points="278.8,3.1 309.9,3.1 301.5,18 287.3,18 "/>
<polyline class="st6" points="290,20 287,20 287,18 302,18 302,20 298,20 "/>
<rect x="290.5" y="20.5" class="st8" width="8" height="1"/>
<line class="st6" x1="302" y1="24" x2="287" y2="24"/>
<path class="st1" d="M290.7,41.3c1-0.3,2.2-0.5,3.6-0.5c1.4,0,2.6,0.3,3.6,0.6c0-5.1,0-11.4,0-16.4h-7.2
	C290.7,30,290.7,36.3,290.7,41.3z"/>
<polyline class="st1" points="283,41.9 278.6,37.1 278.5,34 280,34 280,36.5 284.3,41 "/>
<circle class="st7" cx="279.1" cy="31.9" r="3.2"/>
<rect x="273" y="107" class="st6" width="42" height="3"/>
<line class="st6" x1="314.6" y1="108.1" x2="273.2" y2="108.3"/>
<rect x="276" y="49" class="st7" width="36" height="58"/>
<ellipse class="st9" cx="294.1" cy="68.1" rx="4.6" ry="4.7"/>
<circle class="st9" cx="294.1" cy="68" r="8.5"/>
<circle class="st9" cx="298.6" cy="62.9" r="0.7"/>
<circle class="st9" cx="293.7" cy="61" r="0.7"/>
<circle class="st9" cx="289" cy="63.4" r="0.7"/>
<circle class="st9" cx="287.2" cy="68.1" r="0.7"/>
<circle class="st9" cx="289.4" cy="72.8" r="0.7"/>
<circle class="st9" cx="294.3" cy="74.7" r="0.7"/>
<circle class="st9" cx="299" cy="72.3" r="0.7"/>
<circle class="st9" cx="300.9" cy="67.6" r="0.7"/>
<path class="st7" d="M311.8,109.8c-0.5,0.7-6.6,9.2-17.6,9.1c-10.7-0.1-16.6-8.4-17.2-9.2"/>
<path class="st1" d="M289.8,121h8.1c0,0,0-1.6,0-2.5c-1,0.2-2.3,0.5-3.8,0.5c-1.6,0-3.1-0.4-4.2-0.6
	C289.9,119.3,289.9,120,289.8,121z"/>
<rect x="288" y="122" class="st1" width="12" height="4"/>
<line class="st8" x1="300" y1="124.5" x2="288" y2="124.5"/>
<rect x="290" y="126" class="st6" width="8" height="25"/>
<path class="st6" d="M283,156.9c0,2.4,0.1,4.7,0.1,7.1c0.8,0.1,6.3,0.6,10.7-3.5c4-3.7,4.2-8.5,4.2-9.5c-2.7,0-5.4,0-8.1,0
	c0,0,0.1,2.6-1.6,4.3C286.1,157.5,283.2,157,283,156.9z"/>
<rect x="276" y="157" class="st1" width="7" height="7"/>
<polygon class="st6" points="271,162.2 276,164.1 276,156.9 271,158.8 "/>
<path class="st1" d="M92.3,175H70v-1.4c0,0,1.7,0.2,3-0.8c0.8-0.6,1.1-1.6,1.2-2c1.1,0.7,3.8,2.4,7.4,2.3c3.1,0,5.4-1.5,6.5-2.1
	c0.2,0.3,0.6,1.4,1.4,2c1,0.7,2.1,0.6,2.4,0.5C92.2,174,92.2,175,92.3,175z"/>
<path class="st6" d="M78.1,142c2.5,0,4.9,0,7.4,0c0.2,1,0.7,2.8-0.1,4.9c-0.4,1.1-1,1.9-1.5,2.4c1-0.1,3.3-0.1,5.7,1.3
	c3.5,2.1,4.3,5.8,4.6,6.9c1.3,5.9-2.5,10.6-2.8,11c-0.5,0.6-4.1,4.7-10,4.6c-0.5,0-6-0.2-9.5-4.4c-2.1-2.5-2.6-5.2-2.8-6.4
	c-0.2-1-0.5-3.4,0.3-6.4c0.2-0.9,1.1-3.9,3.7-6.5c1.4-1.4,2.2-1.5,3.4-3.1C77.4,144.8,77.9,143,78.1,142z"/>
<rect x="76" y="138" class="st1" width="12" height="4"/>
<line class="st8" x1="76" y1="140.5" x2="88" y2="140.5"/>
<path class="st1" d="M84.4,138h-5.3c-0.1,0-0.3-3.4,1.7-6c2.7-3.4,7.2-3.1,7.2-3.1c0,1.3,0,2.6,0,3.8c0,0.1-1.8,0.2-2.9,1.8
	C83.9,136.2,84.4,138,84.4,138z"/>
<rect x="88" y="129" class="st6" width="46" height="4"/>
<rect x="134" y="127" class="st1" width="4" height="8"/>
<line class="st1" x1="136" y1="127" x2="136" y2="135"/>
<ellipse class="st6" cx="144.5" cy="130.7" rx="3.7" ry="3.5"/>
<ellipse class="st7" cx="144.4" cy="130.8" rx="4.8" ry="4.5"/>
<path class="st6" d="M140.4,132.9c-0.9,0-2.4,0-2.4,0v-4.2c0,0,1.5,0,2.3,0c-0.2,0.3-0.5,1-0.5,1.9
	C139.8,131.8,140.2,132.6,140.4,132.9z"/>
<path class="st6" d="M151,133c0,0-1.6-0.1-2.6-0.1c0.2-0.3,0.7-1.1,0.7-2.1c0-1-0.5-1.8-0.7-2.1c0.9,0,2.6,0,2.6,0V133z"/>
<rect x="151" y="127" class="st1" width="4" height="8"/>
<line class="st1" x1="153" y1="127" x2="153" y2="135"/>
<polygon class="st6" points="194.5,133 155,133 155,128.7 194.4,128.8 "/>
<path class="st1" d="M194,133c0-1.4,0-2.8,0-4.2c1,0,1.8,0.1,2.9-0.9c1.3-1.2,1.4-2.9,1.3-2.9c1.5,0,3,0,4.4,0c0,0,0.1,3.7-2.6,6.2
	C197.6,133.4,195,133,194,133z"/>
<rect x="198" y="116" class="st6" width="5" height="9"/>
<polygon class="st6" points="141,162 93.2,162 93.6,158 141,158 "/>
<rect x="141" y="156" class="st1" width="3" height="8"/>
<line class="st1" x1="143" y1="156" x2="143" y2="164"/>
<ellipse class="st6" cx="151.4" cy="160.2" rx="3.7" ry="3.5"/>
<ellipse class="st7" cx="151.3" cy="160.3" rx="4.8" ry="4.5"/>
<path class="st6" d="M146.9,162.4c-0.9,0-1.9,0-2.9,0v-4.2c1,0,1.9,0,2.8,0c-0.2,0.3-0.5,1-0.5,1.9
	C146.3,161.3,146.7,162.1,146.9,162.4z"/>
<path class="st6" d="M158,162.4c-1,0-1.7-0.1-2.6-0.1c0.2-0.3,0.6-1.1,0.7-2.1c0-1-0.5-1.8-0.7-2.1c0.9,0,1.6,0,2.6,0V162.4z"/>
<rect x="158" y="156" class="st1" width="4" height="8"/>
<line class="st1" x1="160" y1="156" x2="160" y2="164"/>
<polygon class="st6" points="201.4,162 162,162 162,158.2 201.4,158.1 "/>
<rect x="200" y="157" class="st1" width="3" height="8"/>
<line class="st1" x1="201" y1="157" x2="201" y2="165"/>
<ellipse class="st6" cx="210.3" cy="160.5" rx="3.7" ry="3.5"/>
<ellipse class="st7" cx="210.2" cy="160.6" rx="4.8" ry="4.5"/>
<path class="st6" d="M205.8,162.7c-0.9,0-1.8,0-2.8,0v-4.2c1,0,1.9,0,2.7,0c-0.2,0.3-0.5,1-0.5,1.9
	C205.2,161.6,205.6,162.4,205.8,162.7z"/>
<path class="st6" d="M217,162.8c-1,0-1.7-0.1-2.7-0.1c0.2-0.3,0.6-1.1,0.6-2.1c0-1-0.5-1.8-0.6-2.1c0.9,0,1.7,0,2.7,0V162.8z"/>
<rect x="217" y="157" class="st1" width="4" height="7"/>
<line class="st1" x1="219" y1="157" x2="219" y2="164"/>
<polygon class="st6" points="270.8,163 221,163 221,158.5 270.8,158.7 "/>
<rect y="178" class="st0" width="320" height="9"/>
<rect y="192" class="st0" width="320" height="8"/>
<path class="st0" d="M331.1,189.3c0,6-5.1,10.9-12.1,10.9v-8.1c1,0,3.1-1.3,3.1-2.9c0-1.6-2.1-2.8-3.1-2.8v-8.1
	C326,178.4,331.1,183.3,331.1,189.3z"/>
<rect x="150.5" y="98.5" class="st8" width="106" height="16"/>
<rect x="149" y="97" class="st10" width="109" height="20"/>
<path class="st6" d="M205.3,110.6l-49.9-5.3c-0.9-0.1-1.6-0.9-1.5-1.8l0.1-0.9c0.1-0.9,0.9-1.6,1.8-1.5l49.9,5.3
	c0.9,0.1,1.6,0.9,1.5,1.8l-0.1,0.9C207,110,206.2,110.7,205.3,110.6z"/>
<path class="st6" d="M248.6,110.1l-45.8-6.6c-0.9-0.1-1.5-1-1.4-1.9l0.1-0.9c0.1-0.9,1-1.5,1.9-1.4l45.8,6.6c0.9,0.1,1.5,1,1.4,1.9
	l-0.1,0.9C250.4,109.6,249.5,110.2,248.6,110.1z"/>
<path class="st0" d="M244.3,99.6l0.7-0.3c0.7-0.3,1.6,0,1.9,0.7l3.7,8.1c0.3,0.7,0,1.6-0.7,1.9l-0.7,0.3c-0.7,0.3-1.6,0-1.9-0.7
	l-3.7-8.1C243.2,100.8,243.5,99.9,244.3,99.6z"/>
<path class="st0" d="M202.4,99.2l0.8-0.2c0.8-0.2,1.6,0.3,1.8,1l2.3,8.6c0.2,0.8-0.3,1.6-1,1.8l-0.8,0.2c-0.8,0.2-1.6-0.3-1.8-1
	l-2.3-8.6C201.1,100.2,201.6,99.4,202.4,99.2z"/>
<path class="st0" d="M155,101.2l0.8-0.2c0.8-0.2,1.6,0.3,1.8,1l2.3,8.6c0.2,0.8-0.3,1.6-1,1.8l-0.8,0.2c-0.8,0.2-1.6-0.3-1.8-1
	l-2.3-8.6C153.7,102.2,154.2,101.4,155,101.2z"/>
<circle class="st11" cx="205" cy="108.6" r="0.8"/>
<circle class="st11" cx="156.1" cy="103.2" r="0.8"/>
<circle class="st11" cx="248.8" cy="108" r="0.8"/>
<circle class="st11" cx="245.6" cy="101.3" r="0.8"/>
<circle class="st11" cx="203.3" cy="101.3" r="0.8"/>
<rect x="287" y="21" class="st6" width="15" height="5"/>
<path class="st7" d="M312.4,47.1c-0.5-0.7-7-9.2-18.5-9.1c-11.3,0.1-17.4,8.4-18,9.2"/>
<rect x="274" y="46" class="st6" width="41" height="3"/>
<line class="st6" x1="315" y1="47.6" x2="273.7" y2="47.7"/>
<path class="st12" d="M43.6,94.1c-0.8,0.1-1.6,0.3-2.3,0.6l-0.4-1.2c-0.8,0.3-1.6,0.7-2.4,1.1l0.6,1.1c-0.7,0.4-1.3,0.9-2,1.4
	l-0.8-1c-0.7,0.6-1.3,1.2-1.8,1.8l1,0.8c-0.5,0.6-1,1.3-1.4,2l-1.1-0.6c-0.4,0.8-0.8,1.5-1.1,2.4l1.2,0.4c-0.3,0.7-0.5,1.5-0.6,2.3
	l-1.3,0c-0.1,0.8-0.2,1.8-0.2,2.8l0,0h1.3c0,0,0.1,1.4,0.2,2.2l-1.3,0.1c0.2,0.9,0.4,1.7,0.7,2.5l1.2-0.5c0.3,0.8,0.6,1.5,1,2.2
	l-1.1,0.6c0.4,0.8,0.9,1.5,1.5,2.1l1-0.8c0.5,0.6,1.1,1.2,1.7,1.7l-0.8,1c0.7,0.6,1.4,1.1,2.1,1.5l0.6-1.1c0.7,0.4,1.4,0.7,2.2,1
	l-0.4,1.2c0.8,0.3,1.7,0.5,2.5,0.7l0.3-1.3c0.8,0.1,1.4,0.2,2.4,0.2v1.3c1,0,1.7-0.1,2.6-0.2l-0.2-1.3c0.8-0.1,1.6-0.3,2.3-0.6
	l0.4,1.2c0.8-0.3,1.6-0.7,2.4-1.1l-0.6-1.1c0.7-0.4,1.3-0.9,2-1.4l0.8,1c0.7-0.6,1.3-1.2,1.8-1.8l-1-0.8c0.5-0.6,1-1.3,1.4-2
	l1.1,0.6c0.4-0.8,0.8-1.5,1.1-2.4l-1.2-0.4c0.3-0.7,0.5-1.5,0.6-2.3l1.3,0.4c0.1-0.8,0.2-2.4,0.2-2.4l0,0h-1.3c0-1-0.1-1.8-0.2-2.6
	l1.3-0.3c-0.2-0.9-0.4-1.8-0.7-2.6l-1.2,0.4c-0.3-0.8-0.6-1.5-1-2.2l1.1-0.6c-0.4-0.8-0.9-1.5-1.5-2.1l-1,0.8
	c-0.5-0.6-1.1-1.2-1.7-1.7l0.8-1c-0.7-0.6-1.4-1.1-2.1-1.5l-0.6,1.1c-0.7-0.4-1.4-0.7-2.2-1l0.4-1.2c-0.8-0.3-1.7-0.5-2.5-0.7
	l-0.2,1.3C47.6,94,47,93.9,46,93.9v-1.3c-1,0-1.8,0.1-2.6,0.2L43.6,94.1z"/>
<line class="st13" x1="59.5" y1="104" x2="59.5" y2="228"/>
<line class="st13" x1="33.5" y1="104" x2="33.5" y2="229"/>
</svg>
