<!-- Generator: Adobe Illustrator 19.2.1, SVG Export Plug-In  -->
<svg version="1.1"
	 xmlns="http://www.w3.org/2000/svg" xmlns:xlink="http://www.w3.org/1999/xlink" xmlns:a="http://ns.adobe.com/AdobeSVGViewerExtensions/3.0/"
	 x="0px" y="0px" width="14.3px" height="6.7px" viewBox="0 0 14.3 6.7" style="enable-background:new 0 0 14.3 6.7;"
	 xml:space="preserve">
<style type="text/css">
	.st0{fill:#11354B;}
	.st1{fill:#22648A;}
</style>
<defs>
</defs>
<g>
	<polygon class="st0" points="13.3,0 12.3,0.2 12.7,2.1 1.1,4.2 0,5.3 1.5,6.1 13,4.1 13.4,6.1 14.3,5.9 	"/>
	<polygon class="st1" points="11.7,1.3 11.2,1.4 10.2,5.6 10.7,5.5 	"/>
	<polygon class="st1" points="10.1,1.6 9.7,1.7 8.7,5.9 9.1,5.8 	"/>
	<polygon class="st1" points="8.5,1.8 8.1,1.9 7.1,6.2 7.5,6.1 	"/>
	<polygon class="st1" points="7,2.1 6.5,2.2 5.5,6.4 6,6.4 	"/>
	<polygon class="st1" points="5.4,2.4 5,2.5 4,6.7 4.4,6.6 	"/>
</g>
</svg>
