<!-- Generator: Adobe Illustrator 19.2.1, SVG Export Plug-In  -->
<svg version="1.1"
	 xmlns="http://www.w3.org/2000/svg" xmlns:xlink="http://www.w3.org/1999/xlink" xmlns:a="http://ns.adobe.com/AdobeSVGViewerExtensions/3.0/"
	 x="0px" y="0px" width="496.3px" height="65.3px" viewBox="0 0 496.3 65.3" style="enable-background:new 0 0 496.3 65.3;"
	 xml:space="preserve">
<style type="text/css">
	.st0{fill:#CBC6C9;}
	.st1{fill:#E1DFE7;}
</style>
<defs>
</defs>
<g>
	<g>
		<path class="st0" d="M85.2,3.4c-2.7,0-5,2.2-5,5c0,0.2,0,0.5,0.1,0.7c-0.9-0.9-2-1.4-3.4-1.4c-0.4,0-0.7,0-1.1,0.1
			C74.5,3.8,70.7,1,66.3,1c-4.1,0-7.6,2.4-9.2,5.9c-1.2-1.3-3-2.1-4.9-2.1c-3.2,0-5.8,2.2-6.6,5.1c-0.8-0.2-1.7-0.4-2.6-0.4
			c-3,0-5.7,1.4-7.4,3.6c-0.1-0.1-0.2-0.1-0.3-0.2c-0.8-4.1-4.5-7.2-8.8-7.2c-5,0-9,4-9,9c0,0.8,0.1,1.5,0.3,2.2
			c-5.7,0.3-10.2,5-10.2,10.7c0,0,0,0.1,0,0.1C3.8,28.6,1,32,1,36.1c0,1.6,0.4,3.1,1.2,4.4C0.8,42.3,0,44.6,0,47.1
			c0,3.8,1.9,7.2,4.8,9.2c0,0.1,0,0.2,0,0.4c0,3.6,3,6.6,6.6,6.6c3.6,0,6.6-3,6.6-6.6c0-0.1,0-0.2,0-0.4c2.6-1.9,4.4-4.8,4.7-8.1
			c5.7-0.9,10.1-5.8,10.1-11.8c0-1.5-0.3-2.9-0.7-4.2c0.5,0.3,1.1,0.4,1.7,0.4c2.2,0,4-1.8,4-4c0-0.3,0-0.5-0.1-0.8
			c0.2-0.2,0.4-0.4,0.6-0.7c1.4,0.8,3,1.2,4.7,1.2c5.2,0,9.4-4.2,9.4-9.4c0-0.2,0-0.3,0-0.5c2-0.1,3.8-1,5-2.4
			c1.7,3.1,5.1,5.3,8.9,5.3c3.6,0,6.8-1.9,8.6-4.7c0.6,0.3,1.3,0.5,2,0.5c2.6,0,4.7-2.1,4.7-4.7c0-0.2,0-0.4,0-0.6
			c0.9,0.9,2.2,1.5,3.6,1.5c2.7,0,5-2.2,5-5S87.9,3.4,85.2,3.4z"/>
		<circle class="st0" cx="95.1" cy="10.7" r="1.7"/>
	</g>
	<g>
		<path class="st1" d="M87.3,2.8c-2.7,0-5,2.2-5,5c0,0.2,0,0.5,0.1,0.7C81.5,7.6,80.4,7,79,7c-0.4,0-0.7,0-1.1,0.1
			c-1.4-3.9-5.1-6.7-9.6-6.7c-4.1,0-7.6,2.4-9.2,5.9c-1.2-1.3-3-2.1-4.9-2.1c-3.2,0-5.8,2.2-6.6,5.1C46.8,9,46,8.9,45.1,8.9
			c-3,0-5.7,1.4-7.4,3.6c-0.1-0.1-0.2-0.1-0.3-0.2c-0.8-4.1-4.5-7.2-8.8-7.2c-5,0-9,4-9,9c0,0.8,0.1,1.5,0.3,2.2
			c-5.7,0.3-10.2,5-10.2,10.7c0,0,0,0.1,0,0.1c-3.8,0.9-6.6,4.3-6.6,8.4c0,1.6,0.4,3.1,1.2,4.4c-1.4,1.9-2.1,4.2-2.1,6.6
			c0,3.8,1.9,7.2,4.8,9.2c0,0.1,0,0.2,0,0.4c0,3.6,3,6.6,6.6,6.6c3.6,0,6.6-3,6.6-6.6c0-0.1,0-0.2,0-0.4c2.6-1.9,4.4-4.8,4.7-8.1
			c5.7-0.9,10.1-5.8,10.1-11.8c0-1.5-0.3-2.9-0.7-4.2c0.5,0.3,1.1,0.4,1.7,0.4c2.2,0,4-1.8,4-4c0-0.3,0-0.5-0.1-0.8
			c0.2-0.2,0.4-0.4,0.6-0.7c1.4,0.8,3,1.2,4.7,1.2c5.2,0,9.4-4.2,9.4-9.4c0-0.2,0-0.3,0-0.5c2-0.1,3.8-1,5-2.4
			c1.7,3.1,5.1,5.3,8.9,5.3c3.6,0,6.8-1.9,8.6-4.7c0.6,0.3,1.3,0.5,2,0.5c2.6,0,4.7-2.1,4.7-4.7c0-0.2,0-0.4,0-0.6
			c0.9,0.9,2.2,1.5,3.6,1.5c2.7,0,5-2.2,5-5S90,2.8,87.3,2.8z"/>
		<circle class="st1" cx="97.2" cy="10.1" r="1.7"/>
	</g>
</g>
<g>
	<g>
		<path class="st0" d="M184,3.4c-2.7,0-5,2.2-5,5c0,0.2,0,0.5,0.1,0.7c-0.9-0.9-2-1.4-3.4-1.4c-0.4,0-0.7,0-1.1,0.1
			c-1.4-3.9-5.1-6.7-9.6-6.7c-4.1,0-7.6,2.4-9.2,5.9c-1.2-1.3-3-2.1-4.9-2.1c-3.2,0-5.8,2.2-6.6,5.1c-0.8-0.2-1.7-0.4-2.6-0.4
			c-3,0-5.7,1.4-7.4,3.6c-0.1-0.1-0.2-0.1-0.3-0.2c-0.8-4.1-4.5-7.2-8.8-7.2c-5,0-9,4-9,9c0,0.8,0.1,1.5,0.3,2.2
			c-5.7,0.3-10.2,5-10.2,10.7c0,0,0,0.1,0,0.1c-3.8,0.9-6.6,4.3-6.6,8.4c0,1.6,0.4,3.1,1.2,4.4c-1.4,1.9-2.1,4.2-2.1,6.6
			c0,3.8,1.9,7.2,4.8,9.2c0,0.1,0,0.2,0,0.4c0,3.6,3,6.6,6.6,6.6c3.6,0,6.6-3,6.6-6.6c0-0.1,0-0.2,0-0.4c2.6-1.9,4.4-4.8,4.7-8.1
			c5.7-0.9,10.1-5.8,10.1-11.8c0-1.5-0.3-2.9-0.7-4.2c0.5,0.3,1.1,0.4,1.7,0.4c2.2,0,4-1.8,4-4c0-0.3,0-0.5-0.1-0.8
			c0.2-0.2,0.4-0.4,0.6-0.7c1.4,0.8,3,1.2,4.7,1.2c5.2,0,9.4-4.2,9.4-9.4c0-0.2,0-0.3,0-0.5c2-0.1,3.8-1,5-2.4
			c1.7,3.1,5.1,5.3,8.9,5.3c3.6,0,6.8-1.9,8.6-4.7c0.6,0.3,1.3,0.5,2,0.5c2.6,0,4.7-2.1,4.7-4.7c0-0.2,0-0.4,0-0.6
			c0.9,0.9,2.2,1.5,3.6,1.5c2.7,0,5-2.2,5-5S186.8,3.4,184,3.4z"/>
		<circle class="st0" cx="193.9" cy="10.7" r="1.7"/>
	</g>
	<g>
		<path class="st1" d="M184.6,3c-2.7,0.7-3.4,4.7-3.4,4.8c0,0.2,0,0.5,0.1,0.7c-0.9-0.9-2-0.4-3.4-0.4c-0.4,0-0.7,0-1.1,0.1
			c-1.4-3.9-5.1-6.7-9.6-6.7c-4.1,0-7.6,2.4-9.2,5.9c-1.2-1.3-3-2.1-4.9-2.1c-3.2,0-5.8,1.2-6.6,4.1c-0.8-0.2-1.7-0.4-2.6-0.4
			c-3,0-5.7,1.4-7.4,3.6c-0.1-0.1-0.2-0.1-0.3-0.2c-0.8-4.1-4.5-5.2-8.8-5.2c-5,0-9,4-9,9c0,0.8,0.1,1.5,0.3,2.2
			c-5.7,0.3-10.2,5-10.2,10.7c0,0,0,0.1,0,0.1c-3.8,0.9-5.6,2.3-5.6,6.4c0,1.6,0.4,3.1,1.2,4.4c-1.4,1.9-2.1,4.2-2.1,6.6
			c0,3.8,1.9,7.2,4.8,9.2c0,0.1,0,0.2,0,0.4c0,3.6,2,6.6,5.6,6.6c3.6,0,6.6-3,6.6-6.6c0-0.1,0-0.2,0-0.4c2.6-1.9,4.4-4.8,4.7-8.1
			c5.7-0.9,10.1-5.8,10.1-11.8c0-1.5-0.3-2.9-0.7-4.2c0.5,0.3,1.1,0.4,1.7,0.4c2.2,0,4-3.8,4-6c0-0.3,0-0.5-0.1-0.8
			c0.2-0.2,0.4-0.4,0.6-0.7c1.4,0.8,3,1.2,4.7,1.2c5.2,0,9.4-4.2,9.4-9.4c0-0.2,0-0.3,0-0.5c2-0.1,3.8-1,5-2.4
			c1.7,3.1,5.1,5.3,8.9,5.3c3.6,0,6.8-0.9,8.6-3.7c0.6,0.3,1.3,0.5,2,0.5c2.6,0,4.7-1.1,4.7-3.7c0-0.2,0-0.4,0-0.6
			c0.9,0.9,2.2,1.5,3.6,1.5c2.7,0,5-2.2,5-5S188.3,2,184.6,3z"/>
		<circle class="st1" cx="196.1" cy="9.1" r="1.7"/>
	</g>
</g>
<g>
	<g>
		<path class="st0" d="M383.7,3.4c-2.7,0-5,2.2-5,5c0,0.2,0,0.5,0.1,0.7c-0.9-0.9-2-1.4-3.4-1.4c-0.4,0-0.7,0-1.1,0.1
			C373,3.8,369.3,1,364.9,1c-4.1,0-7.6,2.4-9.2,5.9c-1.2-1.3-3-2.1-4.9-2.1c-3.2,0-5.8,2.2-6.6,5.1c-0.8-0.2-1.7-0.4-2.6-0.4
			c-3,0-5.7,1.4-7.4,3.6c-0.1-0.1-0.2-0.1-0.3-0.2c-0.8-4.1-4.5-7.2-8.8-7.2c-5,0-9,4-9,9c0,0.8,0.1,1.5,0.3,2.2
			c-5.7,0.3-10.2,5-10.2,10.7c0,0,0,0.1,0,0.1c-3.8,0.9-6.6,4.3-6.6,8.4c0,1.6,0.4,3.1,1.2,4.4c-1.4,1.9-2.1,4.2-2.1,6.6
			c0,3.8,1.9,7.2,4.8,9.2c0,0.1,0,0.2,0,0.4c0,3.6,4,8.6,7.6,8.6c3.6,0,6.6-3,6.6-6.6c0-0.1,0-0.2,0-0.4c2.6-1.9,4.4-4.8,4.7-8.1
			c5.7-0.9,10.1-5.8,10.1-11.8c0-1.5-0.3-2.9-0.7-4.2c0.5,0.3,1.1,0.4,1.7,0.4c2.2,0,4-1.8,4-4c0-0.3,0-0.5-0.1-0.8
			c0.2-0.2,0.4-0.4,0.6-0.7c1.4,0.8,3,1.2,4.7,1.2c5.2,0,8.4-6.2,8.4-11.4c0-0.2,0-0.3,0-0.5c2-0.1,3.8-1,5-2.4
			c1.7,3.1,5.1,5.3,8.9,5.3c3.6,0,6.8-1.9,8.6-4.7c0.6,0.3,1.3,0.5,2,0.5c2.6,0,4.7-2.1,4.7-4.7c0-0.2,0-0.4,0-0.6
			c0.9,0.9,2.2,1.5,3.6,1.5c2.7,0,5-2.2,5-5S386.5,3.4,383.7,3.4z"/>
		<circle class="st0" cx="393.7" cy="9.7" r="1.7"/>
	</g>
	<g>
		<path class="st1" d="M385.9,2.8c-2.7,0-5,4.9-5,5c0,0.2,0,0.5,0.1,0.7c-0.9-0.9-2-0.4-3.4-0.4c-0.4,0-0.7,0-1.1,0.1
			c-1.4-3.9-5.1-6.7-9.6-6.7c-4.1,0-7.6,2.4-9.2,5.9c-1.2-1.3-3-2.1-4.9-2.1c-3.2,0-5.8,1.2-6.6,4.1c-0.8-0.2-1.7-0.4-2.6-0.4
			c-3,0-5.7,1.4-7.4,3.6c-0.1-0.1-0.2-0.1-0.3-0.2c-0.8-4.1-4.5-5.2-8.8-5.2c-5,0-9,4-9,9c0,0.8,0.1,1.5,0.3,2.2
			c-5.7,0.3-10.2,5-10.2,10.7c0,0,0,0.1,0,0.1c-3.8,0.9-5.6,2.3-5.6,6.4c0,1.6,0.4,3.1,1.2,4.4c-1.4,1.9-2.1,4.2-2.1,6.6
			c0,3.8,1.9,7.2,4.8,9.2c0,0.1,0,0.2,0,0.4c0,3.6,2,6.6,5.6,6.6c3.6,0,5.6-3,5.6-6.6c0-0.1,0-0.2,0-0.4c2.6-1.9,4.4-4.8,4.7-8.1
			c5.7-0.9,10.1-5.8,10.1-11.8c0-1.5-0.3-2.9-0.7-4.2c0.5,0.3,1.1,0.4,1.7,0.4c2.2,0,4-3.8,4-6c0-0.3,0-0.5-0.1-0.8
			c0.2-0.2,0.4-0.4,0.6-0.7c1.4,0.8,4,1.2,5.7,1.2c5.2,0,9.4-4.2,9.4-9.4c0-0.2,0-0.3,0-0.5c2-0.1,3.8-1,5-2.4
			c1.7,3.1,5.1,5.3,8.9,5.3c3.6,0,6.8-0.9,8.6-3.7c0.6,0.3,1.3,0.5,2,0.5c2.6,0,4.7-1.1,4.7-3.7c0-0.2,0-0.4,0-0.6
			c0.9,0.9,2.2,1.5,3.6,1.5c2.7,0,5-2.2,5-5S388.6,2.8,385.9,2.8z"/>
		<circle class="st1" cx="395.8" cy="9.1" r="1.7"/>
	</g>
</g>
<g>
	<g>
		<path class="st0" d="M482.6,3.4c-2.7,0-5,2.2-5,5c0,0.2,0,0.5,0.1,0.7c-0.9-0.9-2-1.4-3.4-1.4c-0.4,0-0.7,0-1.1,0.1
			c-1.4-3.9-5.1-6.7-9.6-6.7c-4.1,0-7.6,2.4-9.2,5.9c-1.2-1.3-3-2.1-4.9-2.1c-3.2,0-5.8,2.2-6.6,5.1c-0.8-0.2-1.7-0.4-2.6-0.4
			c-3,0-5.7,1.4-7.4,3.6c-0.1-0.1-0.2-0.1-0.3-0.2c-0.8-4.1-4.5-7.2-8.8-7.2c-5,0-9,4-9,9c0,0.8,0.1,1.5,0.3,2.2
			c-5.7,0.3-10.2,5-10.2,10.7c0,0,0,0.1,0,0.1c-3.8,0.9-6.6,4.3-6.6,8.4c0,1.6,0.4,3.1,1.2,4.4c-1.4,1.9-2.1,4.2-2.1,6.6
			c0,3.8,1.9,7.2,4.8,9.2c0,0.1,0,0.2,0,0.4c0,3.6,4,8.6,7.6,8.6c3.6,0,6.6-3,6.6-6.6c0-0.1,0-0.2,0-0.4c2.6-1.9,4.4-4.8,4.7-8.1
			c5.7-0.9,10.1-5.8,10.1-11.8c0-1.5-0.3-2.9-0.7-4.2c0.5,0.3,1.1,0.4,1.7,0.4c2.2,0,4-1.8,4-4c0-0.3,0-0.5-0.1-0.8
			c0.2-0.2,0.4-0.4,0.6-0.7c1.4,0.8,3,1.2,4.7,1.2c5.2,0,8.4-6.2,8.4-11.4c0-0.2,0-0.3,0-0.5c2-0.1,3.8-1,5-2.4
			c1.7,3.1,5.1,5.3,8.9,5.3c3.6,0,6.8-1.9,8.6-4.7c0.6,0.3,1.3,0.5,2,0.5c2.6,0,4.7-2.1,4.7-4.7c0-0.2,0-0.4,0-0.6
			c0.9,0.9,2.2,1.5,3.6,1.5c2.7,0,5-2.2,5-5S485.3,3.4,482.6,3.4z"/>
		<circle class="st0" cx="492.5" cy="9.7" r="1.7"/>
	</g>
	<g>
		<path class="st1" d="M484.7,1.8c-2.7,0-5,5.9-5,6c0,0.2,0,0.5,0.1,0.7c-0.9-0.9-2-0.4-3.4-0.4c-0.4,0-0.7,0-1.1,0.1
			c-1.4-3.9-5.1-7.7-9.6-7.7c-4.1,0-7.6,2.4-9.2,5.9c-1.2-1.3-3-2.1-4.9-2.1c-3.2,0-5.8,2.2-6.6,5.1c-0.8-0.2-1.7-0.4-2.6-0.4
			c-3,0-5.7-0.6-7.4,1.6c-0.1-0.1-0.2-0.1-0.3-0.2c-0.8-4.1-4.5-5.2-8.8-5.2c-5,0-9,4-9,9c0,0.8,0.1,1.5,0.3,2.2
			c-5.7,0.3-10.2,7-10.2,12.7c0,0,0,0.1,0,0.1c-3.8,0.9-5.6,2.3-5.6,6.4c0,1.6,0.4,3.1,1.2,4.4c-1.4,1.9-2.1,4.2-2.1,6.6
			c0,3.8,1.9,7.2,4.8,9.2c0,0.1,0,0.2,0,0.4c0,3.6,2,6.6,5.6,6.6c3.6,0,5.6-3,5.6-6.6c0-0.1,0-0.2,0-0.4c2.6-1.9,4.4-4.8,4.7-8.1
			c5.7-0.9,10.1-5.8,10.1-11.8c0-1.5-0.3-2.9-0.7-4.2c0.5,0.3,1.1,0.4,1.7,0.4c2.2,0,5-1.8,5-4c0-0.3,0-0.5-0.1-0.8
			c0.2-0.2,0.4-0.4,0.6-0.7c1.4,0.8,4,1.2,5.7,1.2c5.2,0,8.4-6.2,8.4-11.4c0-0.2,0-0.3,0-0.5c2-0.1,3.8,0,5-1.4
			c1.7,3.1,5.1,5.3,8.9,5.3c3.6,0,6.8-0.9,8.6-3.7c0.6,0.3,1.3,0.5,2,0.5c2.6,0,4.7-2.1,4.7-4.7c0-0.2,0-0.4,0-0.6
			c0.9,0.9,2.2,2.5,3.6,2.5c2.7,0,5-3.2,5-6S487.5,1.8,484.7,1.8z"/>
		<circle class="st1" cx="494.6" cy="11.1" r="1.7"/>
	</g>
</g>
<g>
	<g>
		<path class="st0" d="M284.9,3.4c-2.7,0-5,2.2-5,5c0,0.2,0,0.5,0.1,0.7c-0.9-0.9-2-1.4-3.4-1.4c-0.4,0-0.7,0-1.1,0.1
			C274.2,3.8,271.4,0,267,0c-4.1,0-7.6,2.4-9.2,5.9c-1.2-1.3-3-2.1-4.9-2.1c-3.2,0-5.8,2.2-6.6,5.1c-0.8-0.2-2.7,0.6-3.6,0.6
			c-3,0-5.7,1.4-7.4,3.6c-0.1-0.1-0.2-2.1-0.3-2.2c-0.8-4.1-4.5-7.2-8.8-7.2c-5,0-9,4-9,9c0,0.8,0.1,1.5,0.3,2.2
			c-5.7,0.3-10.2,5-10.2,10.7c0,0,0,0.1,0,0.1c-3.8,0.9-8.6,6.3-8.6,10.4c0,1.6,0.4,3.1,1.2,4.4c-1.4,1.9-2.1,4.2-2.1,6.6
			c0,3.8,1.9,7.2,4.8,9.2c0,0.1,0,0.2,0,0.4c0,3.6,5,6.6,8.6,6.6c3.6,0,6.6-3,6.6-6.6c0-0.1,0-0.2,0-0.4c2.6-1.9,4.4-4.8,4.7-8.1
			c5.7-0.9,10.1-5.8,10.1-11.8c0-1.5-0.3-2.9-0.7-4.2c0.5,0.3,1.1,0.4,1.7,0.4c2.2,0,4-1.8,4-4c0-0.3,0-0.5-0.1-0.8
			c0.2-0.2,0.4-0.4,0.6-0.7c1.4,0.8,3,1.2,4.7,1.2c5.2,0,10.4-2.2,10.4-7.4c0-0.2,0-0.3,0-0.5c2-0.1,3.8-1,5-2.4
			c1.7,3.1,4.1,3.3,7.9,3.3c3.6,0,6.8-1.9,8.6-4.7c0.6,0.3,1.3,0.5,2,0.5c2.6,0,4.7-2.1,4.7-4.7c0-0.2,0-0.4,0-0.6
			c0.9,0.9,2.2,1.5,3.6,1.5c2.7,0,5-2.2,5-5S287.6,3.4,284.9,3.4z"/>
		<circle class="st0" cx="294.8" cy="11.7" r="1.7"/>
	</g>
	<g>
		<path class="st1" d="M287,2.8c-2.7,0-5,4.9-5,5c0,0.2,0,0.5,0.1,0.7c-0.9-0.9-2-0.4-3.4-0.4c-0.4,0-0.7,0-1.1,0.1
			c-1.4-3.9-5.1-6.7-9.6-6.7c-4.1,0-7.6,2.4-9.2,5.9c-1.2-1.3-3-2.1-4.9-2.1c-3.2,0-5.8,1.2-6.6,4.1c-0.8-0.2-1.7-0.4-2.6-0.4
			c-3,0-5.7,1.4-7.4,3.6c-0.1-0.1-0.2-0.1-0.3-0.2c-0.8-4.1-4.5-5.2-8.8-5.2c-5,0-9,4-9,9c0,0.8,0.1,1.5,0.3,2.2
			c-5.7,0.3-10.2,5-10.2,10.7c0,0,0,0.1,0,0.1c-3.8,0.9-5.6,2.3-5.6,6.4c0,1.6,0.4,3.1,1.2,4.4c-1.4,1.9-2.1,4.2-2.1,6.6
			c0,3.8,1.9,7.2,4.8,9.2c0,0.1,0,0.2,0,0.4c0,3.6,2,6.6,5.6,6.6c3.6,0,6.6-3,6.6-6.6c0-0.1,0-0.2,0-0.4c2.6-1.9,4.4-4.8,4.7-8.1
			c5.7-0.9,10.1-5.8,10.1-11.8c0-1.5-0.3-2.9-0.7-4.2c0.5,0.3,1.1,0.4,1.7,0.4c2.2,0,4-3.8,4-6c0-0.3,0-0.5-0.1-0.8
			c0.2-0.2,0.4-0.4,0.6-0.7c1.4,0.8,3,1.2,4.7,1.2c5.2,0,9.4-4.2,9.4-9.4c0-0.2,0-0.3,0-0.5c2-0.1,3.8-1,5-2.4
			c1.7,3.1,5.1,5.3,8.9,5.3c3.6,0,6.8-0.9,8.6-3.7c0.6,0.3,1.3,0.5,2,0.5c2.6,0,4.7-1.1,4.7-3.7c0-0.2,0-0.4,0-0.6
			c0.9,0.9,2.2,1.5,3.6,1.5c2.7,0,5-2.2,5-5S289.7,2.8,287,2.8z"/>
		<circle class="st1" cx="296.9" cy="10.1" r="1.7"/>
	</g>
</g>
</svg>
