<!-- Generator: Adobe Illustrator 19.2.1, SVG Export Plug-In  -->
<svg version="1.1"
	 xmlns="http://www.w3.org/2000/svg" xmlns:xlink="http://www.w3.org/1999/xlink" xmlns:a="http://ns.adobe.com/AdobeSVGViewerExtensions/3.0/"
	 x="0px" y="0px" width="1026.1px" height="165.2px" viewBox="0 0 1026.1 165.2" style="enable-background:new 0 0 1026.1 165.2;"
	 xml:space="preserve">
<style type="text/css">
	.st0{fill:#98123E;}
	.st1{fill:#E72B48;}
</style>
<defs>
</defs>
<path class="st0" d="M15.1,39.6c0.4,3,3.2,5,6.1,4.5l77.3-11.5c2.9-0.4,5-3.2,4.5-6.1l0,0c-0.4-3-3.2-5-6.1-4.5L19.6,33.5
	C16.7,33.9,14.7,36.7,15.1,39.6L15.1,39.6z"/>
<path class="st1" d="M15.4,15.5c-0.4,3,1.6,5.7,4.6,6.1l77.4,11.1c3,0.4,5.7-1.6,6.1-4.6l0,0c0.4-3-1.6-5.7-4.6-6.1L21.5,10.9
	C18.5,10.5,15.8,12.6,15.4,15.5L15.4,15.5z"/>
<path class="st0" d="M15.5,62.4c0.4,2.9,3.2,5,6.1,4.5l77.3-11.5c2.9-0.4,5-3.2,4.5-6.1l0,0c-0.4-2.9-3.2-5-6.1-4.5L20,56.3
	C17,56.7,15,59.5,15.5,62.4L15.5,62.4z"/>
<path class="st1" d="M15.2,38.1c-0.4,3,1.6,5.7,4.6,6.1l77.4,11.1c3,0.4,5.7-1.6,6.1-4.6l0,0c0.4-3-1.6-5.7-4.6-6.1L21.3,33.6
	C18.4,33.1,15.6,35.2,15.2,38.1L15.2,38.1z"/>
<path class="st0" d="M15.5,85.1c0.4,2.9,3.2,5,6.1,4.5l77.3-11.5c2.9-0.4,5-3.2,4.5-6.1l0,0c-0.4-3-3.2-5-6.1-4.5L20,78.9
	C17,79.4,15,82.1,15.5,85.1L15.5,85.1z"/>
<path class="st1" d="M15.7,60.9c-0.4,3,1.6,5.7,4.6,6.1l77.4,11.1c3,0.4,5.7-1.6,6.1-4.6l0,0c0.4-3-1.6-5.7-4.6-6.1L21.9,56.4
	C18.9,55.9,16.2,58,15.7,60.9L15.7,60.9z"/>
<path class="st0" d="M15.5,107.2c0.4,2.9,3.2,5,6.1,4.5l77.3-11.5c2.9-0.4,5-3.2,4.5-6.1l0,0c-0.4-2.9-3.2-5-6.1-4.5L20,101
	C17,101.5,15,104.2,15.5,107.2L15.5,107.2z"/>
<path class="st1" d="M15.7,83.1c-0.4,2.9,1.6,5.7,4.6,6.1l77.4,11.1c3,0.4,5.7-1.6,6.1-4.6l0,0c0.4-3-1.6-5.7-4.6-6.1L21.9,78.5
	C18.9,78,16.2,80.1,15.7,83.1L15.7,83.1z"/>
<path class="st0" d="M15.5,129.8c0.4,2.9,3.2,5,6.1,4.5l77.3-11.5c2.9-0.4,5-3.2,4.5-6.1l0,0c-0.4-3-3.2-5-6.1-4.5L20,123.7
	C17,124.1,15,126.8,15.5,129.8L15.5,129.8z"/>
<path class="st1" d="M15.7,105.7c-0.4,3,1.6,5.7,4.6,6.1l77.4,11.1c3,0.4,5.7-1.6,6.1-4.6l0,0c0.4-3-1.6-5.7-4.6-6.1l-77.4-11.1
	C18.9,100.7,16.2,102.7,15.7,105.7L15.7,105.7z"/>
<path class="st0" d="M15.2,152.4c0.4,2.9,3.2,5,6.1,4.5l77.3-11.5c2.9-0.4,5-3.2,4.5-6.1l0,0c-0.4-2.9-3.2-5-6.1-4.5l-77.3,11.5
	C16.8,146.7,14.8,149.4,15.2,152.4L15.2,152.4z"/>
<path class="st1" d="M15.3,128.2c-0.4,3,1.6,5.7,4.6,6.1l77.4,11.1c3,0.4,5.7-1.6,6.1-4.6l0,0c0.4-3-1.6-5.7-4.6-6.1l-77.4-11.1
	C18.4,123.2,15.7,125.2,15.3,128.2L15.3,128.2z"/>
<polygon class="st1" points="117.3,165.2 117.3,165.2 0,165.2 0,165.2 0,146.2 0,146.2 117.3,146.2 117.3,146.2 "/>
<polygon class="st1" points="117.3,18.9 117.3,18.9 0,18.9 0,18.9 0,0 0,0 117.3,0 117.3,0 "/>
<path class="st0" d="M144.7,42c0.4,2.8,3.2,4.7,6.1,4.3l77.3-10.9c2.9-0.4,5-3,4.5-5.8l0,0c-0.4-2.8-3.2-4.7-6.1-4.3l-77.3,10.9
	C146.3,36.7,144.2,39.2,144.7,42L144.7,42z"/>
<path class="st1" d="M145,19.3c-0.4,2.8,1.6,5.4,4.6,5.8l77.4,10.5c3,0.4,5.7-1.5,6.1-4.3l0,0c0.4-2.8-1.6-5.4-4.6-5.8l-77.4-10.5
	C148.1,14.5,145.4,16.5,145,19.3L145,19.3z"/>
<path class="st0" d="M145,63.6c0.4,2.8,3.2,4.7,6.1,4.3L228.4,57c2.9-0.4,5-3,4.5-5.8l0,0c-0.4-2.8-3.2-4.7-6.1-4.3l-77.3,10.9
	C146.6,58.2,144.6,60.8,145,63.6L145,63.6z"/>
<path class="st1" d="M144.8,40.6c-0.4,2.8,1.6,5.4,4.6,5.8l77.4,10.5c3,0.4,5.7-1.5,6.1-4.3l0,0c0.4-2.8-1.6-5.4-4.6-5.8l-77.4-10.4
	C147.9,35.9,145.2,37.8,144.8,40.6L144.8,40.6z"/>
<path class="st0" d="M145,84.9c0.4,2.8,3.2,4.7,6.1,4.3l77.3-10.9c2.9-0.4,5-3,4.5-5.8l0,0c-0.4-2.8-3.2-4.7-6.1-4.3l-77.3,10.9
	C146.6,79.5,144.6,82.1,145,84.9L145,84.9z"/>
<path class="st1" d="M145.3,62.2c-0.4,2.8,1.6,5.4,4.6,5.8l77.4,10.5c3,0.4,5.7-1.5,6.1-4.3l0,0c0.4-2.8-1.6-5.4-4.6-5.8l-77.4-10.5
	C148.5,57.4,145.7,59.4,145.3,62.2L145.3,62.2z"/>
<path class="st0" d="M145,105.8c0.4,2.8,3.2,4.7,6.1,4.3l77.3-10.9c2.9-0.4,5-3,4.5-5.8l0,0c-0.4-2.8-3.2-4.7-6.1-4.3L149.6,100
	C146.6,100.4,144.6,103,145,105.8L145,105.8z"/>
<path class="st1" d="M145.3,83c-0.4,2.8,1.6,5.4,4.6,5.8l77.4,10.5c3,0.4,5.7-1.5,6.1-4.3l0,0c0.4-2.8-1.6-5.4-4.6-5.8l-77.4-10.5
	C148.5,78.3,145.7,80.2,145.3,83L145.3,83z"/>
<path class="st0" d="M145,127.2c0.4,2.8,3.2,4.7,6.1,4.3l77.3-10.9c2.9-0.4,5-3,4.5-5.8l0,0c-0.4-2.8-3.2-4.7-6.1-4.3l-77.3,10.9
	C146.6,121.8,144.6,124.4,145,127.2L145,127.2z"/>
<path class="st1" d="M145.3,104.4c-0.4,2.8,1.6,5.4,4.6,5.8l77.4,10.4c3,0.4,5.7-1.5,6.1-4.3l0,0c0.4-2.8-1.6-5.4-4.6-5.8
	l-77.4-10.5C148.5,99.7,145.7,101.6,145.3,104.4L145.3,104.4z"/>
<path class="st0" d="M144.8,148.5c0.4,2.8,3.2,4.7,6.1,4.3l77.3-10.9c2.9-0.4,5-3,4.5-5.8l0,0c-0.4-2.8-3.2-4.7-6.1-4.3l-77.3,10.9
	C146.4,143.1,144.3,145.7,144.8,148.5L144.8,148.5z"/>
<path class="st1" d="M144.8,125.6c-0.4,2.8,1.6,5.4,4.6,5.8l77.4,10.4c3,0.4,5.7-1.5,6.1-4.3l0,0c0.4-2.8-1.6-5.4-4.6-5.8
	l-77.4-10.5C148,120.9,145.2,122.9,144.8,125.6L144.8,125.6z"/>
<polygon class="st1" points="246.9,165.2 246.9,165.2 129.6,165.2 129.6,165.2 129.6,142.7 129.6,142.7 246.9,142.7 246.9,142.7 "/>
<polygon class="st1" points="246.9,22.5 246.9,22.5 129.6,22.5 129.6,22.5 129.6,0 129.6,0 246.9,0 246.9,0 "/>
<path class="st0" d="M274.2,44.6c0.4,2.6,3.2,4.4,6.1,4l77.3-10.2c2.9-0.4,5-2.8,4.5-5.4l0,0c-0.4-2.6-3.2-4.4-6.1-4l-77.3,10.2
	C275.8,39.5,273.8,41.9,274.2,44.6L274.2,44.6z"/>
<path class="st1" d="M274.5,23.2c-0.4,2.6,1.6,5,4.6,5.4l77.4,9.8c3,0.4,5.7-1.4,6.1-4.1l0,0c0.4-2.6-1.6-5-4.6-5.4l-77.4-9.8
	C277.7,18.8,274.9,20.6,274.5,23.2L274.5,23.2z"/>
<path class="st0" d="M274.6,64.8c0.4,2.6,3.2,4.4,6.1,4L358,58.6c2.9-0.4,5-2.8,4.5-5.4l0,0c-0.4-2.6-3.2-4.4-6.1-4l-77.3,10.2
	C276.2,59.7,274.1,62.1,274.6,64.8L274.6,64.8z"/>
<path class="st1" d="M274.3,43.2c-0.4,2.6,1.6,5,4.6,5.4l77.4,9.8c3,0.4,5.7-1.4,6.1-4.1l0,0c0.4-2.6-1.6-5-4.6-5.4l-77.4-9.8
	C277.5,38.8,274.8,40.6,274.3,43.2L274.3,43.2z"/>
<path class="st0" d="M274.6,84.8c0.4,2.6,3.2,4.4,6.1,4L358,78.6c2.9-0.4,5-2.8,4.5-5.4l0,0c-0.4-2.6-3.2-4.4-6.1-4l-77.3,10.2
	C276.2,79.7,274.1,82.2,274.6,84.8L274.6,84.8z"/>
<path class="st1" d="M274.9,63.4c-0.4,2.6,1.6,5,4.6,5.4l77.4,9.8c3,0.4,5.7-1.4,6.1-4.1l0,0c0.4-2.6-1.6-5-4.6-5.4L281,59.4
	C278,59,275.3,60.8,274.9,63.4L274.9,63.4z"/>
<path class="st0" d="M274.6,104.4c0.4,2.6,3.2,4.4,6.1,4L358,98.2c2.9-0.4,5-2.8,4.5-5.4l0,0c-0.4-2.6-3.2-4.4-6.1-4l-77.3,10.2
	C276.2,99.3,274.1,101.7,274.6,104.4L274.6,104.4z"/>
<path class="st1" d="M274.9,83c-0.4,2.6,1.6,5,4.6,5.4l77.4,9.8c3,0.4,5.7-1.4,6.1-4.1l0,0c0.4-2.6-1.6-5-4.6-5.4L281,78.9
	C278,78.6,275.3,80.4,274.9,83L274.9,83z"/>
<path class="st0" d="M274.6,124.4c0.4,2.6,3.2,4.4,6.1,4l77.3-10.2c2.9-0.4,5-2.8,4.5-5.4l0,0c-0.4-2.6-3.2-4.4-6.1-4l-77.3,10.2
	C276.2,119.3,274.1,121.8,274.6,124.4L274.6,124.4z"/>
<path class="st1" d="M274.9,103c-0.4,2.6,1.6,5,4.6,5.4l77.4,9.8c3,0.4,5.7-1.4,6.1-4.1l0,0c0.4-2.6-1.6-5-4.6-5.4L281,99
	C278,98.6,275.3,100.4,274.9,103L274.9,103z"/>
<path class="st0" d="M274.3,144.4c0.4,2.6,3.2,4.4,6.1,4l77.3-10.2c2.9-0.4,5-2.8,4.5-5.4l0,0c-0.4-2.6-3.2-4.4-6.1-4L278.9,139
	C275.9,139.3,273.9,141.8,274.3,144.4L274.3,144.4z"/>
<path class="st1" d="M274.4,123c-0.4,2.6,1.6,5,4.6,5.4l77.4,9.8c3,0.4,5.7-1.4,6.1-4.1l0,0c0.4-2.6-1.6-5-4.6-5.4l-77.4-9.8
	C277.5,118.5,274.8,120.3,274.4,123L274.4,123z"/>
<polygon class="st1" points="376.4,165.2 376.4,165.2 259.1,165.2 259.1,165.2 259.1,138.9 259.1,138.9 376.4,138.9 376.4,138.9 "/>
<polygon class="st1" points="376.4,26.2 376.4,26.2 259.1,26.2 259.1,26.2 259.1,0 259.1,0 376.4,0 376.4,0 "/>
<path class="st0" d="M403.8,47.4c0.4,2.4,3.2,4.1,6.1,3.7l77.3-9.5c2.9-0.4,5-2.6,4.5-5l0,0c-0.4-2.4-3.2-4.1-6.1-3.7l-77.3,9.5
	C405.4,42.7,403.3,45,403.8,47.4L403.8,47.4z"/>
<path class="st1" d="M404.1,27.6c-0.4,2.4,1.6,4.7,4.6,5l77.4,9.1c3,0.3,5.7-1.3,6.1-3.8l0,0c0.4-2.4-1.6-4.7-4.6-5l-77.4-9.1
	C407.2,23.5,404.5,25.2,404.1,27.6L404.1,27.6z"/>
<path class="st0" d="M404.1,66.1c0.4,2.4,3.2,4.1,6.1,3.7l77.3-9.5c2.9-0.4,5-2.6,4.5-5l0,0c-0.4-2.4-3.2-4.1-6.1-3.7L408.7,61
	C405.7,61.4,403.7,63.7,404.1,66.1L404.1,66.1z"/>
<path class="st1" d="M403.9,46.2c-0.4,2.4,1.6,4.7,4.6,5l77.4,9.1c3,0.3,5.7-1.3,6.1-3.8l0,0c0.4-2.4-1.6-4.7-4.6-5L410,42.4
	C407.1,42.1,404.3,43.7,403.9,46.2L403.9,46.2z"/>
<path class="st0" d="M404.1,84.6c0.4,2.4,3.2,4.1,6.1,3.7l77.3-9.5c2.9-0.4,5-2.6,4.5-5l0,0c-0.4-2.4-3.2-4.1-6.1-3.7l-77.3,9.4
	C405.7,79.9,403.7,82.2,404.1,84.6L404.1,84.6z"/>
<path class="st1" d="M404.4,64.8c-0.4,2.4,1.6,4.7,4.6,5l77.4,9.1c3,0.3,5.7-1.3,6.1-3.8l0,0c0.4-2.4-1.6-4.7-4.6-5l-77.4-9.1
	C407.6,60.7,404.8,62.4,404.4,64.8L404.4,64.8z"/>
<path class="st0" d="M404.1,102.7c0.4,2.4,3.2,4.1,6.1,3.7l77.3-9.5c2.9-0.4,5-2.6,4.5-5l0,0c-0.4-2.4-3.2-4.1-6.1-3.7l-77.3,9.4
	C405.7,98.1,403.7,100.3,404.1,102.7L404.1,102.7z"/>
<path class="st1" d="M404.4,83c-0.4,2.4,1.6,4.7,4.6,5l77.4,9.1c3,0.3,5.7-1.3,6.1-3.8l0,0c0.4-2.4-1.6-4.7-4.6-5l-77.4-9.1
	C407.6,78.9,404.8,80.5,404.4,83L404.4,83z"/>
<path class="st0" d="M404.1,121.3c0.4,2.4,3.2,4.1,6.1,3.7l77.3-9.5c2.9-0.4,5-2.6,4.5-5l0,0c-0.4-2.4-3.2-4.1-6.1-3.7l-77.3,9.5
	C405.7,116.6,403.7,118.9,404.1,121.3L404.1,121.3z"/>
<path class="st1" d="M404.4,101.5c-0.4,2.4,1.6,4.7,4.6,5l77.4,9.1c3,0.3,5.7-1.3,6.1-3.8l0,0c0.4-2.4-1.6-4.7-4.6-5l-77.4-9.1
	C407.6,97.4,404.8,99.1,404.4,101.5L404.4,101.5z"/>
<path class="st0" d="M403.9,139.8c0.4,2.4,3.2,4.1,6.1,3.7l77.3-9.4c2.9-0.4,5-2.6,4.5-5l0,0c-0.4-2.4-3.2-4.1-6.1-3.7l-77.3,9.5
	C405.5,135.1,403.4,137.4,403.9,139.8L403.9,139.8z"/>
<path class="st1" d="M403.9,120c-0.4,2.4,1.6,4.7,4.6,5l77.4,9.1c3,0.3,5.7-1.3,6.1-3.8l0,0c0.4-2.4-1.6-4.7-4.6-5l-77.4-9.1
	C407.1,115.9,404.4,117.6,403.9,120L403.9,120z"/>
<polygon class="st1" points="506,165.2 506,165.2 388.7,165.2 388.7,165.2 388.7,134.8 388.7,134.8 506,134.8 506,134.8 "/>
<polygon class="st1" points="506,30.4 506,30.4 388.7,30.4 388.7,30.4 388.7,0.1 388.7,0.1 506,0.1 506,0.1 "/>
<path class="st0" d="M533.3,50.3c0.4,2.2,3.2,3.7,6.1,3.4l77.3-8.7c2.9-0.3,5-2.4,4.5-4.6l0,0c-0.4-2.2-3.2-3.7-6.1-3.4l-77.3,8.7
	C534.9,46,532.9,48.1,533.3,50.3L533.3,50.3z"/>
<path class="st1" d="M533.6,32.2c-0.4,2.2,1.6,4.3,4.6,4.6l77.4,8.3c3,0.3,5.7-1.2,6.1-3.4l0,0c0.4-2.2-1.6-4.3-4.6-4.6l-77.4-8.3
	C536.8,28.4,534.1,29.9,533.6,32.2L533.6,32.2z"/>
<path class="st0" d="M533.7,67.4c0.4,2.2,3.2,3.7,6.1,3.4l77.3-8.7c2.9-0.3,5-2.4,4.5-4.6l0,0c-0.4-2.2-3.2-3.7-6.1-3.4l-77.3,8.7
	C535.3,63.2,533.3,65.2,533.7,67.4L533.7,67.4z"/>
<path class="st1" d="M533.5,49.2c-0.4,2.2,1.6,4.3,4.6,4.6l77.4,8.3c3,0.3,5.7-1.2,6.1-3.4l0,0c0.4-2.2-1.6-4.3-4.6-4.6l-77.4-8.3
	C536.6,45.4,533.9,47,533.5,49.2L533.5,49.2z"/>
<path class="st0" d="M533.7,84.4c0.4,2.2,3.2,3.7,6.1,3.4l77.3-8.7c2.9-0.3,5-2.4,4.5-4.6l0,0c-0.4-2.2-3.2-3.7-6.1-3.4l-77.3,8.7
	C535.3,80.2,533.3,82.2,533.7,84.4L533.7,84.4z"/>
<path class="st1" d="M534,66.3c-0.4,2.2,1.6,4.3,4.6,4.6l77.4,8.3c3,0.3,5.7-1.2,6.1-3.4l0,0c0.4-2.2-1.6-4.3-4.6-4.6l-77.4-8.3
	C537.1,62.6,534.4,64.1,534,66.3L534,66.3z"/>
<path class="st0" d="M533.7,101.1c0.4,2.2,3.2,3.7,6.1,3.4l77.3-8.7c2.9-0.3,5-2.4,4.5-4.6l0,0c-0.4-2.2-3.2-3.7-6.1-3.4l-77.3,8.7
	C535.3,96.8,533.3,98.9,533.7,101.1L533.7,101.1z"/>
<path class="st1" d="M534,82.9c-0.4,2.2,1.6,4.3,4.6,4.6l77.4,8.3c3,0.3,5.7-1.2,6.1-3.4l0,0c0.4-2.2-1.6-4.3-4.6-4.6l-77.4-8.3
	C537.1,79.2,534.4,80.7,534,82.9L534,82.9z"/>
<path class="st0" d="M533.7,118.1c0.4,2.2,3.2,3.7,6.1,3.4l77.3-8.7c2.9-0.3,5-2.4,4.5-4.6l0,0c-0.4-2.2-3.2-3.7-6.1-3.4l-77.3,8.7
	C535.3,113.8,533.3,115.9,533.7,118.1L533.7,118.1z"/>
<path class="st1" d="M534,99.9c-0.4,2.2,1.6,4.3,4.6,4.6l77.4,8.3c3,0.3,5.7-1.2,6.1-3.4l0,0c0.4-2.2-1.6-4.3-4.6-4.6l-77.4-8.3
	C537.1,96.2,534.4,97.7,534,99.9L534,99.9z"/>
<path class="st0" d="M533.4,135.1c0.4,2.2,3.2,3.7,6.1,3.4l77.3-8.7c2.9-0.3,5-2.4,4.5-4.6l0,0c-0.4-2.2-3.2-3.7-6.1-3.4l-77.3,8.7
	C535,130.8,533,132.8,533.4,135.1L533.4,135.1z"/>
<path class="st1" d="M533.5,116.9c-0.4,2.2,1.6,4.3,4.6,4.6l77.4,8.3c3,0.3,5.7-1.2,6.1-3.4l0,0c0.4-2.2-1.6-4.3-4.6-4.6l-77.4-8.3
	C536.6,113.1,533.9,114.6,533.5,116.9L533.5,116.9z"/>
<polygon class="st1" points="635.5,165.2 635.5,165.2 518.2,165.2 518.2,165.2 518.2,130.4 518.2,130.4 635.5,130.4 635.5,130.4 "/>
<polygon class="st1" points="635.5,34.7 635.5,34.7 518.2,34.7 518.2,34.7 518.2,0 518.2,0 635.5,0 635.5,0 "/>
<path class="st0" d="M662.9,52.7c0.4,2.1,3.2,3.5,6.1,3.2l77.3-8c2.9-0.3,5-2.2,4.5-4.3l0,0c-0.4-2.1-3.2-3.5-6.1-3.2l-77.3,8
	C664.5,48.7,662.5,50.6,662.9,52.7L662.9,52.7z"/>
<path class="st1" d="M663.2,35.9c-0.4,2.1,1.6,4,4.6,4.3l77.4,7.7c3,0.3,5.7-1.1,6.1-3.2l0,0c0.4-2.1-1.6-4-4.6-4.3l-77.4-7.7
	C666.3,32.4,663.6,33.9,663.2,35.9L663.2,35.9z"/>
<path class="st0" d="M663.3,68.6c0.4,2.1,3.2,3.5,6.1,3.2l77.3-8c2.9-0.3,5-2.2,4.5-4.3l0,0c-0.4-2.1-3.2-3.5-6.1-3.2l-77.3,8
	C664.8,64.6,662.8,66.5,663.3,68.6L663.3,68.6z"/>
<path class="st1" d="M663,51.7c-0.4,2.1,1.6,4,4.6,4.3l77.4,7.7c3,0.3,5.7-1.1,6.1-3.2l0,0c0.4-2.1-1.6-4-4.6-4.3l-77.4-7.7
	C666.2,48.2,663.4,49.6,663,51.7L663,51.7z"/>
<path class="st0" d="M663.3,84.3c0.4,2.1,3.2,3.5,6.1,3.2l77.3-8c2.9-0.3,5-2.2,4.5-4.3l0,0c-0.4-2.1-3.2-3.5-6.1-3.2l-77.3,8
	C664.8,80.3,662.8,82.3,663.3,84.3L663.3,84.3z"/>
<path class="st1" d="M663.5,67.5c-0.4,2.1,1.6,4,4.6,4.3l77.4,7.7c3,0.3,5.7-1.1,6.1-3.2l0,0c0.4-2.1-1.6-4-4.6-4.3l-77.4-7.7
	C666.7,64,664,65.5,663.5,67.5L663.5,67.5z"/>
<path class="st0" d="M663.3,99.7c0.4,2.1,3.2,3.5,6.1,3.2l77.3-8c2.9-0.3,5-2.2,4.5-4.3l0,0c-0.4-2-3.2-3.5-6.1-3.2l-77.3,8
	C664.8,95.7,662.8,97.6,663.3,99.7L663.3,99.7z"/>
<path class="st1" d="M663.5,82.9c-0.4,2.1,1.6,4,4.6,4.2l77.4,7.7c3,0.3,5.7-1.1,6.1-3.2l0,0c0.4-2.1-1.6-4-4.6-4.3l-77.4-7.7
	C666.7,79.4,664,80.9,663.5,82.9L663.5,82.9z"/>
<path class="st0" d="M663.3,115.4c0.4,2.1,3.2,3.5,6.1,3.2l77.3-8c2.9-0.3,5-2.2,4.5-4.3l0,0c-0.4-2.1-3.2-3.5-6.1-3.2l-77.3,8
	C664.8,111.5,662.8,113.4,663.3,115.4L663.3,115.4z"/>
<path class="st1" d="M663.5,98.6c-0.4,2.1,1.6,4,4.6,4.3l77.4,7.7c3,0.3,5.7-1.1,6.1-3.2l0,0c0.4-2.1-1.6-4-4.6-4.2l-77.4-7.7
	C666.7,95.2,664,96.6,663.5,98.6L663.5,98.6z"/>
<path class="st0" d="M663,131.2c0.4,2.1,3.2,3.5,6.1,3.2l77.3-8c2.9-0.3,5-2.2,4.5-4.3l0,0c-0.4-2.1-3.2-3.5-6.1-3.2l-77.3,8
	C664.6,127.2,662.6,129.1,663,131.2L663,131.2z"/>
<path class="st1" d="M663,114.3c-0.4,2.1,1.6,4,4.6,4.3l77.4,7.7c3,0.3,5.7-1.1,6.1-3.2l0,0c0.4-2.1-1.6-4-4.6-4.3l-77.4-7.7
	C666.2,110.8,663.5,112.3,663,114.3L663,114.3z"/>
<polygon class="st1" points="765.1,165.2 765.1,165.2 647.8,165.2 647.8,165.2 647.8,126.9 647.8,126.9 765.1,126.9 765.1,126.9 "/>
<polygon class="st1" points="765.1,38.3 765.1,38.3 647.8,38.3 647.8,38.3 647.8,0 647.8,0 765.1,0 765.1,0 "/>
<path class="st0" d="M793.4,55.2c0.4,1.9,3.2,3.2,6.1,2.9l77.3-7.3c2.9-0.3,5-2,4.5-3.9l0,0c-0.4-1.9-3.2-3.2-6.1-2.9L798,51.3
	C795,51.6,793,53.4,793.4,55.2L793.4,55.2z"/>
<path class="st1" d="M793.7,39.9c-0.4,1.9,1.6,3.6,4.6,3.9l77.4,7c3,0.3,5.7-1,6.1-2.9l0,0c0.4-1.9-1.6-3.6-4.6-3.9l-77.4-7
	C796.9,36.7,794.1,38,793.7,39.9L793.7,39.9z"/>
<path class="st0" d="M793.8,69.8c0.4,1.9,3.2,3.2,6.1,2.9l77.3-7.3c2.9-0.3,5-2,4.5-3.9l0,0c-0.4-1.9-3.2-3.2-6.1-2.9l-77.3,7.3
	C795.4,66.1,793.3,67.9,793.8,69.8L793.8,69.8z"/>
<path class="st1" d="M793.5,54.3c-0.4,1.9,1.6,3.6,4.6,3.9l77.4,7c3,0.3,5.7-1,6.1-2.9l0,0c0.4-1.9-1.6-3.6-4.6-3.9l-77.4-7
	C796.7,51.1,794,52.4,793.5,54.3L793.5,54.3z"/>
<path class="st0" d="M793.8,84.2c0.4,1.9,3.2,3.2,6.1,2.9l77.3-7.3c2.9-0.3,5-2,4.5-3.9l0,0c-0.4-1.9-3.2-3.2-6.1-2.9l-77.3,7.3
	C795.4,80.5,793.3,82.3,793.8,84.2L793.8,84.2z"/>
<path class="st1" d="M794.1,68.8c-0.4,1.9,1.6,3.6,4.6,3.9l77.4,7c3,0.3,5.7-1,6.1-2.9l0,0c0.4-1.9-1.6-3.6-4.6-3.9l-77.4-7
	C797.2,65.6,794.5,66.9,794.1,68.8L794.1,68.8z"/>
<path class="st0" d="M793.8,98.2c0.4,1.9,3.2,3.2,6.1,2.9l77.3-7.3c2.9-0.3,5-2,4.5-3.9l0,0c-0.4-1.9-3.2-3.2-6.1-2.9l-77.3,7.3
	C795.4,94.6,793.3,96.4,793.8,98.2L793.8,98.2z"/>
<path class="st1" d="M794.1,82.9c-0.4,1.9,1.6,3.6,4.6,3.9l77.4,7c3,0.3,5.7-1,6.1-2.9l0,0c0.4-1.9-1.6-3.6-4.6-3.9l-77.4-7
	C797.2,79.7,794.5,81,794.1,82.9L794.1,82.9z"/>
<path class="st0" d="M793.8,112.6c0.4,1.9,3.2,3.2,6.1,2.9l77.3-7.3c2.9-0.3,5-2,4.5-3.9l0,0c-0.4-1.9-3.2-3.2-6.1-2.9l-77.3,7.3
	C795.4,109,793.3,110.7,793.8,112.6L793.8,112.6z"/>
<path class="st1" d="M794.1,97.3c-0.4,1.9,1.6,3.6,4.6,3.9l77.4,7c3,0.3,5.7-1,6.1-2.9l0,0c0.4-1.9-1.6-3.6-4.6-3.9l-77.4-7
	C797.2,94.1,794.5,95.4,794.1,97.3L794.1,97.3z"/>
<path class="st0" d="M793.5,127c0.4,1.9,3.2,3.2,6.1,2.9l77.3-7.3c2.9-0.3,5-2,4.5-3.9l0,0c-0.4-1.9-3.2-3.2-6.1-2.9l-77.3,7.3
	C795.1,123.4,793.1,125.1,793.5,127L793.5,127z"/>
<path class="st1" d="M793.6,111.6c-0.4,1.9,1.6,3.6,4.6,3.9l77.4,7c3,0.3,5.7-1,6.1-2.9l0,0c0.4-1.9-1.6-3.6-4.6-3.9l-77.4-7
	C796.7,108.4,794,109.7,793.6,111.6L793.6,111.6z"/>
<polygon class="st1" points="895.6,165.2 895.6,165.2 778.3,165.2 778.3,165.2 778.3,123.1 778.3,123.1 895.6,123.1 895.6,123.1 "/>
<polygon class="st1" points="895.6,42.1 895.6,42.1 778.3,42.1 778.3,42.1 778.3,0 778.3,0 895.6,0 895.6,0 "/>
<path class="st0" d="M923.9,57.7c0.4,1.7,3.2,2.9,6.1,2.6l77.3-6.7c2.9-0.3,5-1.8,4.5-3.6l0,0c-0.4-1.7-3.2-2.9-6.1-2.6l-77.3,6.7
	C925.5,54.4,923.5,56,923.9,57.7L923.9,57.7z"/>
<path class="st1" d="M924.2,43.7c-0.4,1.7,1.6,3.3,4.6,3.5l77.4,6.4c3,0.2,5.7-0.9,6.1-2.7l0,0c0.4-1.7-1.6-3.3-4.6-3.5L930.3,41
	C927.4,40.8,924.7,42,924.2,43.7L924.2,43.7z"/>
<path class="st0" d="M924.3,70.9c0.4,1.7,3.2,2.9,6.1,2.6l77.3-6.7c2.9-0.3,5-1.8,4.5-3.6l0,0c-0.4-1.7-3.2-2.9-6.1-2.6l-77.3,6.7
	C925.9,67.6,923.9,69.2,924.3,70.9L924.3,70.9z"/>
<path class="st1" d="M924.1,56.8c-0.4,1.7,1.6,3.3,4.6,3.5l77.4,6.4c3,0.2,5.7-0.9,6.1-2.7l0,0c0.4-1.7-1.6-3.3-4.6-3.5l-77.4-6.4
	C927.2,53.9,924.5,55.1,924.1,56.8L924.1,56.8z"/>
<path class="st0" d="M924.3,84c0.4,1.7,3.2,2.9,6.1,2.6l77.3-6.7c2.9-0.3,5-1.8,4.5-3.6l0,0c-0.4-1.7-3.2-2.9-6.1-2.6l-77.3,6.7
	C925.9,80.7,923.9,82.3,924.3,84L924.3,84z"/>
<path class="st1" d="M924.6,70c-0.4,1.7,1.6,3.3,4.6,3.5l77.4,6.4c3,0.2,5.7-0.9,6.1-2.7l0,0c0.4-1.7-1.6-3.3-4.6-3.5l-77.4-6.4
	C927.7,67.1,925,68.3,924.6,70L924.6,70z"/>
<path class="st0" d="M924.3,96.8c0.4,1.7,3.2,2.9,6.1,2.6l77.3-6.7c2.9-0.3,5-1.8,4.5-3.6l0,0c-0.4-1.7-3.2-2.9-6.1-2.6l-77.3,6.7
	C925.9,93.5,923.9,95.1,924.3,96.8L924.3,96.8z"/>
<path class="st1" d="M924.6,82.9c-0.4,1.7,1.6,3.3,4.6,3.5l77.4,6.4c3,0.2,5.7-0.9,6.1-2.7l0,0c0.4-1.7-1.6-3.3-4.6-3.5l-77.4-6.4
	C927.7,80,925,81.1,924.6,82.9L924.6,82.9z"/>
<path class="st0" d="M924.3,110c0.4,1.7,3.2,2.9,6.1,2.6l77.3-6.7c2.9-0.3,5-1.8,4.5-3.6l0,0c-0.4-1.7-3.2-2.9-6.1-2.6l-77.3,6.7
	C925.9,106.7,923.9,108.3,924.3,110L924.3,110z"/>
<path class="st1" d="M924.6,96c-0.4,1.7,1.6,3.3,4.6,3.5l77.4,6.4c3,0.2,5.7-0.9,6.1-2.7l0,0c0.4-1.7-1.6-3.3-4.6-3.5l-77.4-6.4
	C927.7,93.1,925,94.3,924.6,96L924.6,96z"/>
<path class="st0" d="M924,123.1c0.4,1.7,3.2,2.9,6.1,2.6l77.3-6.7c2.9-0.3,5-1.8,4.5-3.6l0,0c-0.4-1.7-3.2-2.9-6.1-2.6l-77.3,6.7
	C925.6,119.8,923.6,121.4,924,123.1L924,123.1z"/>
<path class="st1" d="M924.1,109c-0.4,1.7,1.6,3.3,4.6,3.5l77.4,6.4c3,0.2,5.7-0.9,6.1-2.7l0,0c0.4-1.7-1.6-3.3-4.6-3.5l-77.4-6.4
	C927.3,106.1,924.5,107.3,924.1,109L924.1,109z"/>
<polygon class="st1" points="1026.1,165.2 1026.1,165.2 908.8,165.2 908.8,165.2 908.8,119.5 908.8,119.5 1026.1,119.5 
	1026.1,119.5 "/>
<polygon class="st1" points="1026.1,45.7 1026.1,45.7 908.8,45.7 908.8,45.7 908.8,0 908.8,0 1026.1,0 1026.1,0 "/>
</svg>
