<!-- Generator: Adobe Illustrator 19.2.1, SVG Export Plug-In  -->
<svg version="1.1"
	 xmlns="http://www.w3.org/2000/svg" xmlns:xlink="http://www.w3.org/1999/xlink" xmlns:a="http://ns.adobe.com/AdobeSVGViewerExtensions/3.0/"
	 x="0px" y="0px" width="6.5px" height="5.8px" viewBox="0 0 6.5 5.8" style="enable-background:new 0 0 6.5 5.8;"
	 xml:space="preserve">
<style type="text/css">
	.st0{fill:#22648A;}
	.st1{fill:#11354B;}
</style>
<defs>
</defs>
<g>
	<path class="st0" d="M3.2,0.9c-1.1,0-1.9,0.9-1.9,2c0,1.1,0.9,1.9,2,1.9s1.9-0.9,1.9-2C5.2,1.7,4.3,0.9,3.2,0.9z M3.3,4.3
		c-0.8,0-1.5-0.6-1.5-1.4s0.6-1.5,1.4-1.5C4,1.4,4.7,2,4.7,2.8C4.8,3.6,4.1,4.3,3.3,4.3z"/>
	<path class="st1" d="M1.6,0.1L0,3l1.7,2.8L5,5.7l1.6-2.9L4.8,0L1.6,0.1L1.6,0.1z M3.3,5c-1.2,0-2.2-0.9-2.2-2.1S2,0.7,3.2,0.7
		c1.2,0,2.2,0.9,2.2,2.1C5.5,4,4.5,5,3.3,5z"/>
</g>
</svg>
