<!-- Generator: Adobe Illustrator 19.0.0, SVG Export Plug-In  -->
<svg version="1.1"
	 xmlns="http://www.w3.org/2000/svg" xmlns:xlink="http://www.w3.org/1999/xlink" xmlns:a="http://ns.adobe.com/AdobeSVGViewerExtensions/3.0/"
	 x="0px" y="0px" width="248.4px" height="125.8px" viewBox="0 0 248.4 125.8" style="enable-background:new 0 0 248.4 125.8;"
	 xml:space="preserve">
<style type="text/css">
	.st0{fill:#0DC9C9;stroke:#484848;stroke-width:2.8068;stroke-linecap:round;stroke-linejoin:round;}
	.st1{fill:#808080;}
	.st2{opacity:0.63;fill:#FFFFFF;enable-background:new    ;}
	.st3{fill:none;stroke:#484848;stroke-width:2;stroke-linecap:round;stroke-linejoin:round;}
	.st4{fill:#F99426;stroke:#484848;stroke-width:2;stroke-linecap:round;stroke-linejoin:round;}
	.st5{opacity:0.6298;fill:#FFFFFF;enable-background:new    ;}
</style>
<defs>
</defs>
<g>
	<g id="g4344_1_" transform="matrix(-1.4034206,0,0,1.4034206,890.50726,-241.21349)">
		<path id="rect4346_1_" class="st0" d="M499.8,219.9h31.1c4.5,0,8.2,3.7,8.2,8.2l0,0c0,4.5-3.7,8.2-8.2,8.2h-31.1
			c-4.5,0-8.2-3.7-8.2-8.2l0,0C491.6,223.6,495.3,219.9,499.8,219.9z"/>
		<path id="rect4348_1_" class="st0" d="M499.8,204.4h31.1c4.5,0,8.2,3.7,8.2,8.2l0,0c0,4.5-3.7,8.2-8.2,8.2h-31.1
			c-4.5,0-8.2-3.7-8.2-8.2l0,0C491.6,208.1,495.3,204.4,499.8,204.4z"/>
		<path id="rect4350_1_" class="st0" d="M499.8,188.9h31.1c4.5,0,8.2,3.7,8.2,8.2l0,0c0,4.5-3.7,8.2-8.2,8.2h-31.1
			c-4.5,0-8.2-3.7-8.2-8.2l0,0C491.6,192.5,495.3,188.9,499.8,188.9z"/>
		<path id="rect4352_1_" class="st0" d="M499.3,172.9h31.1c4.5,0,8.2,3.7,8.2,8.2l0,0c0,4.5-3.7,8.2-8.2,8.2h-31.1
			c-4.5,0-8.2-3.7-8.2-8.2l0,0C491.1,176.6,494.8,172.9,499.3,172.9z"/>
		<path id="path4354_1_" sodipodi:nodetypes="cccccccccccccccccccccc" class="st1" d="M524.2,172.3c3,5.2,5.5,10.4,0,16.4
			c3.4,4.8,6.8,9.5-0.2,16c6.6,6.2,4,10.8,0.5,15.3c5.9,9.9,0.7,11.3,0,16.2l13.7,0.2L537,233l2.7-4.1l-1.4-5.9l-4.3-3.4l4.6-3.4
			l0.9-5l-4.8-6.4l3.2-3l1.1-5.7l-5.5-7.5l4.1-3.2l1.6-4.8l-3-5.7l-3-2.5l-8,0.7L524.2,172.3L524.2,172.3z"/>
		<path id="path4356_1_" sodipodi:nodetypes="cccccccccccccccccccccc" class="st2" d="M505.8,172.4c-3,5.2-5.5,10.4,0,16.4
			c-3.4,4.8-6.8,9.5,0.2,16c-6.6,6.2-4,10.8-0.5,15.3c-5.9,9.9-0.7,11.3,0,16.2l-13.7,0.2l1.1-3.4l-2.7-4.1l1.4-5.9l4.3-3.4
			l-4.6-3.4l-0.9-5l4.8-6.4l-3.2-3l-1.1-5.7l5.5-7.5l-4.1-3.2l-1.6-4.8l3-5.7l3-2.5l8,0.7L505.8,172.4L505.8,172.4z"/>
		<path id="rect4358_1_" class="st3" d="M499.4,220.7h31.9c4.3,0,7.8,3.5,7.8,7.8l0,0c0,4.3-3.5,7.8-7.8,7.8h-31.9
			c-4.3,0-7.8-3.5-7.8-7.8l0,0C491.6,224.2,495.1,220.7,499.4,220.7z"/>
		<path id="rect4360_1_" class="st3" d="M499.3,205.3h32c4.3,0,7.7,3.5,7.7,7.7l0,0c0,4.3-3.5,7.7-7.7,7.7h-32
			c-4.3,0-7.7-3.5-7.7-7.7l0,0C491.6,208.8,495,205.3,499.3,205.3z"/>
		<path id="rect4362_1_" class="st3" d="M499.5,189.5h31.7c4.4,0,7.9,3.5,7.9,7.9l0,0c0,4.4-3.5,7.9-7.9,7.9h-31.7
			c-4.4,0-7.9-3.5-7.9-7.9l0,0C491.6,193.1,495.1,189.5,499.5,189.5z"/>
		<path id="rect4364_1_" class="st3" d="M499.3,172.9h31.1c4.5,0,8.2,3.7,8.2,8.2l0,0c0,4.5-3.7,8.2-8.2,8.2h-31.1
			c-4.5,0-8.2-3.7-8.2-8.2l0,0C491.1,176.6,494.8,172.9,499.3,172.9z"/>
		<path id="path4366_1_" sodipodi:nodetypes="ccscc" class="st4" d="M539.5,259.8c-5,0.4-79.7,1.3-81.3-0.5
			c0-17.5,19-31.8,42.4-31.8c13.3,0,29.7,2.3,37.5,6.3C539.4,236.2,539.5,252.2,539.5,259.8L539.5,259.8z"/>
		<path id="path4368_1_" sodipodi:nodetypes="cccccc" class="st1" d="M458.4,256.1c41.2-1.5,80.8,4.8,72.4-24.7l8,2.7l0.7,26
			l-80.9-0.2L458.4,256.1z"/>
		<path id="path4370_1_" sodipodi:nodetypes="ccscc" class="st3" d="M539.5,259.8c-5,0.4-79.7,1.3-81.3-0.5
			c0-17.5,19-31.8,42.4-31.8c13.3,0,29.7,2.3,37.5,6.3C539.4,236.2,539.5,252.2,539.5,259.8L539.5,259.8z"/>
		<path id="path4372_1_" sodipodi:nodetypes="ccc" class="st5" d="M466.1,247c9.2-7.8,18.4-13.8,40.7-15.7
			C490.2,228.5,473.3,233.1,466.1,247z"/>
	</g>
	<g id="g4328_1_" transform="matrix(1.4034206,0,0,1.4034206,-142.69872,-240.71732)">
		<path id="rect4249_1_" class="st0" d="M144,220H175c4.5,0,8.2,3.7,8.2,8.2l0,0c0,4.5-3.7,8.2-8.2,8.2H144c-4.5,0-8.2-3.7-8.2-8.2
			l0,0C135.7,223.7,139.4,220,144,220z"/>
		<path id="rect4247_1_" class="st0" d="M144,204.5H175c4.5,0,8.2,3.7,8.2,8.2l0,0c0,4.5-3.7,8.2-8.2,8.2H144
			c-4.5,0-8.2-3.7-8.2-8.2l0,0C135.7,208.2,139.4,204.5,144,204.5z"/>
		<path id="rect4245_1_" class="st0" d="M144,189H175c4.5,0,8.2,3.7,8.2,8.2l0,0c0,4.5-3.7,8.2-8.2,8.2H144c-4.5,0-8.2-3.7-8.2-8.2
			l0,0C135.7,192.7,139.4,189,144,189z"/>
		<path id="rect4241_1_" class="st0" d="M143.5,173h31.1c4.5,0,8.2,3.7,8.2,8.2l0,0c0,4.5-3.7,8.2-8.2,8.2h-31.1
			c-4.5,0-8.2-3.7-8.2-8.2l0,0C135.3,176.7,139,173,143.5,173z"/>
		<path id="path4314_1_" sodipodi:nodetypes="cccccccccccccccccccccc" class="st1" d="M168.4,172.4c3,5.2,5.5,10.4,0,16.4
			c3.4,4.8,6.8,9.5-0.2,16c6.6,6.2,4,10.8,0.5,15.3c5.9,9.9,0.7,11.3,0,16.2l13.7,0.2l-1.1-3.4l2.7-4.1l-1.4-5.9l-4.3-3.4l4.6-3.4
			l0.9-5l-4.8-6.4l3.2-3l1.1-5.7l-5.5-7.5l4.1-3.2l1.6-4.8l-3-5.7l-3-2.5l-8,0.7L168.4,172.4L168.4,172.4z"/>
		<path id="path4326_1_" sodipodi:nodetypes="cccccccccccccccccccccc" class="st2" d="M150,172.5c-3,5.2-5.5,10.4,0,16.4
			c-3.4,4.8-6.8,9.5,0.2,16c-6.6,6.2-4,10.8-0.5,15.3c-5.9,9.9-0.7,11.3,0,16.2l-13.7,0.2l1.1-3.4l-2.7-4.1l1.4-5.9l4.3-3.4
			l-4.6-3.4l-0.9-5l4.8-6.4l-3.2-3l-1.1-5.7l5.5-7.5l-4.1-3.2l-1.6-4.8l3-5.7l3-2.5l8,0.7L150,172.5L150,172.5z"/>
		<path id="rect4324_1_" class="st3" d="M143.6,220.8h31.9c4.3,0,7.8,3.5,7.8,7.8l0,0c0,4.3-3.5,7.8-7.8,7.8h-31.9
			c-4.3,0-7.8-3.5-7.8-7.8l0,0C135.7,224.3,139.2,220.8,143.6,220.8z"/>
		<path id="rect4322_1_" class="st3" d="M143.5,205.4h32c4.3,0,7.7,3.5,7.7,7.7l0,0c0,4.3-3.5,7.7-7.7,7.7h-32
			c-4.3,0-7.7-3.5-7.7-7.7l0,0C135.7,208.9,139.2,205.4,143.5,205.4z"/>
		<path id="rect4320_1_" class="st3" d="M143.6,189.6h31.7c4.4,0,7.9,3.5,7.9,7.9l0,0c0,4.4-3.5,7.9-7.9,7.9h-31.7
			c-4.4,0-7.9-3.5-7.9-7.9l0,0C135.7,193.2,139.3,189.6,143.6,189.6z"/>
		<path id="rect4318_1_" class="st3" d="M143.5,173h31.1c4.5,0,8.2,3.7,8.2,8.2l0,0c0,4.5-3.7,8.2-8.2,8.2h-31.1
			c-4.5,0-8.2-3.7-8.2-8.2l0,0C135.3,176.7,139,173,143.5,173z"/>
		<path id="path4259_1_" sodipodi:nodetypes="ccscc" class="st4" d="M183.7,259.9c-5,0.4-79.7,1.3-81.3-0.5
			c0-17.5,19-31.8,42.4-31.8c13.3,0,29.7,2.3,37.5,6.3C183.6,236.3,183.7,252.3,183.7,259.9L183.7,259.9z"/>
		<path id="path4308_1_" sodipodi:nodetypes="cccccc" class="st1" d="M102.6,256.2c41.2-1.5,80.8,4.8,72.4-24.7l8,2.7l0.7,26
			l-80.9-0.2L102.6,256.2z"/>
		<path id="path4310_1_" sodipodi:nodetypes="ccscc" class="st3" d="M183.7,259.9c-5,0.4-79.7,1.3-81.3-0.5
			c0-17.5,19-31.8,42.4-31.8c13.3,0,29.7,2.3,37.5,6.3C183.6,236.3,183.7,252.3,183.7,259.9L183.7,259.9z"/>
		<path id="path4312_1_" sodipodi:nodetypes="ccc" class="st5" d="M110.3,247.1c9.2-7.8,18.4-13.8,40.7-15.7
			C134.4,228.6,117.4,233.2,110.3,247.1z"/>
	</g>
</g>
</svg>
