<!-- Generator: Adobe Illustrator 19.0.0, SVG Export Plug-In  -->
<svg version="1.1"
	 xmlns="http://www.w3.org/2000/svg" xmlns:xlink="http://www.w3.org/1999/xlink" xmlns:a="http://ns.adobe.com/AdobeSVGViewerExtensions/3.0/"
	 x="0px" y="0px" width="52.1px" height="70px" viewBox="0 0 52.1 70" style="enable-background:new 0 0 52.1 70;"
	 xml:space="preserve">
<style type="text/css">
	.st0{fill:#B1C4CE;}
	.st1{fill:#EABEA7;}
	.st2{fill:#FFFFFF;}
	.st3{fill:#E72B48;}
	.st4{fill:none;}
	.st5{fill:#11354B;}
</style>
<defs>
</defs>
<rect y="24.7" class="st0" width="52.1" height="45.3"/>
<path id="XMLID_15_" class="st1" d="M44.9,10H9.2c-1.1,0-1.8,1.4-1.8,2.5v5.9v26.4v23.5c0,1.1,0.7,1.7,1.8,1.7h5l0,0h12.1l0,0h6l0,0
	h6l0,0h6.4c1.1,0,0.6-0.6,0.6-1.7V12.5C45.5,11.4,46,10,44.9,10z"/>
<path id="XMLID_12_" class="st0" d="M43.8,47.7c0,1.6-1.3,2.9-2.9,2.9s-2.9-1.3-2.9-2.9c0-1.6,1.3-2.9,2.9-2.9S43.8,46.1,43.8,47.7z
	 M42.8,47.7c0-1-0.8-1.8-1.8-1.8c-1,0-1.8,0.8-1.8,1.8c0,1,0.8,1.8,1.8,1.8C41.9,49.5,42.8,48.7,42.8,47.7z"/>
<path id="XMLID_9_" class="st2" d="M34.4,47.7c0,1.6-1.3,2.9-2.9,2.9s-2.9-1.3-2.9-2.9c0-1.6,1.3-2.9,2.9-2.9S34.4,46.1,34.4,47.7z
	 M33.4,47.7c0-1-0.8-1.8-1.8-1.8c-1,0-1.8,0.8-1.8,1.8c0,1,0.8,1.8,1.8,1.8C32.6,49.5,33.4,48.7,33.4,47.7z"/>
<path id="XMLID_6_" class="st3" d="M25,47.7c0,1.6-1.3,2.9-2.9,2.9c-1.6,0-2.9-1.3-2.9-2.9c0-1.6,1.3-2.9,2.9-2.9
	C23.8,44.8,25,46.1,25,47.7z M24,47.7c0-1-0.8-1.8-1.8-1.8c-1,0-1.8,0.8-1.8,1.8c0,1,0.8,1.8,1.8,1.8C23.2,49.5,24,48.7,24,47.7z"/>
<path id="XMLID_5_" class="st4" d="M22.2,45.9c1,0,1.8,0.8,1.8,1.8c0,1-0.8,1.8-1.8,1.8c-1,0-1.8-0.8-1.8-1.8
	C20.3,46.7,21.2,45.9,22.2,45.9z"/>
<path id="XMLID_2_" class="st5" d="M15.7,47.7c0,1.6-1.3,2.9-2.9,2.9s-2.9-1.3-2.9-2.9c0-1.6,1.3-2.9,2.9-2.9S15.7,46.1,15.7,47.7z
	 M14.6,47.7c0-1-0.8-1.8-1.8-1.8c-1,0-1.8,0.8-1.8,1.8c0,1,0.8,1.8,1.8,1.8C13.8,49.5,14.6,48.7,14.6,47.7z"/>
<path id="XMLID_1_" class="st5" d="M37.5,12h-22V1.4c0-0.7,0.3-1.4,1.1-1.4h19.7c0.7,0,1.2,0.5,1.2,1.2V12z"/>
<rect x="9.8" y="14" class="st5" width="34" height="26.3"/>
<circle class="st5" cx="12.9" cy="63.9" r="2.3"/>
<circle class="st5" cx="18.6" cy="63.9" r="2.3"/>
</svg>
