<!-- Generator: Adobe Illustrator 19.0.0, SVG Export Plug-In  -->
<svg version="1.1"
	 xmlns="http://www.w3.org/2000/svg" xmlns:xlink="http://www.w3.org/1999/xlink" xmlns:a="http://ns.adobe.com/AdobeSVGViewerExtensions/3.0/"
	 x="0px" y="0px" width="28px" height="29px" viewBox="0 0 28 29" style="enable-background:new 0 0 28 29;" xml:space="preserve">
<style type="text/css">
	.st0{fill:#373737;}
	.st1{fill:#EEEEEE;}
	.st2{fill:#B4B2B2;}
	.st3{fill:#706E6F;}
</style>
<defs>
</defs>
<g id="XMLID_1_">
	<circle id="XMLID_34_" class="st0" cx="13.8" cy="14.6" r="13.5"/>
	<circle id="XMLID_33_" class="st1" cx="13.8" cy="14.6" r="7.9"/>
	<circle id="XMLID_32_" class="st2" cx="13.8" cy="14.6" r="4.9"/>
	<circle id="XMLID_31_" class="st3" cx="13.8" cy="14.6" r="2.4"/>
	<g id="XMLID_2_">
		<g id="XMLID_24_">
			<g id="XMLID_28_">
				<rect id="XMLID_30_" x="12" class="st0" width="3" height="2"/>
				<rect id="XMLID_29_" x="12" y="27" class="st0" width="3" height="2"/>
			</g>
			<g id="XMLID_25_">
				<rect id="XMLID_27_" x="26" y="13" class="st0" width="2" height="3"/>
				<rect id="XMLID_26_" y="13" class="st0" width="1" height="3"/>
			</g>
		</g>
		<g id="XMLID_17_">
			<g id="XMLID_21_">
				
					<rect id="XMLID_23_" x="21.9" y="4.2" transform="matrix(-0.7071 -0.7071 0.7071 -0.7071 36.1495 25.1084)" class="st0" width="2.7" height="1.7"/>
				
					<rect id="XMLID_22_" x="2.9" y="23.2" transform="matrix(-0.7071 -0.7071 0.7071 -0.7071 -9.677 44.0904)" class="st0" width="2.7" height="1.7"/>
			</g>
			<g id="XMLID_18_">
				
					<rect id="XMLID_20_" x="21.9" y="23.2" transform="matrix(0.7071 -0.7071 0.7071 0.7071 -10.1884 23.5017)" class="st0" width="2.7" height="1.7"/>
				
					<rect id="XMLID_19_" x="2.9" y="4.2" transform="matrix(0.7071 -0.7071 0.7071 0.7071 -2.3258 4.5198)" class="st0" width="2.7" height="1.7"/>
			</g>
		</g>
		<g id="XMLID_10_">
			<g id="XMLID_14_">
				
					<rect id="XMLID_16_" x="24.8" y="8.5" transform="matrix(-0.386 -0.9225 0.9225 -0.386 27.6151 37.1352)" class="st0" width="2.7" height="1.7"/>
				
					<rect id="XMLID_15_" x="0" y="18.9" transform="matrix(-0.386 -0.9225 0.9225 -0.386 -16.2666 28.6517)" class="st0" width="2.7" height="1.7"/>
			</g>
			<g id="XMLID_11_">
				
					<rect id="XMLID_13_" x="17.6" y="26.1" transform="matrix(0.9225 -0.386 0.386 0.9225 -8.9289 9.4079)" class="st0" width="2.7" height="1.7"/>
				
					<rect id="XMLID_12_" x="7.2" y="1.3" transform="matrix(0.9225 -0.386 0.386 0.9225 -0.1733 3.4893)" class="st0" width="2.7" height="1.7"/>
			</g>
		</g>
		<g id="XMLID_3_">
			<g id="XMLID_7_">
				
					<rect id="XMLID_9_" x="24.8" y="19" transform="matrix(0.3924 -0.9198 0.9198 0.3924 -2.3589 36.0796)" class="st0" width="2.7" height="1.7"/>
				
					<rect id="XMLID_8_" x="0.1" y="8.4" transform="matrix(0.3924 -0.9198 0.9198 0.3924 -7.6724 6.9685)" class="st0" width="2.7" height="1.7"/>
			</g>
			<g id="XMLID_4_">
				
					<rect id="XMLID_6_" x="7.2" y="26.1" transform="matrix(0.9198 0.3924 -0.3924 0.9198 11.2407 -1.1842)" class="st0" width="2.7" height="1.7"/>
				
					<rect id="XMLID_5_" x="17.7" y="1.4" transform="matrix(0.9198 0.3924 -0.3924 0.9198 2.3963 -7.2982)" class="st0" width="2.7" height="1.7"/>
			</g>
		</g>
	</g>
</g>
</svg>
