<!-- Generator: Adobe Illustrator 19.0.0, SVG Export Plug-In  -->
<svg version="1.1"
	 xmlns="http://www.w3.org/2000/svg" xmlns:xlink="http://www.w3.org/1999/xlink" xmlns:a="http://ns.adobe.com/AdobeSVGViewerExtensions/3.0/"
	 x="0px" y="0px" width="57.5px" height="57.5px" viewBox="0 0 57.5 57.5" style="enable-background:new 0 0 57.5 57.5;"
	 xml:space="preserve">
<style type="text/css">
	.st0{fill-rule:evenodd;clip-rule:evenodd;fill:#539493;}
	.st1{fill-rule:evenodd;clip-rule:evenodd;fill:#374F4E;}
	.st2{fill-rule:evenodd;clip-rule:evenodd;fill:#B9D6D4;}
	.st3{fill-rule:evenodd;clip-rule:evenodd;fill:#FFFFFF;}
</style>
<defs>
</defs>
<g>
	<path class="st0" d="M33.3,3c1.5,0.3,3,0.7,4.4,1.2l0.9-2.5c1.6,0.6,3.1,1.3,4.5,2.1l-1.3,2.3c1.3,0.8,2.6,1.6,3.7,2.6l1.7-2
		c1.3,1.1,2.5,2.3,3.5,3.5l-2,1.7c1,1.2,1.9,2.4,2.6,3.7l2.3-1.3c0.8,1.4,1.5,3,2.1,4.5l-2.5,0.9c0.5,1.4,0.9,2.9,1.2,4.4l2.6-0.6
		c0.3,1.6,0.4,3.9,0.4,4.9l0,0h-2.6c0,2-0.1,3.2-0.4,4.7l2.6,0.5c-0.3,1.7-0.7,3.3-1.3,4.9l-2.5-0.9c-0.5,1.4-1.2,2.8-1.9,4.1
		l2.3,1.3c-0.8,1.5-1.8,2.8-2.9,4.1l-2-1.7c-1,1.2-2.1,2.2-3.2,3.2l1.7,2c-1.3,1.1-2.7,2-4.1,2.9l-1.3-2.3c-1.3,0.8-2.7,1.4-4.1,1.9
		l0.9,2.5c-1.6,0.6-3.2,1-4.8,1.3l-0.6-2.6c-1.5,0.3-2.7,0.4-4.7,0.4v2.6c-1,0-3.2-0.1-4.8-0.4l0.5-2.6c-1.5-0.3-2.9-0.7-4.4-1.2
		l-0.9,2.5c-1.6-0.6-3.1-1.3-4.5-2.1l1.3-2.3c-1.3-0.8-2.6-1.6-3.7-2.6l-1.7,2c-1.3-1.1-2.5-2.3-3.5-3.5l2-1.7
		c-1-1.2-1.9-2.4-2.6-3.7l-2.3,1.3c-0.8-1.4-1.5-3-2.1-4.5l2.5-0.9c-0.5-1.4-0.9-2.9-1.2-4.4l-2.6,0.3C0.1,32,0,30.5,0,28.5l0,0h2.6
		c0-1,0.1-3,0.4-4.4l-2.6-0.4c0.3-1.7,0.7-3.3,1.3-4.8l2.5,0.9c0.5-1.4,1.2-2.8,1.9-4.1l-2.3-1.3c0.8-1.5,1.8-2.8,2.9-4.1l2,1.7
		c1-1.2,2.1-2.2,3.2-3.2l-1.7-2c1.3-1.1,2.7-2,4.1-2.9l1.3,2.3c1.3-0.8,2.7-1.4,4.1-1.9l-0.9-2.5c1.6-0.6,3.2-1,4.8-1.3L24.1,3
		c1.5-0.3,3.4-0.4,4.4-0.4V0c2,0,3.5,0.1,5.2,0.4L33.3,3z"/>
	<path class="st1" d="M31.4,13.7c0.9,0.2,1.7,0.4,2.6,0.7l0.5-1.4c0.9,0.3,1.8,0.8,2.7,1.2l-0.8,1.3c0.8,0.4,1.5,1,2.2,1.5l1-1.2
		c0.8,0.6,1.4,1.3,2.1,2.1l-1.2,1c0.6,0.7,1.1,1.4,1.5,2.2l1.3-0.8c0.5,0.8,0.9,1.7,1.2,2.7l-1.4,0.5c0.3,0.8,0.5,1.7,0.7,2.6
		l1.5-0.4c0.2,0.9,0.3,1.8,0.3,2.8l0,0h-1.5c0,1-0.1,1.9-0.2,2.8l1.5,0.3c-0.2,1-0.4,2-0.8,2.9L43.2,34c-0.3,0.8-0.7,1.7-1.1,2.4
		l1.3,0.8c-0.5,0.9-1.1,1.7-1.7,2.4l-1.2-1c-0.6,0.7-1.2,1.3-1.9,1.9l1,1.2c-0.7,0.6-1.6,1.2-2.4,1.7L36.4,42
		c-0.8,0.4-1.6,0.8-2.4,1.1l0.5,1.4c-0.9,0.3-1.9,0.6-2.8,0.8l-0.4-1.5c-0.9,0.2-1.8,0.2-2.8,0.2v1.5c-1,0-1.8-0.1-2.7-0.3l0.4-1.5
		c-0.9-0.2-1.7-0.4-2.5-0.7L23,44.6c-0.9-0.3-1.8-0.8-2.6-1.2l0.8-1.3c-0.8-0.4-1.5-1-2.2-1.5l-1,1.2c-0.8-0.6-1.4-1.3-2.1-2.1
		l1.2-1c-0.6-0.7-1.1-1.4-1.5-2.2l-1.3,0.8c-0.5-0.8-0.9-1.7-1.2-2.7l1.4-0.5c-0.3-0.8-0.5-1.7-0.7-2.6l-1.5,0.2
		c-0.2-0.9-0.3-2-0.3-3l0,0h1.5c0-1,0.1-1.7,0.2-2.5l-1.5-0.2c0.2-1,0.4-1.9,0.8-2.8l1.4,0.5c0.3-0.8,0.7-1.6,1.1-2.4l-1.3-0.8
		c0.5-0.9,1.1-1.7,1.7-2.4l1.2,1c0.6-0.7,1.2-1.3,1.9-1.9l-1-1.2c0.7-0.6,1.6-1.2,2.4-1.7l0.8,1.3c0.8-0.4,1.6-0.8,2.4-1.1L23,12.9
		c0.9-0.3,1.9-0.6,2.8-0.8l0.1,1.5c0.9-0.2,1.5-0.2,2.5-0.2v-1.5c1,0,2.1,0.1,3.1,0.3L31.4,13.7z"/>
	<g>
		<path class="st2" d="M28.5,32.3c2,0,3.6-1.6,3.6-3.6c0-2-1.6-3.6-3.6-3.6s-3.6,1.6-3.6,3.6C24.9,30.7,26.5,32.3,28.5,32.3z"/>
		<circle class="st3" cx="28.5" cy="28.8" r="1.1"/>
	</g>
</g>
</svg>
