<!-- Generator: Adobe Illustrator 19.0.0, SVG Export Plug-In  -->
<svg version="1.1"
	 xmlns="http://www.w3.org/2000/svg" xmlns:xlink="http://www.w3.org/1999/xlink" xmlns:a="http://ns.adobe.com/AdobeSVGViewerExtensions/3.0/"
	 x="0px" y="0px" width="86px" height="62px" viewBox="0 0 86 62" style="enable-background:new 0 0 86 62;" xml:space="preserve">
<style type="text/css">
	.st0{fill:#22648A;}
	.st1{opacity:0.5;fill:#B1C4CE;}
	.st2{fill:#11354B;}
</style>
<defs>
</defs>
<g>
	<g>
		<path class="st0" d="M0,0v62h10v-8h65v8h11V0H0z M77,43.5c0,0.8-0.7,1.5-1.5,1.5H10.5C9.7,45,9,44.3,9,43.5V8.5
			C9,7.7,9.7,7,10.5,7h65.1C76.3,7,77,7.7,77,8.5V43.5z"/>
	</g>
	<path class="st1" d="M77,43.5c0,0.8-0.7,1.5-1.5,1.5H10.5C9.7,45,9,44.3,9,43.5V8.5C9,7.7,9.7,7,10.5,7h65.1C76.3,7,77,7.7,77,8.5
		V43.5z"/>
	<path class="st2" d="M78,43.6c0,1.3-1.1,2.4-2.4,2.4H10.4C9.1,46,8,44.9,8,43.6V8.4C8,7.1,9.1,6,10.4,6h65.1C76.9,6,78,7.1,78,8.4
		V43.6z M76,8.5C76,8.2,75.8,8,75.5,8h-65C10.2,8,10,8.2,10,8.5v35c0,0.3,0.2,0.5,0.5,0.5h65c0.3,0,0.5-0.2,0.5-0.5V8.5z"/>
</g>
</svg>
