<!-- Generator: Adobe Illustrator 19.0.0, SVG Export Plug-In  -->
<svg version="1.1"
	 xmlns="http://www.w3.org/2000/svg" xmlns:xlink="http://www.w3.org/1999/xlink" xmlns:a="http://ns.adobe.com/AdobeSVGViewerExtensions/3.0/"
	 x="0px" y="0px" width="109px" height="46px" viewBox="0 0 109 46" style="enable-background:new 0 0 109 46;"
	 xml:space="preserve">
<style type="text/css">
	.st0{fill:#EABEA7;}
	.st1{opacity:0.5;fill:#B1C4CE;stroke:#374F4E;stroke-width:2;stroke-miterlimit:10;}
</style>
<defs>
</defs>
<path class="st0" d="M107.3,0H1.7C0.6,0,0,0.5,0,1.6v42C0,44.6,0.6,46,1.7,46h105.6c1.1,0,1.7-1.4,1.7-2.5v-42
	C109,0.5,108.4,0,107.3,0z M35,28.2c0,5.5-4.2,9.8-9.7,9.8H13.5C8,38,3,33.7,3,28.2V17.9C3,12.4,8,8,13.5,8h11.8
	c5.5,0,9.7,4.4,9.7,9.9V28.2z M71,28c0,5.5-4.5,10-10,10H49c-5.5,0-10-4.5-10-10V18c0-5.5,4.5-10,10-10h12c5.5,0,10,4.5,10,10V28z
	 M106,28.2c0,5.5-4.3,9.8-9.8,9.8H84.4C78.8,38,74,33.7,74,28.2V17.9C74,12.4,78.8,8,84.4,8h11.8c5.5,0,9.8,4.4,9.8,9.9V28.2z"/>
<path class="st1" d="M35,17.9v10.3c0,5.5-4.2,9.8-9.7,9.8H13.5C8,38,3,33.7,3,28.2V17.9C3,12.4,8,8,13.5,8h11.8
	C30.8,8,35,12.4,35,17.9z"/>
<path class="st1" d="M71,28c0,5.5-4.5,10-10,10H49c-5.5,0-10-4.5-10-10V18c0-5.5,4.5-10,10-10h12c5.5,0,10,4.5,10,10V28z"/>
<path class="st1" d="M106,17.9v10.3c0,5.5-4.3,9.8-9.8,9.8H84.4C78.8,38,74,33.7,74,28.2V17.9C74,12.4,78.8,8,84.4,8h11.8
	C101.7,8,106,12.4,106,17.9z"/>
</svg>
